<svg id="Calque_1" data-name="Calque 1" xmlns="http://www.w3.org/2000/svg" viewBox="0 0 1806.35 1467.19"><defs><style>.cls-1{fill:#070705;}.cls-2{fill:#141413;}.cls-3{fill:#fefefe;}.cls-4{fill:#fade15;}.cls-5{fill:#080807;}</style></defs><g id="Bee"><g id="path10"><path class="cls-1" d="M1214.16,885.5c3,8.56,9.17,15.17,14.15,22.51,14.36,21,28.86,42,43.69,62.64,5.19,7.28,7.69,14.62,7.28,23.59-1.68,39.37-4.52,78.68-11.06,117.58-3.7,22-13.75,41.32-27.91,58.38-32.83,39.58-74.56,67-121.41,87-4.25,1.82-8.5,3.17-13.89,1.88-52.92-12.53-104.63-5.19-155.8,10-50.23,14.9-50.43,14.9-82.32,56.63-14,18.27-28.92,36.21-40.18,56.09-11.4,20.09-10.32,44.43-16.18,66.55-3.64,13.75-5.4,28-12,41.12-2.83-39.17-5.8-78.07-9.71-116.9a580.36,580.36,0,0,0-10.25-64.52c-5.26-24.68-22.58-36.81-44.16-43-32-9.17-63.91-18.75-93.91-33.44-76.58-37.55-131.39-94.25-155.06-177.85C472.16,1007,469.8,959.59,479,911.66c1.14-5.94,2-11.87,3.3-19.62a553.7,553.7,0,0,1-71.06-1.62c-70.11-5.93-135.44-25.42-192.95-67.28a240.64,240.64,0,0,1-33.91-30.21,37.36,37.36,0,0,1-10.65-24.13c-6.74-85.35-9.57-170.64-4.18-256.19,5.19-83.12,17.13-165,40.92-244.86,9.51-31.95,22.45-62.63,36.14-93,8.83-19.49,23.53-26.23,42.88-27a99,99,0,0,1,47.66,9.37C474,223,587.71,315.35,667.47,446.41a731.1,731.1,0,0,1,44.29,85.42c4.25,9.64,9,11.52,19.28,9.43a323.6,323.6,0,0,0,88.45-32c21.85-11.8,38.84-14.56,55.89,7.89,10,13.14,27.24,20.36,32.84,37.82,1.68,5.26,6.94,6.34,11.39,8.16,33.17,13.68,67.48,22.78,102.81,29,10.79,1.89,16.52-1.68,22.92-9.3,60.68-71.46,131.87-130.11,214.19-175q135.71-74,289.62-88.79c10-1,15.31,2.36,20,10.92,21,38.29,31.88,79.69,38.42,122.43,12.21,79.55,11.87,159.37,4.66,239.4C1609,727.4,1605,762.86,1598.17,798c-4.66,23.87-18,40.45-38.77,52-17,9.5-35.06,16.45-53.6,22.11-37,11.33-73.62,24.07-112.25,29.33-54.94,7.41-108.67.87-161.8-13.49-5.19-1.41-10.38-2.56-15.64-3.77-.27,0-.88.67-1.95,1.35ZM696.39,549c-1.35-3.17-1.89-4.92-2.83-6.41C651.49,480.18,607,419.64,556,364.09c-37.82-41.26-78.41-79.35-126.14-109.21-33.84-21.11-70.38-34.59-109.69-41.6-20.29-3.57-35.86,2.16-47.66,18.47a193.19,193.19,0,0,0-14.56,23c-9.44,17.66-16,36.61-22,55.69-15.37,49.21-24.75,99.91-35.13,150.34-19.68,95.66-15.44,190.38,9.85,284.5,4.38,16.25,12.67,27.44,26.49,36.81C317.37,836.69,406,858.4,502.3,854.69c28.92-1.08,45.17-17,60.6-37,2.84-3.65,3.11-7,.34-11.33-18.4-28.86-19-61.76-22.18-94.38-3.37-34.86,6.94-63.17,33.24-85.83,4.78-4.18,8.15-8.76,7.35-15.57-.54-4.45,2.42-8,3.7-12.07,2.36-7.68,6.34-12,15.64-10.79,7.62,1,15.44.75,23-3.1,23.73-12,47.73-23.52,72.41-35.59ZM1227,856a207,207,0,0,0,102.2,27.44c86.16.54,166.32-15.91,228.21-82.72a7.34,7.34,0,0,1,1.35-1.22c9.43-6.74,13.55-16.38,15.91-27.37,6.67-31.42,13.28-62.83,16.24-94.85,6.14-66.14,6.14-131.87-12.67-196.46-12.2-41.87-24.27-83.66-40.45-124.25-3.24-8.16-7.35-11.33-16.25-9.17-12.34,3-24.94,4.86-37.35,7.49-82.72,17.73-162.34,43.75-235.82,86.63-51.78,30.2-98,67.08-133.15,116.29-9.44,13.28-18.61,26.83-23.06,43,2.36,1.42,4.32,3,6.54,3.78,32.29,11.6,65.12,18.74,99.71,13.48,4.92-.74,11-3.84,13.69,4.05,4.78,14.22,13.21,27.37,13.08,43.15-.21,23.19,4.11,45.77,9.23,68.29a418.92,418.92,0,0,1,10.25,86.5c.2,11.66-2.43,21.57-12.14,28.72-2.42,1.75-4.78,3.64-5.52,7.21ZM920.49,681.49c-1.82-46-17.73-87.78-42.41-125.66-19.15-29.4-56.63-34.39-86.63-14.77a195.67,195.67,0,0,1-33.84,17.33c-27.38,11.26-55.08,21.91-82.39,33.3C650.68,602,627,613.87,605,629.24c-17.26,12-25.41,27.71-27.71,48.34-2.89,26.29,2.9,51.91,3.31,77.8.33,19.28,8.29,33.58,19.89,47.13,11.93,14,26.42,24.81,42.6,33.5,22.59,12.14,46.93,18.88,71.53,25.35,24,6.34,45.17,2.83,65.53-11,14-9.44,28.66-18.13,44.57-24.27,24.74-9.5,43.08-26.49,57.57-48.13,12.88-19.22,22-40.32,31.28-61.35a75.1,75.1,0,0,0,7-35.13Zm5.59-84.74c5.53,22.31,12.14,41.33,13.76,61.15,2.49,31,10.71,63-11.6,90.87-2.76,3.44-1.42,6.68.94,9.85,20,26.43,31.82,57,44.3,87.24,5.52,13.41,15,19.95,28.31,22.51,9,1.69,17.93,2.7,27.1,1.28,14.36-2.22,28.93-3.43,43.08-6.67,10.79-2.49,19.89-1.08,29.67,3.71,13.62,6.6,27.57,12.54,43.08,13.55,12,.81,22.45-1,31.08-10.86,5.52-6.27,12.74-11.19,19.68-16,8.43-5.87,13.15-13.82,16.18-23.39,4-12.41,4-25.08,4.11-37.83.48-44-9.64-86.63-16.18-129.77-1-6.54-4.45-12.54-8.69-17.8-8-9.91-10.11-10.45-22.59-5.06-18.4,8-36.74,10.38-56.22,2.7a205.49,205.49,0,0,0-61.89-13.62c-29.33-2-57.44-8.63-85-18.27-12.13-4.25-24.13-8.36-39.17-13.55Zm-398.23,413.6c-2.83,17.8,1.41,33.38,9.23,48,6.34,11.73,14.16,22.58,20.77,34.18,4.25,7.41,10,11.25,18.27,13.41,25.89,6.81,52.25,10.52,78.74,13.42,47.67,5.19,95.53,7.21,143.4,8.9q126.4,4.44,252.81-2c4.18-.2,8.7-.4,12.41-2,36.61-15.71,75.64-21,114.47-27.78,21.44-3.7,43.08-6.74,64-13.41,5.8-1.82,11.26-3.51,14.36-9.85,8.3-16.78,6.27-34.58-6.33-48.67-3.24-3.64-7-6.94-9.65-10.85-4.71-6.88-9.77-6.61-17-3.78-77.4,30.2-158,45.91-240.61,52.11-99.65,7.49-198.68,2-297.18-13.88-53.33-8.63-105.91-19.89-157.62-37.83Zm680.51-86.16c-4-8.15-8-15.57-11.4-23.25-5.93-13.42-5.79-13.69-19-9.24-92.63,31.28-187.89,45.91-285.58,46.45-79,.47-157.42-3.1-234.34-23.12-31-8.09-61.89-16.86-93.1-24.27-18.68-4.45-28.45,2.89-34.32,23-6.47,22.25-5.26,24.75,16.59,33.51,3.91,1.55,7.88,3.1,11.93,4.32,64.45,19.61,130.45,32.36,197.26,40,63.37,7.35,127.08,5.06,190.73,3,48.54-1.62,96.61-6.07,142.45-24.47,36.47-14.7,73.62-27.78,110.43-41.67,2.69-.94,5.19-2.56,8.36-4.25Zm-8.5,232.93c-6.54-2.43-10-1.08-13.48,0-59.46,18.14-120.41,26.5-182.43,28.59-21.78.74-43.55,1.82-65.13,5.46-57.3,9.64-114.4,7.48-171.78-1.22-43.68-6.67-87.3-13.88-131.39-17.39-7-.54-14.43-2.9-20.83,2.56,1.48,7.62,7.61,10.72,13.14,14.29a120.45,120.45,0,0,0,36.54,15.85c27.58,6.54,52.12,19.14,75.71,34.18,7.62,4.85,15.78,9,23.87,13.08a27.36,27.36,0,0,0,15.64,3,375.75,375.75,0,0,1,81.64,1.08c36.74,4.72,72.14,1.55,107-11.86,19.69-7.62,40.25-13.15,60.88-17.94,6.68-1.55,12.74-1.88,19.42.81,19.35,7.82,39.23,7.22,58.65.34,37.62-13.35,65.53-39.64,92.56-70.79ZM751.81,892c57.37,8.22,114.47,12.07,171.78,3.5,16.31-2.42,33.1-5.32,47.8-15.77-24.54-15.84-24.48-15.91-41.94-43.82-8-12.68-16.78-24.54-30.2-32.77-20,23-45.57,36.21-68.77,52.66C806.48,872.76,780.93,885.83,751.81,892Z" transform="translate(-20.28 -22.3)"/></g><g id="path38"><path class="cls-2" d="M332.2,22.49c-90,21.3-164.63,66.81-222.81,140.36C137.16,79.32,205.46,18.51,332.2,22.49Z" transform="translate(-20.28 -22.3)"/></g><g id="path42"><path class="cls-2" d="M1746.21,114.24c19,4.05,32.57,11.26,44.37,21.91,13.14,11.94,23,26.57,33,41,1.35,2,2.83,4.25,2.9,6.48.88,28.11-2.43,55.21-21.91,78.6,1.55-14.42,1.55-29.19,4.85-43.14,6.14-25.76-2.56-46.12-18.87-65.06-12.34-14.36-27.38-25.55-44.36-39.78Z" transform="translate(-20.28 -22.3)"/></g><g id="path44"><path class="cls-2" d="M1677.18,167.7c19.28-19.34,33.5-17.79,43.42,4.05,12.67,27.78,16,57.44,17.05,88.18-5.8-2.49-5.59-7-6.81-10.85-6.94-21.31-13.82-42.68-25.68-61.89-6-9.91-12.81-19.42-28-19.49Z" transform="translate(-20.28 -22.3)"/></g><g id="path46"><path class="cls-2" d="M83,63.41C52,96.71,28.08,129.48,33.81,175.05c-7.41-.33-11.12-4.24-11.86-10-1.55-11.87-4.18-23.87,4-35a55.2,55.2,0,0,0,9.85-21.31C41.3,83.77,53.43,71.43,83,63.41Z" transform="translate(-20.28 -22.3)"/></g><path id="path130" class="cls-3" d="M696.39,549c-24.67,12.13-48.67,23.59-72.34,35.66-7.55,3.84-15.37,4.11-23,3.1-9.3-1.28-13.28,3-15.64,10.79-1.21,4-4.25,7.55-3.71,12.07.81,6.81-2.56,11.39-7.34,15.57-26.3,22.72-36.61,51-33.24,85.82,3.17,32.63,3.71,65.53,22.18,94.39,2.76,4.31,2.56,7.62-.34,11.32-15.5,20-31.75,35.87-60.61,37-96.34,3.7-184.92-18-265.08-72.61-13.82-9.44-22.11-20.63-26.5-36.81-25.28-94.19-29.52-188.84-9.84-284.5,10.38-50.43,19.69-101.06,35.13-150.35,6-19.07,12.53-38,22-55.68a199.58,199.58,0,0,1,14.57-23c11.79-16.32,27.37-22,47.66-18.47,39.3,6.94,75.84,20.42,109.69,41.59,47.73,29.8,88.31,68,126.14,109.22,51,55.55,95.46,116.09,137.53,178.52.87,1.35,1.41,3.17,2.76,6.34Z" transform="translate(-20.28 -22.3)"/><path id="path132" class="cls-3" d="M1227,856c.73-3.57,3.16-5.39,5.59-7.21,9.71-7.22,12.34-17.06,12.14-28.72a420.09,420.09,0,0,0-10.25-86.5c-5.12-22.52-9.44-45.1-9.24-68.29.13-15.78-8.29-28.86-13.08-43.15-2.62-7.89-8.76-4.79-13.68-4.05-34.59,5.33-67.42-1.88-99.71-13.48-2.23-.81-4.18-2.36-6.54-3.78,4.45-16.18,13.55-29.73,23.06-43,35.19-49.28,81.37-86.09,133.14-116.29,73.49-42.88,153.11-68.9,235.83-86.63,12.41-2.63,25-4.45,37.35-7.49,8.9-2.16,12.94.95,16.25,9.17,16.18,40.52,28.24,82.38,40.45,124.25,18.81,64.59,18.74,130.32,12.67,196.46-3,32-9.57,63.43-16.25,94.85-2.35,11.06-6.54,20.63-15.91,27.37a11.09,11.09,0,0,0-1.34,1.22c-61.89,66.74-142.12,83.26-228.21,82.72A207.65,207.65,0,0,1,1227,856Z" transform="translate(-20.28 -22.3)"/><path id="path134" class="cls-3" d="M920.49,681.49a76,76,0,0,1-7,35.26c-9.3,21-18.4,42.14-31.28,61.35-14.49,21.64-32.83,38.63-57.57,48.14-15.91,6.13-30.54,14.76-44.57,24.27-20.36,13.75-41.53,17.32-65.53,11-24.6-6.48-49-13.22-71.53-25.35-16.18-8.7-30.67-19.49-42.6-33.51-11.6-13.55-19.62-27.84-19.89-47.12-.41-25.89-6.2-51.51-3.3-77.8,2.29-20.63,10.51-36.34,27.7-48.34,22-15.37,45.71-27.31,70.25-37.55,27.31-11.46,55-22.05,82.39-33.31a205.2,205.2,0,0,0,33.84-17.32c29.93-19.62,67.49-14.7,86.63,14.76,24.68,37.76,40.59,79.55,42.41,125.53Zm-225-34.92c-4.65,9.24-5.73,19.08-13.07,23.53-15.31,9.24-9.17,23-9.31,35.53-.07,3.3,2,5.32,5.06,6.67,9.37,4.18,18.34,9.37,27.91,12.74,18.67,6.54,33.64-2,38.76-21,4.72-17.6-4.31-31.48-12-45.71-1.48-2.76-4.18-4-7.61-3.57-10.59,1.41-19.49-4.18-29.74-8.16Z" transform="translate(-20.28 -22.3)"/><path id="path136" class="cls-3" d="M926.08,596.75c15,5.19,27,9.3,39,13.48,27.57,9.64,55.62,16.32,85,18.27a205.56,205.56,0,0,1,61.89,13.62c19.55,7.69,37.82,5.26,56.22-2.7,12.47-5.39,14.56-4.85,22.59,5.06,4.24,5.26,7.68,11.26,8.69,17.8,6.54,43.08,16.65,85.75,16.18,129.78-.13,12.74-.2,25.41-4.11,37.82-3,9.57-7.75,17.46-16.18,23.39-6.94,4.86-14.16,9.78-19.69,16.05-8.63,9.77-19.08,11.59-31.08,10.85-15.5-1-29.46-6.94-43.08-13.55-9.77-4.72-18.87-6.13-29.66-3.71-14.16,3.24-28.72,4.45-43.08,6.68-9.17,1.41-18.13.4-27.1-1.28-13.35-2.5-22.79-9.11-28.32-22.52C960.8,815.59,948.94,785,929,758.55c-2.36-3.1-3.71-6.34-.94-9.84,22.31-27.91,14.15-59.87,11.59-90.88-1.48-19.75-8-38.77-13.55-61.08ZM999.5,775.14c11.8,10.71,16.18,12.47,29.53,11.39A157.69,157.69,0,0,0,1047,784.1c31.62-6.27,37.69-16.45,28.79-47.59-3.51-12.27-10.59-20.1-24-21-9.64-.68-19.42-1.08-28-6.27-3.71-2.23-6.67-1.28-10.11.47-20.77,10.79-25.42,35.12-10,52.32,1.62,1.75,3.24,3.5,5.26,5.59C1005.9,770,1003.21,772.17,999.5,775.14Z" transform="translate(-20.28 -22.3)"/><path id="path138" class="cls-4" d="M527.85,1010.35c51.64,17.94,104.29,29.26,157.48,37.83,98.57,15.91,197.54,21.43,297.18,13.88,82.65-6.2,163.22-21.91,240.61-52.11,7.28-2.83,12.41-3.1,17.06,3.78,2.7,4,6.4,7.28,9.64,10.85,12.61,14.16,14.7,32,6.34,48.68-3.1,6.33-8.56,8-14.36,9.84-20.9,6.67-42.54,9.71-64,13.41-38.77,6.68-77.87,12.07-114.48,27.78-3.77,1.62-8.22,1.82-12.4,2q-126.32,6.38-252.82,2c-47.86-1.69-95.73-3.71-143.39-8.9-26.5-2.9-52.86-6.61-78.75-13.42-8.22-2.15-14-6-18.27-13.41-6.6-11.6-14.42-22.45-20.76-34.18-7.69-14.63-11.93-30.27-9.1-48Z" transform="translate(-20.28 -22.3)"/><path id="path140" class="cls-4" d="M1208.36,924.2c-3.17,1.68-5.66,3.3-8.36,4.31-36.81,13.89-74,27-110.43,41.66-45.84,18.48-94,22.93-142.45,24.48-63.58,2.09-127.29,4.38-190.73-3-66.81-7.75-132.74-20.49-197.26-40-4-1.21-8-2.76-11.93-4.31-21.85-8.76-23.06-11.26-16.59-33.51,5.87-20.09,15.58-27.44,34.32-23C596.14,898.24,627,907,658,915.09c76.92,20,155.33,23.6,234.34,23.13,97.69-.54,192.95-15.17,285.58-46.45,13.22-4.45,13.15-4.18,19,9.23,3.37,7.62,7.34,15,11.39,23.2Z" transform="translate(-20.28 -22.3)"/><path id="path142" class="cls-4" d="M1199.86,1157.12c-27,31.08-54.87,57.37-92.63,70.79-19.41,6.88-39.3,7.48-58.65-.34-6.67-2.69-12.68-2.36-19.42-.81-20.69,4.79-41.19,10.32-60.87,17.94-34.79,13.41-70.25,16.52-107,11.86a376.38,376.38,0,0,0-81.64-1.08,27.17,27.17,0,0,1-15.64-3c-8.09-4.11-16.25-8.23-23.86-13.08-23.6-15-48.21-27.64-75.71-34.18a118.05,118.05,0,0,1-36.54-15.84c-5.53-3.51-11.67-6.68-13.15-14.3,6.47-5.46,13.82-3.1,20.83-2.56,44.09,3.51,87.71,10.72,131.4,17.4,57.37,8.69,114.4,10.85,171.78,1.21,21.57-3.64,43.41-4.72,65.12-5.46,62-2.09,123-10.38,182.43-28.59,3.51-1.08,7-2.42,13.55,0Z" transform="translate(-20.28 -22.3)"/><path id="path144" class="cls-4" d="M751.81,892c29.12-6.14,54.74-19.21,78.67-36.2,23.2-16.45,48.75-29.67,68.77-52.66,13.35,8.23,22.25,20.09,30.2,32.77,17.46,27.84,17.4,27.91,41.94,43.82-14.7,10.52-31.42,13.35-47.8,15.78C866.28,904,809.11,900.26,751.81,892Z" transform="translate(-20.28 -22.3)"/><path id="path186" class="cls-5" d="M695.51,646.57c10.25,4,19.15,9.57,29.8,8.23,3.44-.41,6.07.8,7.62,3.57,7.62,14.22,16.72,28.11,12,45.71-5.12,18.94-20.09,27.57-38.76,21-9.64-3.37-18.61-8.56-27.91-12.74-3-1.35-5.13-3.37-5.06-6.67.2-12.54-6-26.3,9.3-35.53,7.28-4.45,8.36-14.3,13-23.6Z" transform="translate(-20.28 -22.3)"/><path id="path188" class="cls-5" d="M999.5,775.14l9.44-7.56c-2-2.15-3.64-3.84-5.26-5.59-15.44-17.19-10.72-41.53,10-52.32,3.38-1.75,6.41-2.69,10.12-.47,8.56,5.26,18.33,5.66,28,6.27,13.34.88,20.49,8.7,24,21,8.89,31.14,2.83,41.32-28.79,47.59a159.85,159.85,0,0,1-17.93,2.43c-13.42,1.15-17.8-.61-29.6-11.33Z" transform="translate(-20.28 -22.3)"/></g></svg>