<svg id="Calque_1" data-name="Calque 1" xmlns="http://www.w3.org/2000/svg" viewBox="0 0 929.77 979.34"><defs><style>.cls-1{fill:#0d0c0b;}.cls-2{fill:#ffe41e;}.cls-3{fill:#fce11e;}.cls-4{fill:#0e0e0e;}.cls-5{fill:#141413;}.cls-6{fill:#fade15;}</style></defs><g id="Core_1" data-name="Core 1"><g id="path6"><path class="cls-1" d="M929.43,324.37c-1.17,22.9-3.09,42.5-5.58,62-4.62,36-9.4,72-14.7,107.89q-8.7,58.8-18.46,117.39c-7,42.07-14.33,84.11-22.87,125.9-3.33,16.27-7.15,32.42-11.1,48.57-3,12.36-9.86,20.34-21.11,25.92-25.58,12.66-51.74,24-78.09,34.82-104.45,43-209.79,83.65-316.79,119.65-12.58,4.23-25.37,7.89-38.19,11.38-11,3-20.43,1.35-30-4.84-18.83-12.3-37-25.49-54.83-39.08C224.93,863.15,134.2,789.8,46.27,713c-11.89-10.39-23.29-21.33-34.7-32.3C2.67,672.1-.69,662.24.11,650c1.79-27.12,4.77-54.12,8.38-81q6.66-49.83,14.18-99.58,8.22-54.66,17.23-109.19c7-41.79,14.36-83.52,22.92-125,2.93-14.09,6.35-28.08,9.77-42.07,2.93-11.9,9.37-20,20.44-25.46,20.58-10.23,41.54-19.66,62.74-28.5q152.1-63.52,307.73-118C484.12,14,505,7.39,526,1.57c11.65-3.24,21.52-1.42,31.44,5.11,17.84,11.75,35.13,24.23,52.12,37.14,94.64,72.09,187.1,146.82,276.57,225.29,11.06,9.68,21.69,19.81,32.11,30.2,8,7.92,12.79,16.77,11.19,25.09ZM521,26.66c1.14,3.08,2,5.67,3.08,8.19q21,50.67,41.92,101.37c8.87,21.51,18,42.9,26.56,64.53,10.42,26.29.34,54.18-23.82,67a93.34,93.34,0,0,1-9.89,4.32L367.47,348.22c-31.37,12.48-62.81,24.87-94.15,37.45-11.13,4.47-22.5,6-34.18,3.33-19.26-4.47-32.11-16.49-39.57-34.68q-25.11-61.11-50.39-122.13C142.09,215,134.91,197.92,128,180.72c-1.36-3.39-2.78-4.19-6.08-2.4q-9.14,4.92-18.64,9.19a14.71,14.71,0,0,0-8.94,11c-2,8.91-4.56,17.69-6.5,26.63-9.56,43.3-17.17,87-24.56,130.64q-9.67,57-18.31,114.06Q36,529.42,28.37,589.24C25.66,610.38,23,631.58,22.51,653a14.86,14.86,0,0,0,4.66,11.77c11.56,11.61,23.56,22.68,35.9,33.43,85,74.21,172.77,145.16,262.36,213.76,19.14,14.67,38.47,29.1,58.78,42.13,4.22,2.71,8.13,3.55,13.22,2.19,14.45-3.82,28.75-8.2,42.9-13C549.64,906,657.33,864.48,764,820q29.91-12.54,59.11-26.53c7.4-3.57,11.74-8.47,13.19-16.55,1.29-7.33,3.48-14.54,5.12-21.85,9.58-43,17.07-86.41,24.5-129.81s14.51-86.91,20.65-130.51c4.74-33.75,9.77-67.47,14.11-101.28,2.71-21.17,5-42.37,6.26-63.7.43-7.33-1.48-12.73-6.88-17.57-8.87-7.95-17.22-16.48-26.13-24.4-71.16-63.14-145.1-123-219.8-181.83-33.53-26.41-67-52.91-102.54-76.64-13.9-9.31-9.61-9.16-28.26-3.92-.58.22-1,.56-2.28,1.21ZM463.29,221.77c17.66-7,35.56-14.18,53.56-21.11,3.82-1.48,2.37-3.67,1.51-5.89q-22-56-44.16-111.93c-2.19-5.52-2.34-5.55-8.42-3.18q-20.1,7.84-40.12,15.85c-2.56,1-5.09,2.19-7.71,3s-3.36,2.56-2.31,5.06c.53,1.29,1,2.56,1.54,3.85q21.15,53.67,42.32,107.28C460.39,217,460.79,219.58,463.29,221.77Z"/></g><path id="path48" class="cls-2" d="M521,26.66a12,12,0,0,1,2.22-1.15c18.68-5.24,14.36-5.37,28.26,3.91C587,53.15,620.49,79.65,654,106.07c74.7,58.87,148.61,118.72,219.8,181.81,8.91,7.89,17.26,16.45,26.13,24.41,5.4,4.83,7.31,10.23,6.88,17.56-1.24,21.33-3.52,42.56-6.26,63.71-4.35,33.8-9.34,67.52-14.12,101.27-6.16,43.61-13.25,87.09-20.64,130.52s-14.92,86.81-24.51,129.81c-1.63,7.3-3.79,14.48-5.11,21.85-1.45,8.07-5.8,13-13.19,16.55q-29.22,14.06-59.11,26.53C657.29,864.51,549.58,906,440.27,943.31c-14.15,4.8-28.42,9.21-42.9,13-5.09,1.36-9,.53-13.23-2.19-20.31-13-39.63-27.49-58.77-42.13C235.78,843.39,148,772.51,63,698.26c-12.28-10.75-24.38-21.82-35.9-33.43a14.92,14.92,0,0,1-4.66-11.78c.5-21.39,3.11-42.59,5.86-63.73Q36,529.5,44.86,469.93q8.55-57.15,18.3-114.07c7.4-43.7,15-87.37,24.57-130.64,2-8.9,4.53-17.72,6.5-26.63a14.76,14.76,0,0,1,8.94-11q9.48-4.26,18.64-9.15c3.33-1.76,4.72-1,6.07,2.4,6.94,17.2,14.15,34.3,21.24,51.47q25.26,61.07,50.39,122.14c7.46,18.18,20.31,30.17,39.57,34.67,11.68,2.71,23,1.14,34.18-3.33,31.34-12.61,62.78-25,94.15-37.45q95.7-38,191.39-76.15a107.11,107.11,0,0,0,9.89-4.31c24.16-12.86,34.24-40.75,23.82-67-8.57-21.63-17.69-43-26.56-64.53Q545,85.64,524,35c-1-2.62-1.88-5.24-3-8.29Zm-17.93,462.9c-44.48-.1-80.44,35.16-80.57,79C422.39,612,458.2,647.73,502,648c44.78.24,81.17-35.51,81-79.55-.24-43.49-35.88-78.72-79.89-78.84Z"/><path id="path50" class="cls-3" d="M463.29,221.77c-2.5-2.19-2.9-4.78-3.82-7q-21.21-53.65-42.32-107.26c-.49-1.29-1-2.59-1.54-3.85-1-2.53-.43-4.16,2.31-5s5.15-2,7.71-3c13.37-5.27,26.75-10.58,40.12-15.81,6.07-2.38,6.23-2.38,8.42,3.17Q496.31,139,518.33,195c.86,2.22,2.31,4.41-1.51,5.89C498.88,207.59,481,214.77,463.29,221.77Z"/><path id="path180" class="cls-4" d="M503.08,489.56c44,.09,79.66,35.32,79.85,78.89.21,44-36.18,79.79-81,79.55-43.77-.25-79.58-36-79.46-79.39.13-43.89,36.09-79.15,80.57-79.05Zm-.62,143.8c36.3.12,65.67-28.48,65.86-64.14.18-36.08-29.25-65.27-65.71-65.18-36.18.09-65.43,29-65.43,64.63s29,64.57,65.28,64.69Z"/><path id="path192" class="cls-3" d="M502.46,633.36c-36.24-.12-65.31-28.91-65.31-64.69S466.4,504.13,502.58,504c36.46-.09,65.92,29.1,65.71,65.18C568.13,604.85,538.73,633.45,502.46,633.36Zm-20.25-93c0-2.93-1-4.47-2.83-5.49s-3.43-1.82-5.15-2.68c-7.58-3.67-8.75-3.24-12.7,4.5q-3.18,6.28-6.25,12.6c-4.23,8.73-3.92,9.62,4.77,13.9,1,.5,1.94,1,3,1.48,4.69,1.91,6.69,1.54,9-2.62,3.45-6.28,6.47-12.82,9.61-19.26a8.23,8.23,0,0,0,.55-2.44Zm20.52,19.28c-8.94,0-9.19.25-9.16,9.31,0,8.6.34,8.93,8.7,9,9.18.06,9.55-.28,9.58-8.94C511.89,559.92,511.64,559.64,502.73,559.64Z"/><path id="path200" class="cls-5" d="M482.21,540.35a9,9,0,0,1-.62,2.43c-3.14,6.47-6.16,13-9.61,19.26-2.28,4.16-4.32,4.53-9,2.62-1-.4-2-1-3-1.48-8.66-4.28-9-5.17-4.77-13.9,2.06-4.22,4.12-8.41,6.25-12.6,4-7.74,5.15-8.17,12.7-4.5,1.72.83,3.45,1.73,5.15,2.68S482.24,537.42,482.21,540.35Zm-11.93-5.92c-2.62-.68-3.6.37-4.22,1.6-3,5.89-5.92,11.84-8.81,17.79-1,2.12-.4,3.69,1.79,4.68,1.75.8,3.42,1.76,5.17,2.59,2,.95,3.7.86,4.81-1.42,2.93-5.95,5.89-11.86,8.85-17.78.67-1.33,1-2.84-.44-3.67-2.58-1.54-5.33-2.83-7.15-3.79Z"/><path id="path202" class="cls-5" d="M502.73,559.64c8.87,0,9.12.28,9.09,9.34,0,8.63-.4,9-9.59,8.94-8.32-.07-8.66-.41-8.69-9C493.58,559.89,493.83,559.64,502.73,559.64Zm5.51,8.91c-.06-5.09-.3-5.34-5.76-5.27-5.15.06-5.39.3-5.33,5.73.06,5.08.37,5.36,5.76,5.3,5.19-.06,5.44-.34,5.37-5.8Z"/><path id="path204" class="cls-3" d="M470.28,534.43c1.82,1,4.6,2.22,7.15,3.79,1.39.86,1.08,2.34.44,3.67-3,5.92-5.92,11.83-8.85,17.78-1.11,2.25-2.84,2.34-4.81,1.42-1.72-.83-3.42-1.79-5.18-2.59-2.18-1-2.8-2.56-1.78-4.68,2.89-6,5.79-11.9,8.81-17.79C466.65,534.83,467.63,533.75,470.28,534.43Z"/><path id="path206" class="cls-6" d="M508.28,568.51c.07,5.42-.21,5.7-5.33,5.76-5.42.06-5.73-.22-5.76-5.3-.06-5.43.18-5.7,5.33-5.73C508,563.22,508.25,563.43,508.28,568.51Z"/></g></svg>