<svg id="Logo" xmlns="http://www.w3.org/2000/svg" xmlns:xlink="http://www.w3.org/1999/xlink" viewBox="0 0 972.95 1011.02"><defs><style>.cls-1,.cls-5,.cls-6{fill:none;}.cls-2{fill:#f9b233;}.cls-3{fill:#1d1d1b;}.cls-4{clip-path:url(#clip-path);}.cls-5,.cls-6{stroke:#fff;stroke-width:2.2px;}.cls-5{stroke-miterlimit:5.33;}.cls-6{stroke-miterlimit:13.33;}.cls-7{clip-path:url(#clip-path-2);}</style><clipPath id="clip-path" transform="translate(-53.52 -34.49)"><path id="Contour" class="cls-1" d="M668.44,479.22c-10.44,20.12-47,48-47.08,48-8.85,7.2-18.5,16.82-29.46,18.39a2.24,2.24,0,0,1-2.5-1.54c-3.45-12,12.65-53.84,12.68-53.91,13-32.29,29.73-78.59,40.74-97.18,12.87-21.74,25.71,16.85,28.1,30C673.93,439.69,677.38,463.22,668.44,479.22Z"/></clipPath><clipPath id="clip-path-2" transform="translate(-53.52 -34.49)"><path id="Contour-2" data-name="Contour" class="cls-1" d="M411.56,479.22c10.44,20.12,47,48,47.08,48,8.85,7.2,18.5,16.82,29.46,18.39a2.24,2.24,0,0,0,2.5-1.54c3.45-12-12.65-53.84-12.68-53.91-13-32.29-29.73-78.59-40.74-97.18-12.87-21.74-25.71,16.85-28.1,30C406.07,439.69,402.62,463.22,411.56,479.22Z"/></clipPath></defs><g id="Cadenas"><path id="Forme" class="cls-2" d="M883,939.73c-.17,51.81-18,69.76-69,69.78q-270.59.24-541.15,0c-57.25,0-75.93-19.4-75.93-77.67q-.06-153.72,0-307.45c0-65.52,10.32-77.45,78.18-85.09h0c0-66.11-.1-130.47,0-194.81C275.35,197.9,375.23,87.29,521.3,71.66c95.34-10.2,189.13,41.13,241.83,123.78L654,237.52C625.22,204.27,582.41,186,531.59,188c-84.53,3.38-145.1,69.62-145.5,159.66C385.78,411,386,474.28,386,542h37.46q194,0,387.92.08c55.46.09,71.51,16.62,71.6,73.55q.24,162,0,324.1" transform="translate(-53.52 -34.49)"/><path id="Contour-3" data-name="Contour" class="cls-3" d="M883,939.73c-.17,51.81-18,69.76-69,69.78q-270.59.24-541.15,0c-57.25,0-75.93-19.4-75.93-77.67q-.06-153.72,0-307.45c0-65.52,10.32-77.45,78.18-85.09h0c0-66.11-.1-130.47,0-194.81C275.35,197.9,375.23,87.29,521.3,71.66c95.34-10.2,189.13,41.13,241.83,123.78L654,237.52C625.22,204.27,582.41,186,531.59,188c-84.53,3.38-145.1,69.62-145.5,159.66C385.78,411,386,474.28,386,542h37.46q194,0,387.92.08c55.46.09,71.51,16.62,71.6,73.55q.24,162,0,324.1m35-324.18c-.12-76.55-32-109.24-106.57-109.36q-83.58-.09-167.17-.08L421,506.17c0-9,0-17.87,0-26.69-.06-45.41-.1-88.28.1-131.61.32-70.42,46.35-121.41,111.9-124,2-.06,4.13-.12,6.2-.12,32,0,58.88,9.81,79,27.63a108.1,108.1,0,0,1,23.15,29.39L674.23,268l106.3-41,32.78-12.63a316.84,316.84,0,0,0-16.84-31.85c-53.75-88.67-149.33-148.1-251-148.1A260.54,260.54,0,0,0,517.65,36c-80.24,8.56-149.35,42.65-199.83,98.63-50.7,56.16-77.6,128.7-77.74,209.8-.1,44.18-.06,88.35-.06,133.11l0,30.8c-23.79,4.82-41.54,12.45-55.11,27.34C163.63,559,161.88,591,161.88,624.39q-.06,153.78,0,307.47c0,78.46,34.23,113.47,110.88,113.53q133.88.09,267.79.12,136.71,0,273.4-.12c70.79-.06,103.84-33.58,104-105.58.28-113.11.16-227.37,0-324.26" transform="translate(-53.52 -34.49)"/></g><g id="Abeille"><g id="Ailes"><path id="Aile_droite" data-name="Aile droite" class="cls-3" d="M710.84,639.56c2.28-9.8,5.37-19.49,6.7-29.42,5.34-40.13-8.71-74.18-34.49-104-3.9-4.52-4.22-7.85-3-13.45,7.05-32.4,8.25-65-3.63-96.47-5-13.17-13.78-24.9-21.29-38.08a7.31,7.31,0,0,1,2.61-2.25c81.59-33.85,163.2-67.77,248-93a410,410,0,0,1,70.3-14c39.62-4.49,55.19,11.78,49.21,51.13a812.29,812.29,0,0,1-17.2,81.74c-5.75,22.19-20.67,39.72-35.12,56.94-35.58,42.4-77.66,77.88-120,113.2-30,25-61,48.22-95,67.46-14.68,8.34-30.29,15.07-45.47,22.52l-1.62-2.35" transform="translate(-53.52 -34.49)"/><path id="Aile_gauche" data-name="Aile gauche" class="cls-3" d="M368.2,641.32c-9.42-4.11-19.12-7.67-28.2-12.41-37.26-19.45-72.42-42-103.92-70.1-33.94-30.25-68.71-59.61-101.85-90.7-22-20.68-41.81-43.87-55.8-71.07-4.31-8.38-7.14-17.78-9.18-27-5.47-24.85-11.33-49.71-14.84-74.87-4.6-33,8.54-47,42-46.81,32.16.23,63,8.6,93,19,48.37,16.76,96.25,35,144.14,53.12,29.08,11,57.8,23,86.66,34.63,1.88.75,3.61,1.86,6.09,3.15-5.15,7.45-10.23,14.26-14.76,21.43-16.56,26.24-17.46,55.55-15.59,85.12.67,10.67,3.72,21.17,5.13,31.82.33,2.43-1,5.78-2.67,7.67-21,23.49-35.1,50.38-36.39,82.1-.59,14.65,3.26,29.48,5.28,44.21.4,2.89,1.67,5.67,2.53,8.5l-1.61,2.24" transform="translate(-53.52 -34.49)"/></g><g id="Corps"><path id="Abdomen" class="cls-3" d="M695.08,563c-1.39-.52-3.18-2.17-3.32-3.46-2.54-22.36-21.35-35.27-30.3-55.3-1.81,5-61.78,6.76-121.46,7-59.68-.25-119.65-2-121.46-7-9,20-27.76,32.94-30.3,55.3-.14,1.29-1.93,2.94-3.32,3.46-10.12,3.77-14.27,12.15-12.45,21.46a415.27,415.27,0,0,0,13.69,51.77c3.67,11,10.06,21,15.23,31.46-12,7-16.13,15.56-12.65,32.6,1.94,9.53,6.55,18.49,10.06,27.68,4.67,12.24,16.29,8.66,26.26,10.71-5.62,10.88-3.26,21.17,1,31.17,11.68,27.65,29.13,51,54.19,67.78,7.53,5.06,16.5,8.4,25.24,11.1,5.32,1.65,7.94,3.63,9.17,9.15L540,965.4h0l25.37-107.49c1.23-5.52,3.85-7.5,9.17-9.15,8.74-2.7,17.71-6,25.24-11.1,25.06-16.82,42.51-40.13,54.19-67.78,4.23-10,6.59-20.29,1-31.17,10-2.05,21.59,1.53,26.26-10.71,3.51-9.19,8.12-18.15,10.06-27.68,3.48-17-.63-25.63-12.65-32.6,5.17-10.47,11.56-20.5,15.23-31.46a415.27,415.27,0,0,0,13.69-51.77C709.35,575.18,705.2,566.8,695.08,563Z" transform="translate(-53.52 -34.49)"/><path id="Thorax" class="cls-3" d="M693.66,443.19c0-32.2,0-63.86-.14-95.52-.4-90-61-156.28-145.5-159.66H534.53C450,191.39,389.43,257.63,389,347.67c-.14,27.8-.16,55.62-.15,83.78-7.25,34-17.26,75-18,101.94-.5,19,85,123.1,106.5,133.33h1a2,2,0,0,0,.15.26l61.52-.13,61.52.13a2,2,0,0,0,.15-.26h1c21.54-10.23,107-114.34,106.5-133.33C708.47,509.53,700.51,474.51,693.66,443.19Z" transform="translate(-53.52 -34.49)"/><g id="Pattes"><g id="Pattes_3" data-name="Pattes 3"><path id="path74" class="cls-2" d="M622.36,762.71c5.63,11.65,3.56,17-6.16,22-10,5.15-19.3,5-28.58-1.23-7.12-4.75-14.25-9.48-21.14-14.95,19.19,3.74,38.13,7.93,55.88-5.86" transform="translate(-53.52 -34.49)"/><path id="path74-2" data-name="path74" class="cls-2" d="M457.64,762.71c-5.63,11.65-3.56,17,6.16,22,10,5.15,19.3,5,28.58-1.23,7.12-4.75,14.25-9.48,21.14-14.95-19.19,3.74-38.13,7.93-55.88-5.86" transform="translate(-53.52 -34.49)"/></g><g id="Pattes_2" data-name="Pattes 2"><path id="path62" class="cls-2" d="M413.29,691.15c13.81,10.61,13.81,10.61,55.84,9.41-14,6.66-27.72,14.24-42.22,19.65-8.37,3.11-14.78-4.42-19-10.55-4.65-6.77.39-12.76,5.38-18.51" transform="translate(-53.52 -34.49)"/><path id="path62-2" data-name="path62" class="cls-2" d="M666.71,691.15c-13.81,10.61-13.81,10.61-55.84,9.41,14,6.66,27.72,14.24,42.22,19.65,8.37,3.11,14.78-4.42,19-10.55,4.65-6.77-.39-12.76-5.38-18.51" transform="translate(-53.52 -34.49)"/></g><g id="Pattes_1" data-name="Pattes 1"><path id="path58" class="cls-2" d="M480.49,652.43a40,40,0,0,1-3.33,4.19c-25.16,22.22-21.48,20.8-45.63.68-5.74-4.78-11.49-9.61-16.73-14.9-11-11.17-10.55-22.71,1.29-34.51,8.43,11.54,16.59,23.23,25.3,34.49,11.68,15.11,19.2,17.08,39.1,10" transform="translate(-53.52 -34.49)"/><path id="path58-2" data-name="path58" class="cls-2" d="M599.51,652.43a40,40,0,0,0,3.33,4.19c25.16,22.22,21.48,20.8,45.63.68,5.74-4.78,11.49-9.61,16.73-14.9,11-11.17,10.55-22.71-1.29-34.51-8.43,11.54-16.59,23.23-25.3,34.49-11.68,15.11-19.2,17.08-39.1,10" transform="translate(-53.52 -34.49)"/></g></g><path id="Serrure" class="cls-2" d="M578.46,674a38.42,38.42,0,0,1-20,33.75v42.35a18.38,18.38,0,0,1-36.75,0v-42.3A38.46,38.46,0,1,1,578.46,674" transform="translate(-53.52 -34.49)"/></g><path id="Tête" class="cls-2" d="M584.67,557.85c-12.24-5-12-15-10.71-22.06,1.92-10.81,4.13-22.28,8-33.23q2.44-6.82,4.87-13.68c14.52-40.89,29.54-83.17,53.39-120.61l-18.76-19.44.38-.6c.52-.81,1-1.59,1.44-2.33a48,48,0,0,1,2.74-4.22c12.34-16.35,15-33.52,8.21-52.5-4.61-12.82-8.95-26-13.15-38.71q-2.73-8.28-5.49-16.56l-4-12-2-6c-9.42,10.66-11.78,20.72-7.67,32.43,2,5.6,3.61,11.43,5.19,17.06a204.18,204.18,0,0,0,7.51,23.11c7.82,18.77,4.65,34.41-10,49.23l-.52.53-.61-.41Q572.24,317,540,317.49h0q-32.18-.45-63.55,20.33l-.61.41-.52-.53c-14.62-14.82-17.79-30.46-10-49.23a204.18,204.18,0,0,0,7.51-23.11c1.58-5.63,3.22-11.46,5.19-17.06,4.11-11.71,1.75-21.77-7.67-32.43l-2,6-4,12q-2.78,8.26-5.49,16.56c-4.2,12.73-8.54,25.89-13.15,38.71-6.81,19-4.13,36.15,8.21,52.5a48,48,0,0,1,2.74,4.22c.45.74.92,1.52,1.44,2.33l.38.6-18.76,19.44c23.85,37.44,38.87,79.72,53.39,120.61q2.43,6.86,4.87,13.68c3.92,10.95,6.13,22.42,8.05,33.23,1.26,7.09,1.53,17.09-10.71,22.06a12.71,12.71,0,0,0-7.31,8.06,11.09,11.09,0,0,0,1.43,9.63c9.44,13.74,20.19,26.32,29.45,36.8,1.79,2,7.84,3.09,10.12,1.79,1.68-1,2.5-6.21,2.09-10.1-.74-7.07-2-14.07-3.24-21.48-.52-3-1-6.06-1.57-9.2l-.17-1h27.74l-.17,1c-.52,3.14-1.05,6.2-1.57,9.2-1.28,7.41-2.5,14.41-3.24,21.48-.41,3.89.41,9.15,2.09,10.1,2.28,1.3,8.33.23,10.12-1.79,9.26-10.48,20-23.06,29.45-36.8a11.09,11.09,0,0,0,1.43-9.63A12.71,12.71,0,0,0,584.67,557.85Z" transform="translate(-53.52 -34.49)"/><g id="Yeux"><g id="Oeil_droit" data-name="Oeil droit"><g id="Masque"><g class="cls-4"><g id="Grille"><g id="Ligne"><path id="_0" data-name="0" class="cls-5" d="M655.13,469.93c-1.87,0-3.1-2.28-3.1-6.29,0-4.19,1.33-6.42,3.12-6.42,2.12,0,3.08,2.49,3.08,6.28S657.23,469.93,655.13,469.93Zm.14-14.31c-3.8,0-5.29,4.19-5.29,8v0c0,5.1,2,7.93,5,7.93,3.35,0,5.28-2.89,5.28-8.13C660.29,458.5,658.46,455.62,655.27,455.62Z" transform="translate(-53.52 -34.49)"/><path id="_1" data-name="1" class="cls-5" d="M655.93,427.49l-3.33,1.8.41,1.82,2.69-1.44v13.79h2v-16Z" transform="translate(-53.52 -34.49)"/><path id="_0-2" data-name="0" class="cls-5" d="M655.13,413.71c-1.87,0-3.1-2.27-3.1-6.28,0-4.19,1.33-6.43,3.12-6.43,2.12,0,3.08,2.49,3.08,6.29S657.23,413.71,655.13,413.71Zm.14-14.31c-3.8,0-5.29,4.19-5.29,8v0c0,5.1,2,7.92,5,7.92,3.35,0,5.28-2.88,5.28-8.12C660.29,402.29,658.46,399.4,655.27,399.4Z" transform="translate(-53.52 -34.49)"/><path id="_1-2" data-name="1" class="cls-5" d="M655.93,371.27l-3.33,1.8.41,1.82,2.69-1.44v13.8h2v-16Z" transform="translate(-53.52 -34.49)"/><path id="_0-3" data-name="0" class="cls-5" d="M655.13,526.14c-1.87,0-3.1-2.27-3.1-6.28,0-4.19,1.33-6.43,3.12-6.43,2.12,0,3.08,2.49,3.08,6.29S657.23,526.14,655.13,526.14Zm.14-14.31c-3.8,0-5.29,4.19-5.29,8v0c0,5.09,2,7.92,5,7.92,3.35,0,5.28-2.88,5.28-8.12C660.29,514.72,658.46,511.83,655.27,511.83Z" transform="translate(-53.52 -34.49)"/><path id="_1-3" data-name="1" class="cls-5" d="M655.93,483.7l-3.33,1.8.41,1.82,2.69-1.44v13.8h2v-16Z" transform="translate(-53.52 -34.49)"/></g><g id="Ligne-2" data-name="Ligne"><path id="_0-4" data-name="0" class="cls-5" d="M669.63,485.11c-1.88,0-3.11-2.28-3.11-6.29,0-4.19,1.33-6.42,3.12-6.42,2.13,0,3.08,2.49,3.08,6.28S671.73,485.11,669.63,485.11Zm.13-14.31c-3.8,0-5.28,4.19-5.28,8v0c0,5.1,2,7.93,5,7.93,3.35,0,5.28-2.89,5.28-8.13C674.79,473.68,673,470.8,669.76,470.8Z" transform="translate(-53.52 -34.49)"/><path id="_1-4" data-name="1" class="cls-5" d="M670.42,442.67l-3.33,1.8.41,1.82,2.69-1.44v13.79h2v-16Z" transform="translate(-53.52 -34.49)"/><path id="_0-5" data-name="0" class="cls-5" d="M669.63,428.89c-1.88,0-3.11-2.27-3.11-6.28,0-4.19,1.33-6.42,3.12-6.42,2.13,0,3.08,2.49,3.08,6.28S671.73,428.89,669.63,428.89Zm.13-14.3c-3.8,0-5.28,4.18-5.28,8v0c0,5.1,2,7.92,5,7.92,3.35,0,5.28-2.88,5.28-8.12C674.79,417.47,673,414.59,669.76,414.59Z" transform="translate(-53.52 -34.49)"/><path id="_1-5" data-name="1" class="cls-5" d="M670.42,386.46l-3.33,1.79.41,1.82,2.69-1.44v13.8h2v-16Z" transform="translate(-53.52 -34.49)"/><path id="_0-6" data-name="0" class="cls-5" d="M669.63,541.32c-1.88,0-3.11-2.27-3.11-6.28,0-4.19,1.33-6.43,3.12-6.43,2.13,0,3.08,2.49,3.08,6.29S671.73,541.32,669.63,541.32Zm.13-14.31c-3.8,0-5.28,4.19-5.28,8v0c0,5.1,2,7.92,5,7.92,3.35,0,5.28-2.88,5.28-8.12C674.79,529.9,673,527,669.76,527Z" transform="translate(-53.52 -34.49)"/><path id="_1-6" data-name="1" class="cls-5" d="M670.42,498.88l-3.33,1.8.41,1.82,2.69-1.44v13.8h2v-16Z" transform="translate(-53.52 -34.49)"/></g><g id="Ligne-3" data-name="Ligne"><path id="_0-7" data-name="0" class="cls-5" d="M597.16,507.83c-1.88,0-3.11-2.27-3.11-6.29,0-4.18,1.33-6.42,3.12-6.42,2.13,0,3.08,2.49,3.08,6.29S599.26,507.83,597.16,507.83Zm.13-14.31c-3.8,0-5.28,4.19-5.28,8v0c0,5.09,2,7.92,5,7.92,3.35,0,5.28-2.89,5.28-8.12C602.32,496.41,600.49,493.52,597.29,493.52Z" transform="translate(-53.52 -34.49)"/><path id="_1-7" data-name="1" class="cls-5" d="M598,465.39l-3.33,1.8L595,469l2.69-1.44v13.79h2v-16Z" transform="translate(-53.52 -34.49)"/><path id="_0-8" data-name="0" class="cls-5" d="M597.16,451.61c-1.88,0-3.11-2.27-3.11-6.28,0-4.19,1.33-6.42,3.12-6.42,2.13,0,3.08,2.49,3.08,6.28S599.26,451.61,597.16,451.61Zm.13-14.3c-3.8,0-5.28,4.19-5.28,8v0c0,5.1,2,7.93,5,7.93,3.35,0,5.28-2.89,5.28-8.13C602.32,440.19,600.49,437.31,597.29,437.31Z" transform="translate(-53.52 -34.49)"/><path id="_1-8" data-name="1" class="cls-5" d="M598,409.18l-3.33,1.8.41,1.82,2.69-1.45v13.8h2v-16Z" transform="translate(-53.52 -34.49)"/><path id="_0-9" data-name="0" class="cls-5" d="M597.16,564c-1.88,0-3.11-2.27-3.11-6.28,0-4.19,1.33-6.42,3.12-6.42,2.13,0,3.08,2.49,3.08,6.28S599.26,564,597.16,564Zm.13-14.3c-3.8,0-5.28,4.19-5.28,8v0c0,5.1,2,7.92,5,7.92,3.35,0,5.28-2.88,5.28-8.12C602.32,552.62,600.49,549.74,597.29,549.74Z" transform="translate(-53.52 -34.49)"/><path id="_1-9" data-name="1" class="cls-5" d="M598,521.61l-3.33,1.79.41,1.83,2.69-1.45v13.8h2v-16Z" transform="translate(-53.52 -34.49)"/></g><g id="Ligne-4" data-name="Ligne"><path id="_0-10" data-name="0" class="cls-5" d="M611.65,497.48c-1.87,0-3.1-2.27-3.1-6.28,0-4.19,1.33-6.43,3.12-6.43,2.12,0,3.08,2.49,3.08,6.29S613.75,497.48,611.65,497.48Zm.13-14.31c-3.8,0-5.28,4.19-5.28,8v0c0,5.09,2,7.92,5,7.92,3.35,0,5.28-2.88,5.28-8.12C616.81,486.06,615,483.17,611.78,483.17Z" transform="translate(-53.52 -34.49)"/><path id="_1-10" data-name="1" class="cls-5" d="M612.45,455l-3.34,1.8.41,1.82,2.69-1.44V471h2V455Z" transform="translate(-53.52 -34.49)"/><path id="_0-11" data-name="0" class="cls-5" d="M611.65,441.25c-1.87,0-3.1-2.27-3.1-6.29,0-4.19,1.33-6.42,3.12-6.42,2.12,0,3.08,2.49,3.08,6.29S613.75,441.25,611.65,441.25Zm.13-14.31c-3.8,0-5.28,4.19-5.28,8v0c0,5.1,2,7.93,5,7.93,3.35,0,5.28-2.89,5.28-8.12C616.81,429.83,615,426.94,611.78,426.94Z" transform="translate(-53.52 -34.49)"/><path id="_1-11" data-name="1" class="cls-5" d="M612.45,398.8l-3.34,1.8.41,1.82,2.69-1.44v13.79h2v-16Z" transform="translate(-53.52 -34.49)"/><path id="_0-12" data-name="0" class="cls-5" d="M611.65,553.67c-1.87,0-3.1-2.28-3.1-6.29,0-4.19,1.33-6.42,3.12-6.42,2.12,0,3.08,2.49,3.08,6.29S613.75,553.67,611.65,553.67Zm.13-14.31c-3.8,0-5.28,4.19-5.28,8v0c0,5.1,2,7.93,5,7.93,3.35,0,5.28-2.89,5.28-8.12C616.81,542.25,615,539.36,611.78,539.36Z" transform="translate(-53.52 -34.49)"/><path id="_0-13" data-name="0" class="cls-5" d="M611.65,525.57c-1.87,0-3.1-2.27-3.1-6.28,0-4.19,1.33-6.42,3.12-6.42,2.12,0,3.08,2.49,3.08,6.28S613.75,525.57,611.65,525.57Zm.13-14.3c-3.8,0-5.28,4.19-5.28,8v0c0,5.1,2,7.92,5,7.92,3.35,0,5.28-2.88,5.28-8.12C616.81,514.15,615,511.27,611.78,511.27Z" transform="translate(-53.52 -34.49)"/></g><g id="Ligne-5" data-name="Ligne"><path id="_0-14" data-name="0" class="cls-5" d="M626.14,507.94c-1.87,0-3.1-2.27-3.1-6.28,0-4.19,1.33-6.43,3.12-6.43,2.13,0,3.08,2.49,3.08,6.29S628.25,507.94,626.14,507.94Zm.14-14.31c-3.8,0-5.28,4.19-5.28,8v0c0,5.1,2,7.92,5,7.92,3.36,0,5.29-2.88,5.29-8.12C631.31,496.52,629.48,493.63,626.28,493.63Z" transform="translate(-53.52 -34.49)"/><path id="_1-12" data-name="1" class="cls-5" d="M626.94,465.5l-3.33,1.8.41,1.82,2.69-1.44v13.8h2v-16Z" transform="translate(-53.52 -34.49)"/><path id="_0-15" data-name="0" class="cls-5" d="M626.14,451.73c-1.87,0-3.1-2.28-3.1-6.29,0-4.19,1.33-6.42,3.12-6.42,2.13,0,3.08,2.49,3.08,6.28S628.25,451.73,626.14,451.73Zm.14-14.31c-3.8,0-5.28,4.19-5.28,8v0c0,5.1,2,7.93,5,7.93,3.36,0,5.29-2.89,5.29-8.13C631.31,440.3,629.48,437.42,626.28,437.42Z" transform="translate(-53.52 -34.49)"/><path id="_1-13" data-name="1" class="cls-5" d="M626.94,409.29l-3.33,1.8.41,1.82,2.69-1.44v13.79h2v-16Z" transform="translate(-53.52 -34.49)"/><path id="_0-16" data-name="0" class="cls-5" d="M626.14,564.15c-1.87,0-3.1-2.27-3.1-6.28,0-4.19,1.33-6.42,3.12-6.42,2.13,0,3.08,2.49,3.08,6.28S628.25,564.15,626.14,564.15Zm.14-14.3c-3.8,0-5.28,4.19-5.28,8v0c0,5.1,2,7.93,5,7.93,3.36,0,5.29-2.89,5.29-8.13C631.31,552.73,629.48,549.85,626.28,549.85Z" transform="translate(-53.52 -34.49)"/><path id="_1-14" data-name="1" class="cls-5" d="M626.94,521.72l-3.33,1.8.41,1.82,2.69-1.45v13.8h2v-16Z" transform="translate(-53.52 -34.49)"/></g><g id="Ligne-6" data-name="Ligne"><path id="_0-17" data-name="0" class="cls-5" d="M640.64,473c-1.88,0-3.1-2.27-3.1-6.28,0-4.19,1.32-6.42,3.12-6.42,2.12,0,3.08,2.49,3.08,6.28S642.74,473,640.64,473Zm.13-14.3c-3.8,0-5.28,4.19-5.28,8v0c0,5.1,2,7.92,5,7.92,3.35,0,5.28-2.88,5.28-8.12C645.8,461.56,644,458.68,640.77,458.68Z" transform="translate(-53.52 -34.49)"/><path id="_1-15" data-name="1" class="cls-5" d="M641.44,430.55l-3.34,1.79.41,1.82,2.69-1.44v13.8h2v-16Z" transform="translate(-53.52 -34.49)"/><path id="_0-18" data-name="0" class="cls-5" d="M640.64,416.77c-1.88,0-3.1-2.27-3.1-6.29,0-4.18,1.32-6.42,3.12-6.42,2.12,0,3.08,2.49,3.08,6.29S642.74,416.77,640.64,416.77Zm.13-14.31c-3.8,0-5.28,4.19-5.28,8v0c0,5.1,2,7.93,5,7.93,3.35,0,5.28-2.89,5.28-8.12C645.8,405.35,644,402.46,640.77,402.46Z" transform="translate(-53.52 -34.49)"/><path id="_1-16" data-name="1" class="cls-5" d="M641.44,374.33l-3.34,1.8.41,1.82,2.69-1.44V390.3h2v-16Z" transform="translate(-53.52 -34.49)"/><path id="_0-19" data-name="0" class="cls-5" d="M640.64,529.2c-1.88,0-3.1-2.28-3.1-6.29,0-4.19,1.32-6.42,3.12-6.42,2.12,0,3.08,2.49,3.08,6.28C643.74,526.71,642.74,529.2,640.64,529.2Zm.13-14.31c-3.8,0-5.28,4.19-5.28,8v0c0,5.1,2,7.93,5,7.93,3.35,0,5.28-2.89,5.28-8.12C645.8,517.77,644,514.89,640.77,514.89Z" transform="translate(-53.52 -34.49)"/><path id="_1-17" data-name="1" class="cls-5" d="M641.44,486.76l-3.34,1.8.41,1.82,2.69-1.44v13.79h2v-16Z" transform="translate(-53.52 -34.49)"/></g></g><g id="Grille-2" data-name="Grille"><g id="Ligne-7" data-name="Ligne"><path id="_0-20" data-name="0" class="cls-5" d="M655.13,300.63c-1.87,0-3.1-2.27-3.1-6.28,0-4.19,1.33-6.43,3.12-6.43,2.12,0,3.08,2.49,3.08,6.29S657.23,300.63,655.13,300.63Zm.14-14.31c-3.8,0-5.29,4.19-5.29,8v0c0,5.09,2,7.92,5,7.92,3.35,0,5.28-2.89,5.28-8.12C660.29,289.21,658.46,286.32,655.27,286.32Z" transform="translate(-53.52 -34.49)"/><path id="_1-18" data-name="1" class="cls-5" d="M655.93,258.19,652.6,260l.41,1.82,2.69-1.44v13.79h2v-16Z" transform="translate(-53.52 -34.49)"/><path id="_0-21" data-name="0" class="cls-5" d="M655.13,244.42c-1.87,0-3.1-2.28-3.1-6.29,0-4.19,1.33-6.42,3.12-6.42,2.12,0,3.08,2.49,3.08,6.28S657.23,244.42,655.13,244.42Zm.14-14.31c-3.8,0-5.29,4.19-5.29,8v0c0,5.1,2,7.93,5,7.93,3.35,0,5.28-2.89,5.28-8.13C660.29,233,658.46,230.11,655.27,230.11Z" transform="translate(-53.52 -34.49)"/><path id="_1-19" data-name="1" class="cls-5" d="M655.93,202l-3.33,1.8.41,1.82,2.69-1.45V218h2V202Z" transform="translate(-53.52 -34.49)"/><path id="_0-22" data-name="0" class="cls-5" d="M655.13,356.84c-1.87,0-3.1-2.27-3.1-6.28,0-4.19,1.33-6.42,3.12-6.42,2.12,0,3.08,2.49,3.08,6.28S657.23,356.84,655.13,356.84Zm.14-14.3c-3.8,0-5.29,4.19-5.29,8v0c0,5.1,2,7.92,5,7.92,3.35,0,5.28-2.88,5.28-8.12C660.29,345.42,658.46,342.54,655.27,342.54Z" transform="translate(-53.52 -34.49)"/><path id="_1-20" data-name="1" class="cls-5" d="M655.93,314.41l-3.33,1.8L653,318l2.69-1.45v13.8h2v-16Z" transform="translate(-53.52 -34.49)"/></g><g id="Ligne-8" data-name="Ligne"><path id="_0-23" data-name="0" class="cls-5" d="M669.63,315.81c-1.88,0-3.11-2.27-3.11-6.28,0-4.19,1.33-6.43,3.12-6.43,2.13,0,3.08,2.49,3.08,6.29S671.73,315.81,669.63,315.81Zm.13-14.31c-3.8,0-5.28,4.19-5.28,8v0c0,5.09,2,7.92,5,7.92,3.35,0,5.28-2.88,5.28-8.12C674.79,304.39,673,301.5,669.76,301.5Z" transform="translate(-53.52 -34.49)"/><path id="_1-21" data-name="1" class="cls-5" d="M670.42,273.37l-3.33,1.8.41,1.82,2.69-1.44v13.8h2v-16Z" transform="translate(-53.52 -34.49)"/><path id="_0-24" data-name="0" class="cls-5" d="M669.63,259.6c-1.88,0-3.11-2.28-3.11-6.29,0-4.19,1.33-6.42,3.12-6.42,2.13,0,3.08,2.49,3.08,6.28C672.72,257.11,671.73,259.6,669.63,259.6Zm.13-14.31c-3.8,0-5.28,4.19-5.28,8v0c0,5.1,2,7.93,5,7.93,3.35,0,5.28-2.89,5.28-8.13C674.79,248.17,673,245.29,669.76,245.29Z" transform="translate(-53.52 -34.49)"/><path id="_1-22" data-name="1" class="cls-5" d="M670.42,217.16l-3.33,1.8.41,1.82,2.69-1.44v13.79h2v-16Z" transform="translate(-53.52 -34.49)"/><path id="_0-25" data-name="0" class="cls-5" d="M669.63,372c-1.88,0-3.11-2.27-3.11-6.28,0-4.19,1.33-6.42,3.12-6.42,2.13,0,3.08,2.49,3.08,6.28S671.73,372,669.63,372Zm.13-14.3c-3.8,0-5.28,4.19-5.28,8v0c0,5.1,2,7.92,5,7.92,3.35,0,5.28-2.88,5.28-8.12C674.79,360.6,673,357.72,669.76,357.72Z" transform="translate(-53.52 -34.49)"/><path id="_1-23" data-name="1" class="cls-5" d="M670.42,329.59l-3.33,1.8.41,1.82,2.69-1.45v13.8h2v-16Z" transform="translate(-53.52 -34.49)"/></g><g id="Ligne-9" data-name="Ligne"><path id="_0-26" data-name="0" class="cls-5" d="M597.16,338.53c-1.88,0-3.11-2.27-3.11-6.28,0-4.19,1.33-6.42,3.12-6.42,2.13,0,3.08,2.49,3.08,6.28S599.26,338.53,597.16,338.53Zm.13-14.3c-3.8,0-5.28,4.18-5.28,8v0c0,5.1,2,7.92,5,7.92,3.35,0,5.28-2.88,5.28-8.12C602.32,327.11,600.49,324.23,597.29,324.23Z" transform="translate(-53.52 -34.49)"/><path id="_1-24" data-name="1" class="cls-5" d="M598,296.1l-3.33,1.79.41,1.82,2.69-1.44v13.8h2v-16Z" transform="translate(-53.52 -34.49)"/><path id="_0-27" data-name="0" class="cls-5" d="M597.16,282.32c-1.88,0-3.11-2.27-3.11-6.29,0-4.19,1.33-6.42,3.12-6.42,2.13,0,3.08,2.49,3.08,6.29S599.26,282.32,597.16,282.32Zm.13-14.31c-3.8,0-5.28,4.19-5.28,8v0c0,5.1,2,7.93,5,7.93,3.35,0,5.28-2.89,5.28-8.12C602.32,270.9,600.49,268,597.29,268Z" transform="translate(-53.52 -34.49)"/><path id="_1-25" data-name="1" class="cls-5" d="M598,239.88l-3.33,1.8.41,1.82,2.69-1.44v13.79h2v-16Z" transform="translate(-53.52 -34.49)"/><path id="_0-28" data-name="0" class="cls-5" d="M597.16,394.75c-1.88,0-3.11-2.28-3.11-6.29,0-4.19,1.33-6.42,3.12-6.42,2.13,0,3.08,2.49,3.08,6.28S599.26,394.75,597.16,394.75Zm.13-14.31c-3.8,0-5.28,4.19-5.28,8v0c0,5.1,2,7.93,5,7.93,3.35,0,5.28-2.89,5.28-8.12C602.32,383.32,600.49,380.44,597.29,380.44Z" transform="translate(-53.52 -34.49)"/><path id="_1-26" data-name="1" class="cls-5" d="M598,352.31l-3.33,1.8.41,1.82,2.69-1.44v13.79h2v-16Z" transform="translate(-53.52 -34.49)"/></g><g id="Ligne-10" data-name="Ligne"><path id="_0-29" data-name="0" class="cls-5" d="M611.65,328.18c-1.87,0-3.1-2.27-3.1-6.28,0-4.19,1.33-6.42,3.12-6.42,2.12,0,3.08,2.49,3.08,6.28S613.75,328.18,611.65,328.18Zm.13-14.3c-3.8,0-5.28,4.19-5.28,8v0c0,5.1,2,7.92,5,7.92,3.35,0,5.28-2.88,5.28-8.12C616.81,316.76,615,313.88,611.78,313.88Z" transform="translate(-53.52 -34.49)"/><path id="_1-27" data-name="1" class="cls-5" d="M612.45,285.74l-3.34,1.8.41,1.82,2.69-1.45v13.8h2v-16Z" transform="translate(-53.52 -34.49)"/><path id="_0-30" data-name="0" class="cls-5" d="M611.65,272c-1.87,0-3.1-2.27-3.1-6.28,0-4.19,1.33-6.43,3.12-6.43,2.12,0,3.08,2.49,3.08,6.29S613.75,272,611.65,272Zm.13-14.31c-3.8,0-5.28,4.19-5.28,8v0c0,5.1,2,7.92,5,7.92,3.35,0,5.28-2.88,5.28-8.12C616.81,260.53,615,257.64,611.78,257.64Z" transform="translate(-53.52 -34.49)"/><path id="_1-28" data-name="1" class="cls-5" d="M612.45,229.51l-3.34,1.79.41,1.82,2.69-1.44v13.8h2v-16Z" transform="translate(-53.52 -34.49)"/><path id="_0-31" data-name="0" class="cls-5" d="M611.65,384.37c-1.87,0-3.1-2.27-3.1-6.28,0-4.19,1.33-6.43,3.12-6.43,2.12,0,3.08,2.49,3.08,6.29S613.75,384.37,611.65,384.37Zm.13-14.31c-3.8,0-5.28,4.19-5.28,8v0c0,5.1,2,7.92,5,7.92,3.35,0,5.28-2.88,5.28-8.12C616.81,373,615,370.06,611.78,370.06Z" transform="translate(-53.52 -34.49)"/><path id="_0-32" data-name="0" class="cls-5" d="M611.65,356.28c-1.87,0-3.1-2.28-3.1-6.29,0-4.19,1.33-6.42,3.12-6.42,2.12,0,3.08,2.49,3.08,6.28S613.75,356.28,611.65,356.28Zm.13-14.31c-3.8,0-5.28,4.19-5.28,8v0c0,5.1,2,7.93,5,7.93,3.35,0,5.28-2.89,5.28-8.12C616.81,344.86,615,342,611.78,342Z" transform="translate(-53.52 -34.49)"/></g><g id="Ligne-11" data-name="Ligne"><path id="_0-33" data-name="0" class="cls-5" d="M626.14,338.64c-1.87,0-3.1-2.27-3.1-6.28,0-4.19,1.33-6.42,3.12-6.42,2.13,0,3.08,2.49,3.08,6.28S628.25,338.64,626.14,338.64Zm.14-14.3c-3.8,0-5.28,4.19-5.28,8v0c0,5.1,2,7.92,5,7.92,3.36,0,5.29-2.88,5.29-8.12C631.31,327.22,629.48,324.34,626.28,324.34Z" transform="translate(-53.52 -34.49)"/><path id="_1-29" data-name="1" class="cls-5" d="M626.94,296.21l-3.33,1.8.41,1.82,2.69-1.45v13.8h2v-16Z" transform="translate(-53.52 -34.49)"/><path id="_0-34" data-name="0" class="cls-5" d="M626.14,282.43c-1.87,0-3.1-2.27-3.1-6.28,0-4.19,1.33-6.43,3.12-6.43,2.13,0,3.08,2.49,3.08,6.29S628.25,282.43,626.14,282.43Zm.14-14.31c-3.8,0-5.28,4.19-5.28,8v0c0,5.09,2,7.92,5,7.92,3.36,0,5.29-2.88,5.29-8.12C631.31,271,629.48,268.12,626.28,268.12Z" transform="translate(-53.52 -34.49)"/><path id="_1-30" data-name="1" class="cls-5" d="M626.94,240l-3.33,1.8.41,1.82,2.69-1.44V256h2V240Z" transform="translate(-53.52 -34.49)"/><path id="_0-35" data-name="0" class="cls-5" d="M626.14,394.86c-1.87,0-3.1-2.27-3.1-6.29,0-4.19,1.33-6.42,3.12-6.42,2.13,0,3.08,2.49,3.08,6.29S628.25,394.86,626.14,394.86Zm.14-14.31c-3.8,0-5.28,4.19-5.28,8v0c0,5.1,2,7.93,5,7.93,3.36,0,5.29-2.89,5.29-8.12C631.31,383.44,629.48,380.55,626.28,380.55Z" transform="translate(-53.52 -34.49)"/><path id="_1-31" data-name="1" class="cls-5" d="M626.94,352.42l-3.33,1.8L624,356l2.69-1.44v13.79h2v-16Z" transform="translate(-53.52 -34.49)"/></g><g id="Ligne-12" data-name="Ligne"><path id="_0-36" data-name="0" class="cls-5" d="M640.64,303.69c-1.88,0-3.1-2.28-3.1-6.29,0-4.19,1.32-6.42,3.12-6.42,2.12,0,3.08,2.49,3.08,6.28C643.74,301.2,642.74,303.69,640.64,303.69Zm.13-14.31c-3.8,0-5.28,4.19-5.28,8v0c0,5.1,2,7.93,5,7.93,3.35,0,5.28-2.89,5.28-8.13C645.8,292.26,644,289.38,640.77,289.38Z" transform="translate(-53.52 -34.49)"/><path id="_1-32" data-name="1" class="cls-5" d="M641.44,261.25l-3.34,1.8.41,1.82,2.69-1.44v13.79h2v-16Z" transform="translate(-53.52 -34.49)"/><path id="_0-37" data-name="0" class="cls-5" d="M640.64,247.47c-1.88,0-3.1-2.27-3.1-6.28,0-4.19,1.32-6.42,3.12-6.42,2.12,0,3.08,2.49,3.08,6.28S642.74,247.47,640.64,247.47Zm.13-14.31c-3.8,0-5.28,4.19-5.28,8v0c0,5.1,2,7.92,5,7.92,3.35,0,5.28-2.88,5.28-8.12C645.8,236.05,644,233.16,640.77,233.16Z" transform="translate(-53.52 -34.49)"/><path id="_1-33" data-name="1" class="cls-5" d="M641.44,205l-3.34,1.79.41,1.82,2.69-1.44V221h2V205Z" transform="translate(-53.52 -34.49)"/><path id="_0-38" data-name="0" class="cls-5" d="M640.64,359.9c-1.88,0-3.1-2.27-3.1-6.28,0-4.19,1.32-6.43,3.12-6.43,2.12,0,3.08,2.49,3.08,6.29S642.74,359.9,640.64,359.9Zm.13-14.31c-3.8,0-5.28,4.19-5.28,8v0c0,5.1,2,7.92,5,7.92,3.35,0,5.28-2.88,5.28-8.12C645.8,348.48,644,345.59,640.77,345.59Z" transform="translate(-53.52 -34.49)"/><path id="_1-34" data-name="1" class="cls-5" d="M641.44,317.46l-3.34,1.8.41,1.82,2.69-1.44v13.8h2v-16Z" transform="translate(-53.52 -34.49)"/></g></g></g></g><path id="Contour-4" data-name="Contour" class="cls-6" d="M668.44,479.22c-10.44,20.12-47,48-47.08,48-8.85,7.2-18.5,16.82-29.46,18.39a2.24,2.24,0,0,1-2.5-1.54c-3.45-12,12.65-53.84,12.68-53.91,13-32.29,29.73-78.59,40.74-97.18,12.87-21.74,25.71,16.85,28.1,30C673.93,439.69,677.38,463.22,668.44,479.22Z" transform="translate(-53.52 -34.49)"/></g><g id="Oeil_gauche" data-name="Oeil gauche"><g id="Masque-2" data-name="Masque"><g class="cls-7"><g id="Grille-3" data-name="Grille"><g id="Ligne-13" data-name="Ligne"><path id="_0-39" data-name="0" class="cls-5" d="M421.77,463.5c0-3.79,1-6.28,3.08-6.28,1.79,0,3.12,2.23,3.12,6.42,0,4-1.23,6.29-3.1,6.29C422.77,469.93,421.77,467.44,421.77,463.5Zm-2.06-.08c0,5.24,1.93,8.13,5.28,8.13,3,0,5-2.83,5-7.93v0c0-3.77-1.49-8-5.29-8C421.54,455.62,419.71,458.5,419.71,463.42Z" transform="translate(-53.52 -34.49)"/><path id="_1-35" data-name="1" class="cls-5" d="M424.07,427.49l3.33,1.8-.41,1.82-2.69-1.44v13.79h-2v-16Z" transform="translate(-53.52 -34.49)"/><path id="_0-40" data-name="0" class="cls-5" d="M421.77,407.29c0-3.8,1-6.29,3.08-6.29,1.79,0,3.12,2.24,3.12,6.43,0,4-1.23,6.28-3.1,6.28C422.77,413.71,421.77,411.22,421.77,407.29Zm-2.06-.08c0,5.24,1.93,8.12,5.28,8.12,3,0,5-2.82,5-7.92v0c0-3.78-1.49-8-5.29-8C421.54,399.4,419.71,402.29,419.71,407.21Z" transform="translate(-53.52 -34.49)"/><path id="_1-36" data-name="1" class="cls-5" d="M424.07,371.27l3.33,1.8-.41,1.82-2.69-1.44v13.8h-2v-16Z" transform="translate(-53.52 -34.49)"/><path id="_0-41" data-name="0" class="cls-5" d="M421.77,519.72c0-3.8,1-6.29,3.08-6.29,1.79,0,3.12,2.24,3.12,6.43,0,4-1.23,6.28-3.1,6.28C422.77,526.14,421.77,523.65,421.77,519.72Zm-2.06-.08c0,5.24,1.93,8.12,5.28,8.12,3,0,5-2.83,5-7.92v0c0-3.78-1.49-8-5.29-8C421.54,511.83,419.71,514.72,419.71,519.64Z" transform="translate(-53.52 -34.49)"/><path id="_1-37" data-name="1" class="cls-5" d="M424.07,483.7l3.33,1.8-.41,1.82-2.69-1.44v13.8h-2v-16Z" transform="translate(-53.52 -34.49)"/></g><g id="Ligne-14" data-name="Ligne"><path id="_0-42" data-name="0" class="cls-5" d="M407.28,478.68c0-3.79,1-6.28,3.08-6.28,1.79,0,3.12,2.23,3.12,6.42,0,4-1.23,6.29-3.11,6.29C408.27,485.11,407.28,482.62,407.28,478.68Zm-2.07-.08c0,5.24,1.93,8.13,5.28,8.13,3,0,5-2.83,5-7.93v0c0-3.77-1.48-8-5.28-8C407,470.8,405.21,473.68,405.21,478.6Z" transform="translate(-53.52 -34.49)"/><path id="_1-38" data-name="1" class="cls-5" d="M409.58,442.67l3.33,1.8-.41,1.82-2.69-1.44v13.79h-2v-16Z" transform="translate(-53.52 -34.49)"/><path id="_0-43" data-name="0" class="cls-5" d="M407.28,422.47c0-3.79,1-6.28,3.08-6.28,1.79,0,3.12,2.23,3.12,6.42,0,4-1.23,6.28-3.11,6.28C408.27,428.89,407.28,426.4,407.28,422.47Zm-2.07-.08c0,5.24,1.93,8.12,5.28,8.12,3,0,5-2.82,5-7.92v0c0-3.78-1.48-8-5.28-8C407,414.59,405.21,417.47,405.21,422.39Z" transform="translate(-53.52 -34.49)"/><path id="_1-39" data-name="1" class="cls-5" d="M409.58,386.46l3.33,1.79-.41,1.82-2.69-1.44v13.8h-2v-16Z" transform="translate(-53.52 -34.49)"/><path id="_0-44" data-name="0" class="cls-5" d="M407.28,534.9c0-3.8,1-6.29,3.08-6.29,1.79,0,3.12,2.24,3.12,6.43,0,4-1.23,6.28-3.11,6.28C408.27,541.32,407.28,538.83,407.28,534.9Zm-2.07-.08c0,5.24,1.93,8.12,5.28,8.12,3,0,5-2.82,5-7.92v0c0-3.78-1.48-8-5.28-8C407,527,405.21,529.9,405.21,534.82Z" transform="translate(-53.52 -34.49)"/><path id="_1-40" data-name="1" class="cls-5" d="M409.58,498.88l3.33,1.8-.41,1.82-2.69-1.44v13.8h-2v-16Z" transform="translate(-53.52 -34.49)"/></g><g id="Ligne-15" data-name="Ligne"><path id="_0-45" data-name="0" class="cls-5" d="M479.75,501.41c0-3.8.95-6.29,3.08-6.29,1.79,0,3.12,2.24,3.12,6.42,0,4-1.23,6.29-3.11,6.29C480.74,507.83,479.75,505.34,479.75,501.41Zm-2.07-.08c0,5.23,1.93,8.12,5.28,8.12,3,0,5-2.83,5-7.92v0c0-3.78-1.48-8-5.28-8C479.51,493.52,477.68,496.41,477.68,501.33Z" transform="translate(-53.52 -34.49)"/><path id="_1-41" data-name="1" class="cls-5" d="M482.05,465.39l3.33,1.8L485,469l-2.69-1.44v13.79h-2v-16Z" transform="translate(-53.52 -34.49)"/><path id="_0-46" data-name="0" class="cls-5" d="M479.75,445.19c0-3.79.95-6.28,3.08-6.28,1.79,0,3.12,2.23,3.12,6.42,0,4-1.23,6.28-3.11,6.28C480.74,451.61,479.75,449.12,479.75,445.19Zm-2.07-.08c0,5.24,1.93,8.13,5.28,8.13,3,0,5-2.83,5-7.93v0c0-3.77-1.48-8-5.28-8C479.51,437.31,477.68,440.19,477.68,445.11Z" transform="translate(-53.52 -34.49)"/><path id="_1-42" data-name="1" class="cls-5" d="M482.05,409.18l3.33,1.8L485,412.8l-2.69-1.45v13.8h-2v-16Z" transform="translate(-53.52 -34.49)"/><path id="_0-47" data-name="0" class="cls-5" d="M479.75,557.62c0-3.79.95-6.28,3.08-6.28,1.79,0,3.12,2.23,3.12,6.42,0,4-1.23,6.28-3.11,6.28C480.74,564,479.75,561.55,479.75,557.62Zm-2.07-.08c0,5.24,1.93,8.12,5.28,8.12,3,0,5-2.82,5-7.92v0c0-3.77-1.48-8-5.28-8C479.51,549.74,477.68,552.62,477.68,557.54Z" transform="translate(-53.52 -34.49)"/><path id="_1-43" data-name="1" class="cls-5" d="M482.05,521.61l3.33,1.79-.41,1.83-2.69-1.45v13.8h-2v-16Z" transform="translate(-53.52 -34.49)"/></g><g id="Ligne-16" data-name="Ligne"><path id="_0-48" data-name="0" class="cls-5" d="M465.25,491.06c0-3.8,1-6.29,3.08-6.29,1.79,0,3.12,2.24,3.12,6.43,0,4-1.23,6.28-3.1,6.28C466.25,497.48,465.25,495,465.25,491.06Zm-2.06-.08c0,5.24,1.93,8.12,5.28,8.12,3,0,5-2.83,5-7.92v0c0-3.78-1.48-8-5.28-8C465,483.17,463.19,486.06,463.19,491Z" transform="translate(-53.52 -34.49)"/><path id="_1-44" data-name="1" class="cls-5" d="M467.55,455l3.34,1.8-.41,1.82-2.69-1.44V471h-2V455Z" transform="translate(-53.52 -34.49)"/><path id="_0-49" data-name="0" class="cls-5" d="M465.25,434.83c0-3.8,1-6.29,3.08-6.29,1.79,0,3.12,2.23,3.12,6.42,0,4-1.23,6.29-3.1,6.29C466.25,441.25,465.25,438.76,465.25,434.83Zm-2.06-.08c0,5.23,1.93,8.12,5.28,8.12,3,0,5-2.83,5-7.93v0c0-3.77-1.48-8-5.28-8C465,426.94,463.19,429.83,463.19,434.75Z" transform="translate(-53.52 -34.49)"/><path id="_1-45" data-name="1" class="cls-5" d="M467.55,398.8l3.34,1.8-.41,1.82L467.79,401v13.79h-2v-16Z" transform="translate(-53.52 -34.49)"/><path id="_0-50" data-name="0" class="cls-5" d="M465.25,547.25c0-3.8,1-6.29,3.08-6.29,1.79,0,3.12,2.23,3.12,6.42,0,4-1.23,6.29-3.1,6.29C466.25,553.67,465.25,551.18,465.25,547.25Zm-2.06-.08c0,5.23,1.93,8.12,5.28,8.12,3,0,5-2.83,5-7.93v0c0-3.77-1.48-8-5.28-8C465,539.36,463.19,542.25,463.19,547.17Z" transform="translate(-53.52 -34.49)"/><path id="_0-51" data-name="0" class="cls-5" d="M465.25,519.15c0-3.79,1-6.28,3.08-6.28,1.79,0,3.12,2.23,3.12,6.42,0,4-1.23,6.28-3.1,6.28C466.25,525.57,465.25,523.08,465.25,519.15Zm-2.06-.08c0,5.24,1.93,8.12,5.28,8.12,3,0,5-2.82,5-7.92v0c0-3.77-1.48-8-5.28-8C465,511.27,463.19,514.15,463.19,519.07Z" transform="translate(-53.52 -34.49)"/></g><g id="Ligne-17" data-name="Ligne"><path id="_0-52" data-name="0" class="cls-5" d="M450.76,501.52c0-3.8.95-6.29,3.08-6.29,1.79,0,3.12,2.24,3.12,6.43,0,4-1.23,6.28-3.1,6.28C451.75,507.94,450.76,505.45,450.76,501.52Zm-2.07-.08c0,5.24,1.93,8.12,5.29,8.12,3,0,5-2.82,5-7.92v0c0-3.78-1.48-8-5.28-8C450.52,493.63,448.69,496.52,448.69,501.44Z" transform="translate(-53.52 -34.49)"/><path id="_1-46" data-name="1" class="cls-5" d="M453.06,465.5l3.33,1.8-.41,1.82-2.69-1.44v13.8h-2v-16Z" transform="translate(-53.52 -34.49)"/><path id="_0-53" data-name="0" class="cls-5" d="M450.76,445.3c0-3.79.95-6.28,3.08-6.28,1.79,0,3.12,2.23,3.12,6.42,0,4-1.23,6.29-3.1,6.29C451.75,451.73,450.76,449.24,450.76,445.3Zm-2.07-.08c0,5.24,1.93,8.13,5.29,8.13,3,0,5-2.83,5-7.93v0c0-3.77-1.48-8-5.28-8C450.52,437.42,448.69,440.3,448.69,445.22Z" transform="translate(-53.52 -34.49)"/><path id="_1-47" data-name="1" class="cls-5" d="M453.06,409.29l3.33,1.8-.41,1.82-2.69-1.44v13.79h-2v-16Z" transform="translate(-53.52 -34.49)"/><path id="_0-54" data-name="0" class="cls-5" d="M450.76,557.73c0-3.79.95-6.28,3.08-6.28,1.79,0,3.12,2.23,3.12,6.42,0,4-1.23,6.28-3.1,6.28C451.75,564.15,450.76,561.66,450.76,557.73Zm-2.07-.08c0,5.24,1.93,8.13,5.29,8.13,3,0,5-2.83,5-7.93v0c0-3.77-1.48-8-5.28-8C450.52,549.85,448.69,552.73,448.69,557.65Z" transform="translate(-53.52 -34.49)"/><path id="_1-48" data-name="1" class="cls-5" d="M453.06,521.72l3.33,1.8-.41,1.82-2.69-1.45v13.8h-2v-16Z" transform="translate(-53.52 -34.49)"/></g><g id="Ligne-18" data-name="Ligne"><path id="_0-55" data-name="0" class="cls-5" d="M436.26,466.56c0-3.79,1-6.28,3.08-6.28,1.8,0,3.12,2.23,3.12,6.42,0,4-1.22,6.28-3.1,6.28C437.26,473,436.26,470.49,436.26,466.56Zm-2.06-.08c0,5.24,1.93,8.12,5.28,8.12,3,0,5-2.82,5-7.92v0c0-3.77-1.48-8-5.28-8C436,458.68,434.2,461.56,434.2,466.48Z" transform="translate(-53.52 -34.49)"/><path id="_1-49" data-name="1" class="cls-5" d="M438.56,430.55l3.34,1.79-.41,1.82-2.69-1.44v13.8h-2v-16Z" transform="translate(-53.52 -34.49)"/><path id="_0-56" data-name="0" class="cls-5" d="M436.26,410.35c0-3.8,1-6.29,3.08-6.29,1.8,0,3.12,2.24,3.12,6.42,0,4-1.22,6.29-3.1,6.29C437.26,416.77,436.26,414.28,436.26,410.35Zm-2.06-.08c0,5.23,1.93,8.12,5.28,8.12,3,0,5-2.83,5-7.93v0c0-3.78-1.48-8-5.28-8C436,402.46,434.2,405.35,434.2,410.27Z" transform="translate(-53.52 -34.49)"/><path id="_1-50" data-name="1" class="cls-5" d="M438.56,374.33l3.34,1.8-.41,1.82-2.69-1.44V390.3h-2v-16Z" transform="translate(-53.52 -34.49)"/><path id="_0-57" data-name="0" class="cls-5" d="M436.26,522.77c0-3.79,1-6.28,3.08-6.28,1.8,0,3.12,2.23,3.12,6.42,0,4-1.22,6.29-3.1,6.29C437.26,529.2,436.26,526.71,436.26,522.77Zm-2.06-.07c0,5.23,1.93,8.12,5.28,8.12,3,0,5-2.83,5-7.93v0c0-3.77-1.48-8-5.28-8C436,514.89,434.2,517.77,434.2,522.7Z" transform="translate(-53.52 -34.49)"/><path id="_1-51" data-name="1" class="cls-5" d="M438.56,486.76l3.34,1.8-.41,1.82-2.69-1.44v13.79h-2v-16Z" transform="translate(-53.52 -34.49)"/></g></g><g id="Grille-4" data-name="Grille"><g id="Ligne-19" data-name="Ligne"><path id="_0-58" data-name="0" class="cls-5" d="M421.77,294.21c0-3.8,1-6.29,3.08-6.29,1.79,0,3.12,2.24,3.12,6.43,0,4-1.23,6.28-3.1,6.28C422.77,300.63,421.77,298.14,421.77,294.21Zm-2.06-.08c0,5.23,1.93,8.12,5.28,8.12,3,0,5-2.83,5-7.92v0c0-3.78-1.49-8-5.29-8C421.54,286.32,419.71,289.21,419.71,294.13Z" transform="translate(-53.52 -34.49)"/><path id="_1-52" data-name="1" class="cls-5" d="M424.07,258.19l3.33,1.8-.41,1.82-2.69-1.44v13.79h-2v-16Z" transform="translate(-53.52 -34.49)"/><path id="_0-59" data-name="0" class="cls-5" d="M421.77,238c0-3.79,1-6.28,3.08-6.28,1.79,0,3.12,2.23,3.12,6.42,0,4-1.23,6.29-3.1,6.29C422.77,244.42,421.77,241.93,421.77,238Zm-2.06-.08c0,5.24,1.93,8.13,5.28,8.13,3,0,5-2.83,5-7.93v0c0-3.77-1.49-8-5.29-8C421.54,230.11,419.71,233,419.71,237.91Z" transform="translate(-53.52 -34.49)"/><path id="_1-53" data-name="1" class="cls-5" d="M424.07,202l3.33,1.8L427,205.6l-2.69-1.45V218h-2V202Z" transform="translate(-53.52 -34.49)"/><path id="_0-60" data-name="0" class="cls-5" d="M421.77,350.42c0-3.79,1-6.28,3.08-6.28,1.79,0,3.12,2.23,3.12,6.42,0,4-1.23,6.28-3.1,6.28C422.77,356.84,421.77,354.35,421.77,350.42Zm-2.06-.08c0,5.24,1.93,8.12,5.28,8.12,3,0,5-2.82,5-7.92v0c0-3.77-1.49-8-5.29-8C421.54,342.54,419.71,345.42,419.71,350.34Z" transform="translate(-53.52 -34.49)"/><path id="_1-54" data-name="1" class="cls-5" d="M424.07,314.41l3.33,1.8L427,318l-2.69-1.45v13.8h-2v-16Z" transform="translate(-53.52 -34.49)"/></g><g id="Ligne-20" data-name="Ligne"><path id="_0-61" data-name="0" class="cls-5" d="M407.28,309.39c0-3.8,1-6.29,3.08-6.29,1.79,0,3.12,2.24,3.12,6.43,0,4-1.23,6.28-3.11,6.28C408.27,315.81,407.28,313.32,407.28,309.39Zm-2.07-.08c0,5.24,1.93,8.12,5.28,8.12,3,0,5-2.83,5-7.92v0c0-3.78-1.48-8-5.28-8C407,301.5,405.21,304.39,405.21,309.31Z" transform="translate(-53.52 -34.49)"/><path id="_1-55" data-name="1" class="cls-5" d="M409.58,273.37l3.33,1.8L412.5,277l-2.69-1.44v13.8h-2v-16Z" transform="translate(-53.52 -34.49)"/><path id="_0-62" data-name="0" class="cls-5" d="M407.28,253.17c0-3.79,1-6.28,3.08-6.28,1.79,0,3.12,2.23,3.12,6.42,0,4-1.23,6.29-3.11,6.29C408.27,259.6,407.28,257.11,407.28,253.17Zm-2.07-.08c0,5.24,1.93,8.13,5.28,8.13,3,0,5-2.83,5-7.93v0c0-3.77-1.48-8-5.28-8C407,245.29,405.21,248.17,405.21,253.09Z" transform="translate(-53.52 -34.49)"/><path id="_1-56" data-name="1" class="cls-5" d="M409.58,217.16l3.33,1.8-.41,1.82-2.69-1.44v13.79h-2v-16Z" transform="translate(-53.52 -34.49)"/><path id="_0-63" data-name="0" class="cls-5" d="M407.28,365.6c0-3.79,1-6.28,3.08-6.28,1.79,0,3.12,2.23,3.12,6.42,0,4-1.23,6.28-3.11,6.28C408.27,372,407.28,369.53,407.28,365.6Zm-2.07-.08c0,5.24,1.93,8.12,5.28,8.12,3,0,5-2.82,5-7.92v0c0-3.77-1.48-8-5.28-8C407,357.72,405.21,360.6,405.21,365.52Z" transform="translate(-53.52 -34.49)"/><path id="_1-57" data-name="1" class="cls-5" d="M409.58,329.59l3.33,1.8-.41,1.82-2.69-1.45v13.8h-2v-16Z" transform="translate(-53.52 -34.49)"/></g><g id="Ligne-21" data-name="Ligne"><path id="_0-64" data-name="0" class="cls-5" d="M479.75,332.11c0-3.79.95-6.28,3.08-6.28,1.79,0,3.12,2.23,3.12,6.42,0,4-1.23,6.28-3.11,6.28C480.74,338.53,479.75,336,479.75,332.11Zm-2.07-.08c0,5.24,1.93,8.12,5.28,8.12,3,0,5-2.82,5-7.92v0c0-3.78-1.48-8-5.28-8C479.51,324.23,477.68,327.11,477.68,332Z" transform="translate(-53.52 -34.49)"/><path id="_1-58" data-name="1" class="cls-5" d="M482.05,296.1l3.33,1.79-.41,1.82-2.69-1.44v13.8h-2v-16Z" transform="translate(-53.52 -34.49)"/><path id="_0-65" data-name="0" class="cls-5" d="M479.75,275.9c0-3.8.95-6.29,3.08-6.29,1.79,0,3.12,2.23,3.12,6.42,0,4-1.23,6.29-3.11,6.29C480.74,282.32,479.75,279.83,479.75,275.9Zm-2.07-.08c0,5.23,1.93,8.12,5.28,8.12,3,0,5-2.83,5-7.93v0c0-3.77-1.48-8-5.28-8C479.51,268,477.68,270.9,477.68,275.82Z" transform="translate(-53.52 -34.49)"/><path id="_1-59" data-name="1" class="cls-5" d="M482.05,239.88l3.33,1.8L485,243.5l-2.69-1.44v13.79h-2v-16Z" transform="translate(-53.52 -34.49)"/><path id="_0-66" data-name="0" class="cls-5" d="M479.75,388.32c0-3.79.95-6.28,3.08-6.28,1.79,0,3.12,2.23,3.12,6.42,0,4-1.23,6.29-3.11,6.29C480.74,394.75,479.75,392.26,479.75,388.32Zm-2.07-.07c0,5.23,1.93,8.12,5.28,8.12,3,0,5-2.83,5-7.93v0c0-3.77-1.48-8-5.28-8C479.51,380.44,477.68,383.32,477.68,388.25Z" transform="translate(-53.52 -34.49)"/><path id="_1-60" data-name="1" class="cls-5" d="M482.05,352.31l3.33,1.8-.41,1.82-2.69-1.44v13.79h-2v-16Z" transform="translate(-53.52 -34.49)"/></g><g id="Ligne-22" data-name="Ligne"><path id="_0-67" data-name="0" class="cls-5" d="M465.25,321.76c0-3.79,1-6.28,3.08-6.28,1.79,0,3.12,2.23,3.12,6.42,0,4-1.23,6.28-3.1,6.28C466.25,328.18,465.25,325.69,465.25,321.76Zm-2.06-.08c0,5.24,1.93,8.12,5.28,8.12,3,0,5-2.82,5-7.92v0c0-3.77-1.48-8-5.28-8C465,313.88,463.19,316.76,463.19,321.68Z" transform="translate(-53.52 -34.49)"/><path id="_1-61" data-name="1" class="cls-5" d="M467.55,285.74l3.34,1.8-.41,1.82-2.69-1.45v13.8h-2v-16Z" transform="translate(-53.52 -34.49)"/><path id="_0-68" data-name="0" class="cls-5" d="M465.25,265.53c0-3.8,1-6.29,3.08-6.29,1.79,0,3.12,2.24,3.12,6.43,0,4-1.23,6.28-3.1,6.28C466.25,272,465.25,269.46,465.25,265.53Zm-2.06-.08c0,5.24,1.93,8.12,5.28,8.12,3,0,5-2.82,5-7.92v0c0-3.78-1.48-8-5.28-8C465,257.64,463.19,260.53,463.19,265.45Z" transform="translate(-53.52 -34.49)"/><path id="_1-62" data-name="1" class="cls-5" d="M467.55,229.51l3.34,1.79-.41,1.82-2.69-1.44v13.8h-2v-16Z" transform="translate(-53.52 -34.49)"/><path id="_0-69" data-name="0" class="cls-5" d="M465.25,378c0-3.8,1-6.29,3.08-6.29,1.79,0,3.12,2.24,3.12,6.43,0,4-1.23,6.28-3.1,6.28C466.25,384.37,465.25,381.88,465.25,378Zm-2.06-.08c0,5.24,1.93,8.12,5.28,8.12,3,0,5-2.82,5-7.92v0c0-3.78-1.48-8-5.28-8C465,370.06,463.19,373,463.19,377.87Z" transform="translate(-53.52 -34.49)"/><path id="_0-70" data-name="0" class="cls-5" d="M465.25,349.85c0-3.79,1-6.28,3.08-6.28,1.79,0,3.12,2.23,3.12,6.42,0,4-1.23,6.29-3.1,6.29C466.25,356.28,465.25,353.79,465.25,349.85Zm-2.06-.07c0,5.23,1.93,8.12,5.28,8.12,3,0,5-2.83,5-7.93v0c0-3.77-1.48-8-5.28-8C465,342,463.19,344.86,463.19,349.78Z" transform="translate(-53.52 -34.49)"/></g><g id="Ligne-23" data-name="Ligne"><path id="_0-71" data-name="0" class="cls-5" d="M450.76,332.22c0-3.79.95-6.28,3.08-6.28,1.79,0,3.12,2.23,3.12,6.42,0,4-1.23,6.28-3.1,6.28C451.75,338.64,450.76,336.15,450.76,332.22Zm-2.07-.08c0,5.24,1.93,8.12,5.29,8.12,3,0,5-2.82,5-7.92v0c0-3.77-1.48-8-5.28-8C450.52,324.34,448.69,327.22,448.69,332.14Z" transform="translate(-53.52 -34.49)"/><path id="_1-63" data-name="1" class="cls-5" d="M453.06,296.21l3.33,1.8-.41,1.82-2.69-1.45v13.8h-2v-16Z" transform="translate(-53.52 -34.49)"/><path id="_0-72" data-name="0" class="cls-5" d="M450.76,276c0-3.8.95-6.29,3.08-6.29,1.79,0,3.12,2.24,3.12,6.43,0,4-1.23,6.28-3.1,6.28C451.75,282.43,450.76,279.94,450.76,276Zm-2.07-.08c0,5.24,1.93,8.12,5.29,8.12,3,0,5-2.83,5-7.92v0c0-3.78-1.48-8-5.28-8C450.52,268.12,448.69,271,448.69,275.93Z" transform="translate(-53.52 -34.49)"/><path id="_1-64" data-name="1" class="cls-5" d="M453.06,240l3.33,1.8-.41,1.82-2.69-1.44V256h-2V240Z" transform="translate(-53.52 -34.49)"/><path id="_0-73" data-name="0" class="cls-5" d="M450.76,388.44c0-3.8.95-6.29,3.08-6.29,1.79,0,3.12,2.23,3.12,6.42,0,4-1.23,6.29-3.1,6.29C451.75,394.86,450.76,392.37,450.76,388.44Zm-2.07-.08c0,5.23,1.93,8.12,5.29,8.12,3,0,5-2.83,5-7.93v0c0-3.77-1.48-8-5.28-8C450.52,380.55,448.69,383.44,448.69,388.36Z" transform="translate(-53.52 -34.49)"/><path id="_1-65" data-name="1" class="cls-5" d="M453.06,352.42l3.33,1.8L456,356l-2.69-1.44v13.79h-2v-16Z" transform="translate(-53.52 -34.49)"/></g><g id="Ligne-24" data-name="Ligne"><path id="_0-74" data-name="0" class="cls-5" d="M436.26,297.26c0-3.79,1-6.28,3.08-6.28,1.8,0,3.12,2.23,3.12,6.42,0,4-1.22,6.29-3.1,6.29C437.26,303.69,436.26,301.2,436.26,297.26Zm-2.06-.08c0,5.24,1.93,8.13,5.28,8.13,3,0,5-2.83,5-7.93v0c0-3.77-1.48-8-5.28-8C436,289.38,434.2,292.26,434.2,297.18Z" transform="translate(-53.52 -34.49)"/><path id="_1-66" data-name="1" class="cls-5" d="M438.56,261.25l3.34,1.8-.41,1.82-2.69-1.44v13.79h-2v-16Z" transform="translate(-53.52 -34.49)"/><path id="_0-75" data-name="0" class="cls-5" d="M436.26,241.05c0-3.79,1-6.28,3.08-6.28,1.8,0,3.12,2.23,3.12,6.42,0,4-1.22,6.28-3.1,6.28C437.26,247.47,436.26,245,436.26,241.05ZM434.2,241c0,5.24,1.93,8.12,5.28,8.12,3,0,5-2.82,5-7.92v0c0-3.78-1.48-8-5.28-8C436,233.16,434.2,236.05,434.2,241Z" transform="translate(-53.52 -34.49)"/><path id="_1-67" data-name="1" class="cls-5" d="M438.56,205l3.34,1.79-.41,1.82-2.69-1.44V221h-2V205Z" transform="translate(-53.52 -34.49)"/><path id="_0-76" data-name="0" class="cls-5" d="M436.26,353.48c0-3.8,1-6.29,3.08-6.29,1.8,0,3.12,2.24,3.12,6.43,0,4-1.22,6.28-3.1,6.28C437.26,359.9,436.26,357.41,436.26,353.48Zm-2.06-.08c0,5.24,1.93,8.12,5.28,8.12,3,0,5-2.82,5-7.92v0c0-3.78-1.48-8-5.28-8C436,345.59,434.2,348.48,434.2,353.4Z" transform="translate(-53.52 -34.49)"/><path id="_1-68" data-name="1" class="cls-5" d="M438.56,317.46l3.34,1.8-.41,1.82-2.69-1.44v13.8h-2v-16Z" transform="translate(-53.52 -34.49)"/></g></g></g></g><path id="Contour-5" data-name="Contour" class="cls-6" d="M411.56,479.22c10.44,20.12,47,48,47.08,48,8.85,7.2,18.5,16.82,29.46,18.39a2.24,2.24,0,0,0,2.5-1.54c3.45-12-12.65-53.84-12.68-53.91-13-32.29-29.73-78.59-40.74-97.18-12.87-21.74-25.71,16.85-28.1,30C406.07,439.69,402.62,463.22,411.56,479.22Z" transform="translate(-53.52 -34.49)"/></g></g></g></svg>