<?xml version="1.0" encoding="utf-8"?>
<!-- Generator: Adobe Illustrator 26.0.1, SVG Export Plug-In . SVG Version: 6.00 Build 0)  -->
<svg version="1.1"
	 id="Calque_1" sodipodi:docname="Logo Rond Eirbware.svg" xmlns:cc="http://creativecommons.org/ns#" xmlns:dc="http://purl.org/dc/elements/1.1/" xmlns:inkscape="http://www.inkscape.org/namespaces/inkscape" xmlns:rdf="http://www.w3.org/1999/02/22-rdf-syntax-ns#" xmlns:sodipodi="http://sodipodi.sourceforge.net/DTD/sodipodi-0.dtd" xmlns:svg="http://www.w3.org/2000/svg"
	 xmlns="http://www.w3.org/2000/svg" xmlns:xlink="http://www.w3.org/1999/xlink" x="0px" y="0px" viewBox="0 0 512 512"
	 style="enable-background:new 0 0 512 512;" xml:space="preserve">
<style type="text/css">
	.st0{fill:#222222;}
	.st1{fill:#666666;}
	.st2{fill:#FFFFFF;}
	.st3{fill:#FFE526;}
	.st4{fill:#FEE424;}
	.st5{fill:#FFE41E;}
	.st6{fill:#FCE11E;}
	.st7{fill:#FEE31E;}
	.st8{fill:#FADE15;}
	.st9{fill:#141413;}
	.st10{fill:#FEFEFE;}
	.st11{fill:#FDE322;}
	.st12{fill:#070702;}
</style>
<sodipodi:namedview  bordercolor="#666666" borderopacity="1.0" id="namedview109" inkscape:current-layer="g210" inkscape:cx="348.53405" inkscape:cy="280.4363" inkscape:pagecheckerboard="0" inkscape:pageopacity="0.0" inkscape:pageshadow="2" inkscape:window-height="1381" inkscape:window-maximized="1" inkscape:window-width="2560" inkscape:window-x="1920" inkscape:window-y="30" inkscape:zoom="1.7401456" pagecolor="#ffffff" showgrid="false">
	</sodipodi:namedview>
<g id="layer1" inkscape:groupmode="layer" inkscape:label="Fond">
	<circle id="path127-3" class="st0" cx="256" cy="256" r="234.7"/>
</g>
<g id="layer2" inkscape:groupmode="layer" inkscape:label="Logo">
	<g id="g210" transform="matrix(0.73409969,0,0,0.73409969,68.070518,50.070479)">
		<g id="g208" transform="translate(0,-2.2141364)">
			<path id="path6" class="st1" d="M209.9,70.2c-0.3,5-0.7,9.2-1.2,13.4c-1,7.8-2,15.6-3.2,23.3c-1.3,8.5-2.6,16.9-4,25.4
				c-1.5,9.1-3.1,18.2-4.9,27.2c-0.7,3.5-1.5,7-2.4,10.5c-0.7,2.7-2.1,4.4-4.6,5.6c-5.5,2.7-11.2,5.2-16.9,7.5
				c-22.6,9.3-45.4,18.1-68.5,25.9c-2.7,0.9-5.5,1.7-8.3,2.5c-2.4,0.6-4.4,0.3-6.5-1c-4.1-2.7-8-5.5-11.9-8.5
				c-20.1-15.3-39.7-31.2-58.7-47.8c-2.6-2.2-5-4.6-7.5-7c-1.9-1.9-2.7-4-2.5-6.6c0.4-5.9,1-11.7,1.8-17.5c1-7.2,2-14.4,3.1-21.5
				c1.2-7.9,2.4-15.8,3.7-23.6c1.5-9,3.1-18.1,5-27c0.6-3,1.4-6.1,2.1-9.1c0.6-2.6,2-4.3,4.4-5.5c4.5-2.2,9-4.3,13.6-6.2
				C64.5,21,86.6,12.4,109.1,4.6c4.5-1.6,9-3,13.5-4.3c2.5-0.7,4.7-0.3,6.8,1.1c3.9,2.5,7.6,5.2,11.3,8
				c20.5,15.6,40.5,31.8,59.8,48.7c2.4,2.1,4.7,4.3,6.9,6.5C209.2,66.5,210.2,68.4,209.9,70.2L209.9,70.2z M121.5,5.8
				c0.2,0.7,0.4,1.2,0.7,1.8c3,7.3,6,14.6,9.1,21.9c1.9,4.7,3.9,9.3,5.7,14c2.3,5.7,0.1,11.7-5.2,14.5c-0.7,0.4-1.4,0.6-2.1,0.9
				c-13.8,5.5-27.6,11-41.4,16.5C81.5,78,74.7,80.7,68,83.4c-2.4,1-4.9,1.3-7.4,0.7c-4.2-1-6.9-3.6-8.6-7.5
				c-3.6-8.8-7.3-17.6-10.9-26.4c-1.5-3.7-3.1-7.4-4.6-11.1c-0.3-0.7-0.6-0.9-1.3-0.5c-1.3,0.7-2.7,1.4-4,2
				c-1.1,0.5-1.7,1.2-1.9,2.4c-0.4,1.9-1,3.8-1.4,5.8c-2.1,9.4-3.7,18.8-5.3,28.3c-1.4,8.2-2.7,16.4-4,24.7
				c-1.3,8.6-2.5,17.2-3.6,25.8c-0.6,4.6-1.2,9.2-1.3,13.8c0,1,0.3,1.8,1,2.5c2.5,2.5,5.1,4.9,7.8,7.2
				c18.4,16.1,37.4,31.4,56.8,46.2c4.1,3.2,8.3,6.3,12.7,9.1c0.9,0.6,1.8,0.8,2.9,0.5c3.1-0.8,6.2-1.8,9.3-2.8
				c23.6-8.1,46.9-17,70-26.7c4.3-1.8,8.6-3.7,12.8-5.7c1.6-0.8,2.5-1.8,2.9-3.6c0.3-1.6,0.8-3.1,1.1-4.7c2.1-9.3,3.7-18.7,5.3-28.1
				c1.6-9.4,3.1-18.8,4.5-28.2c1-7.3,2.1-14.6,3.1-21.9c0.6-4.6,1.1-9.2,1.4-13.8c0.1-1.6-0.3-2.8-1.5-3.8c-1.9-1.7-3.7-3.6-5.7-5.3
				c-15.4-13.6-31.4-26.6-47.5-39.3c-7.3-5.7-14.5-11.4-22.2-16.6c-3-2-2.1-2-6.1-0.8C121.9,5.6,121.8,5.6,121.5,5.8L121.5,5.8z
				 M109.1,48c3.8-1.5,7.7-3.1,11.6-4.6c0.8-0.3,0.5-0.8,0.3-1.3c-3.2-8.1-6.4-16.1-9.6-24.2c-0.5-1.2-0.5-1.2-1.8-0.7
				c-2.9,1.1-5.8,2.3-8.7,3.4c-0.6,0.2-1.1,0.5-1.7,0.7c-0.6,0.2-0.7,0.6-0.5,1.1c0.1,0.3,0.2,0.6,0.3,0.8c3,7.7,6.1,15.5,9.2,23.2
				C108.4,46.9,108.5,47.5,109.1,48z"/>
			<path id="path8" class="st1" d="M274,244.9c2.7,2.3,5.4,4.5,7.2,7.7c0.7,1.3,1.8,2.4,2.7,3.6c3.7,5.3,6.7,11,8,17.5
				c2,9.7-0.4,18.2-6.7,25.6c-2.7,3.2-5.8,5.9-9.2,8.2c-0.6,0.4-1.3,0.7-1.5,1.5c-0.5,0-0.9,0.1-1.3,0.4c-1.3,0.9-2.6,1.7-4,2.5
				c-0.5,0-0.8,0.2-1.2,0.4c-5.5,2.9-11.3,5.2-17.2,7.2c-6.4,2.2-12.9,3.9-19.6,5.4c-1.4,0.3-2.4,0.8-3.1,2.3
				c-1.1,2.4-2.8,4.5-4.7,6.3c-1,1-2,1.9-3,2.9c-3.7,3.4-5.6,7.7-6.4,12.5c-0.2,1.2-0.4,1.3,1,1.8c6.7,2.7,13.5,5,20.5,6.5
				c4.8,1,9.6,1.5,14.5,1.2c3.4-0.2,6.6-1,9.6-2.6c0.6-0.3,1.3-0.7,1.6-1.4c2-0.6,3.1-2.4,4.2-4c2.8-4,3.8-8.7,4-13.5
				c0.1-2.4,0.1-4.7-0.3-7.1c-0.3-1.8-0.5-3.6-0.8-5.5c-0.1-0.7-0.4-0.9-1-0.9c0.1-1.2,0.2-2.4,0.6-3.6c1.6-0.4,3.1-0.7,4.6,0.4
				c-0.1,1.4,0.4,2.7,0.6,4.1c1.2,7.3,1.6,14.5-0.5,21.7c-2.3,7.9-7.4,13.4-15.1,16.3c-0.5-0.5-1-0.3-1.5-0.1
				c-2.8,0.9-5.8,0.8-8.6,1.2c-0.6,0.1-1.2,0.1-1.8-0.2c-0.6-0.3-1.3-0.2-1.9-0.1c-4.2-0.3-8.4-1.1-12.5-2.1
				c-1.2-0.3-1.2-0.3-1.4,0.9c-0.1,0.6-0.2,1.2-0.3,1.8c-0.3,2.1-1.2,4-1.5,6c-0.2,0.4-0.5,0.7-0.6,1.1c-0.4,1.2-1.2,2-2.5,2.3
				c-0.5,0.1-1,0.6-1.5,0.3c-0.7-0.4,0.2-1.1,0-1.6c0.8-0.3,1.1-1.1,1.4-1.8c1.3-2.9,2.2-6,2.5-9.5c-0.5,0.4-0.9,0.6-1.2,0.9
				c-1.7,1.5-3.4,3.1-5.2,4.4c-1.7,1.2-2.7,2.8-2.8,4.9c-0.1,1.1-1,1.9-0.7,3c-0.1,0.5-0.1,0.9-0.2,1.4c-0.3,1.1-1.3,1.9-2.4,1.9
				c-0.3,0-0.6-0.1-0.6-0.5c-0.1-0.3-0.1-0.7-0.1-1.1c0.6-0.5,0.6-1.2,0.7-1.8c0.4-1.9,0.8-3.9,1.2-5.8c0.2-1.1,0.7-2,1.6-2.7
				c1.6-1.3,3.1-2.6,4.7-3.9c0.8-0.7,1.6-1.2,2.3-2.1c-3.8-1.3-7.4-2.6-11.1-4c-0.3,2.4-0.3,4.6-0.3,6.8c0,2.7-1.1,4.8-3.3,6.4
				c-1.1,0.8-2.2,1.5-3.3,2.2c-1.8,1.3-3,3.1-3.3,5.3c-0.2,1.3-0.2,2.5-0.3,3.8c-0.6,1.1-0.9,2.6-2.4,3c-1.2,0.3-2.2,1.2-3.6,1.1
				c0.1-0.9,1.1-1.2,1-2c1.6-0.8,2.3-2.2,2.4-3.9c0-0.2,0-0.5,0-0.7c0.1-3.9,1.7-6.9,5-9.1c0.9-0.6,1.9-1.3,2.8-1.9
				c1.6-1.1,2.3-2.5,2.3-4.4c0-2.1,0-4.2,0.1-6.3c0-1.5,0.1-1.5-1.4-2.1c-4.9-2.1-9.6-4.3-14.3-6.7c-7.8-3.9-15.3-8.1-22.8-12.5
				c-0.7-0.4-1.3-0.8-2.1-0.8c-5.1,0.4-10.2,0.8-15.3,1c-0.8,0-1,0.4-0.9,1.1c0.1,1.2,0.2,2.4,0.2,3.6c0,1.8,0.6,3.4,1.7,4.8
				c0.9,1.2,1.9,2.3,2.9,3.4c1.6,1.8,2.9,3.8,3.6,6.1c1.2,3.7,1.6,7.3-1.2,10.7c-1.6,1.9-1.7,4.2-0.8,6.6c1.6,4.2,3.7,8.2,6.1,12
				c1.6,2.5,3.3,4.9,5.3,7c0.5,0.5,1,1,1.9,0.7c-0.1,0.7,0.2,1.1,0.8,1.5c0.3,0.2,0.4,0.6,0.1,0.7c-0.7,0.4-1.4,0.6-2.1,0.8
				c-0.6,0.2-0.8-0.3-1.2-0.7c-0.6-0.5-1.1-1.2-2-1c0.5-0.7-0.2-1-0.5-1.3c-4.5-5.4-7.9-11.4-10.7-17.8c-1.7-4-1.4-7.6,1.3-10.9
				c0.1-0.1,0.2-0.3,0.3-0.4c0.7-1,0.9-2,0.8-3.2c-0.3-3.3-1.5-6.3-3.7-8.8c-1.1-1.3-2.2-2.5-3.2-3.8c-1.6-1.9-2.3-4.2-2.3-6.7
				c0-1-0.1-2-0.1-3.1c0-1-0.4-1.3-1.3-1.2c-0.4,0.1-0.8,0-1.3,0c-8.3,0.3-16.6,0.4-25,0.1c-8.2-0.4-16.4-1-24.4-2.6
				c-4.6-0.9-9.1-2-13.4-3.9c-1.8-0.5-3.2-1.6-5-2.2c-0.5-0.7-1.2-0.9-1.9-1.4c-3.4-2.4-6.2-5.3-7.7-9.2c-1.6-4.3-1.4-8.6-0.1-12.9
				c1.6-5.1,4.4-9.6,7.6-13.7c2.1-2.6,4.3-5.1,6.7-7.5c0.3-0.3,0.6-0.7,0.9-1.1c0.3,0,0.6,0,0.9,0c1.1-0.1,2.1,0.3,2.5,1.3
				c0.4,1,0.1,2-0.6,2.8c-0.4,0.5-1,0.9-1.4,1.4c-0.9,1.1-2.2,1.8-2.9,3.1c-2.3,2.4-4.2,5-6,7.8c-1.5,2.5-2.8,5.1-3.6,8
				c-1.6,6,0,11.2,4.8,14.9c0.3,0.3,0.6,0.6,1.1,0.4c1.1,1.4,2.7,2.1,4.4,2.7c0.3,0.5,0.8,0.7,1.3,0.8c1.5,0.6,3,1.2,4.5,1.7
				c7.9,2.5,16,3.6,24.2,4.2c9.1,0.7,18.3,0.9,27.5,0.5c0.5,0,1.1,0.2,1.5-0.2c-1.2-2.5-1.2-2.5-3.7-2.4c-5.2,0-10.4,0-15.6,0.1
				c-2.3,0-4.4-0.7-6.2-2c-1.4-1-2.7-2.2-3.7-3.6c-2.4-3-4.1-6.4-5.4-10.1c-0.9-2.6-1.3-5.3-1.2-8.1c0.2-3.8,0.5-7.5,1.7-11.2
				c0.3-0.8,0.1-1.3-0.5-1.9c-6.1-5.4-11.8-11.1-16.9-17.4c-0.2-0.3-0.5-0.6-0.9-0.3c0-0.3,0-0.7-0.1-0.9c-1.2-1.6-2.1-3.4-3.6-4.7
				c0-0.8-0.5-1.3-0.9-1.9c-2.7-4.5-5-9.3-6-14.6c-1.7-8.8,0.7-16.4,6.9-22.8c4.2-4.4,9.3-7.5,14.8-10c5.9-2.7,12-4.5,18.3-5.7
				c0.4-0.1,0.7-0.1,1.1-0.1c0.6,0.3,1,0.8,1.5,1.3c0.4,0.4,0.6,1.1,1.4,0.7c0.2-0.1,0.3,0.1,0.3,0.3c0,0.2-0.1,0.3-0.2,0.4
				c-0.6,0.4-1.4,0.7-1.4,1.7c-1.8,0.7-3.1,2-4.5,3.2c-2.1,2-4.3,3.9-5.9,6.2c-2,2.9-4.6,4.5-7.9,5.4c-2.3,0.6-4.7,1.4-6.9,2.5
				c-1.5,0.2-1.6,0.1-1.5-1.3c0-0.7,0.4-1.4,0.4-2.1c-0.1-1.3,0.4-2.4,1.5-3.3c0.7-0.6,1.3-1.4,2.2-1.8c0.3-0.2,0.7-0.5,0.4-1.1
				c-1.1,0.2-2,0.9-2.9,1.5c-1.2,0.8-2.6,1.4-3.6,2.5c-10.6,7.9-12.1,19.2-5.8,30.8c0.6,2,2,3.6,3,5.3c0.2,0.3,0.5,0.4,0.9,0.5
				c-0.1,0.8,0.2,1.4,0.7,2c2,2.7,4.1,5.3,6.3,7.8c3.8,4.3,7.9,8.3,12.3,12.2c0.2-0.2,0.4-0.4,0.5-0.6c1.8-2.9,4.2-5.2,6.9-7.3
				c1.7-1.4,3.5-2.7,5.2-4.1c2.8-2.2,5.5-4.6,7.9-7.3c0.3-0.3,0.7-0.5,0.5-1.1c-0.7-0.2-1.4-0.3-2.1-0.5c-1.4-0.4-1.8-1-1.2-2.4
				c1.5-3.5,3.1-7,4.6-10.5c0.6-1.3,0.8-1.4,2.2-1.2c1.6,0.2,3.2,0.5,4.8,0.9c1.8,0.4,1.7,0.3,2.5-1.4c0.5-1.1,0.8-2.3,0.8-3.5
				c0-1,0-2,0-3c-0.1,0-0.2-0.1-0.3-0.1c-0.8,0-1.6,0.1-1.9-0.9c-0.3-0.9,0.3-1.5,1-1.9c0.3-0.2,0.7-0.3,0.6-0.9
				c-0.8-0.1-1.6,0.2-2.4,0.3c-1.5,0.3-2.2-0.5-1.9-2c0.2-1.1,0.7-2.2,1.5-3c1.4-1.7,3.2-2.5,5.3-2.7c0.9-0.1,1.4-0.3,1.6-1.3
				c0.3-1.3,1.1-2.2,2.2-3c1.7-1.2,2.7-0.8,3,1.2c0.3,2.1,0.5,4.3,0.9,6.4c0.2,1.4,0.1,2.9,0.8,4.4c3.7-2,6.4-4.7,7.8-8.6
				c-0.8-0.2-1.5,0.1-2.2,0c-1.4,0-2-0.8-1.4-2.1c0.4-0.8,0.8-1.6,1.3-2.3c4.3-6,9.9-10.3,16.7-13.2c1.4-0.6,2.9-0.8,4.4-0.7
				c4,0.2,7.7,1.5,11.2,3.5c0.5,0.3,0.8,0.8,1.2,1.4c2.1-1.8,4.3-3.2,6.5-4.8c1.9-1.4,2.9-3.3,3.3-5.5c0.4-2,0.3-4.1,0.4-6.1
				c0-1.5,0.5-1.9,2-2c1,0,1.9-0.1,2.9-0.1c0.1-0.2,0-0.3-0.2-0.3c-1.2-0.8-2.2-1.7-3.3-2.6c-0.5-0.5-0.8-1-0.7-1.7
				c1-1.2,1.1-1.2,2.2-0.3c2.2,1.7,4.3,3.5,6.5,5.3c0.7,0.6,1.1,1.2,1,2.2c-1.2,0.4-2.5,0.4-3.7,0.4c-1,0-1.9,0-2.9,0
				c-0.8,0-1,0.3-1,1c0,1.3-0.2,2.5-0.3,3.8c-0.4,3.4-1.8,6.3-4.7,8.3c-3.9,2.7-7.6,5.4-10.7,9c-0.4,0.5-1,0.8-1.6,0.5
				c-0.6-0.3-0.9-0.8-0.9-1.4c0-1.5-0.1-3.1,0.7-4.4c0.6-1,0.2-1.2-0.6-1.5c-1.9-0.8-3.9-1.4-6-1.7c-1.7-0.3-3.2-0.1-4.7,0.5
				c-5.7,2.5-10.5,6.2-14.4,11c-0.2,0.3-0.7,0.6-0.4,1.1c0.9-0.1,1.8-0.1,2.7-0.3c1.1-0.2,1.8,0.2,2.2,1.3c0.4,1,0.9,1.9,1.4,3
				c0.8-0.7,1.1-1.4,1.4-2.1c0.6-1.3,1.1-2.7,1.6-4c0.5-1.2,1-2.4,1.7-3.6c1.4-2.2,3.4-3.4,5.9-3.6c1.6-0.1,2.2,0.7,1.9,2.2
				c-0.2,1.1-0.9,1.9-1.6,2.8c-0.5,0.7-1.2,1.3-1.2,2.4c1.8,0.2,3.5-0.1,5.3-0.2c0.7,0,1.3,0.1,1.7,0.8c0.4,0.7,0.1,1.3-0.4,1.8
				c-0.9,1-1.8,1.9-2.7,2.9c-4.4,4.9-10,7.1-16.5,7c-2.2,0-2.2,0-3.1-2.1c-0.1-0.1-0.1-0.2-0.4-0.1c-0.8,1-1.7,2.1-2.8,3
				c-3.3,2.8-7.2,4.5-11.5,5.3c-0.9,0.2-1.2,0.5-1.2,1.4c-0.1,2.4-0.8,4.6-2,6.6c-0.9,1.5-1.1,1.6-2.7,1.3c-1.6-0.3-3.2-0.6-4.8-0.9
				c-0.8-0.2-1.3,0-1.6,0.9c-0.9,2.3-2,4.6-3,6.9c-0.1,0.3-0.4,0.6,0,1c1.8,0.4,3.7,0.7,5.6,1.2c1,0.2,1.7,0.1,2.2-0.9
				c1.1-1.7,2.4-3.3,3.9-4.7c3.4-3.4,7.5-5.4,12.2-6.6c1.1-0.3,2-0.1,2.7,0.8c0.7,0.9,1.6,1.8,2.4,2.6c0.4,0.4,0.7,1.1,1.6,1.2
				c-0.4-1.3-0.8-2.5-0.8-3.8c0-1.8,0.6-2.3,2.3-1.8c3.9,1.2,6.7,3.6,8.6,7.2c0.8,1.6,1.4,3.3,2.1,5c0.3,0.6,0.4,1.4,1,1.9
				c0.2-0.7,0.3-1.3,0.5-2c0.6-1.8,1.8-3.1,3.6-3.7c0.4-0.1,0.8-0.3,1.2-0.4c2-0.4,3-1.8,3.4-3.7c0.2-1.3,0.4-2.6,0.4-3.9
				c0-2,0.5-2.4,2.5-2.2c2.1,0.1,4.2,0.4,6.2,1c3.1,0.8,6.1,1.9,8.7,3.7c1.4,1,2.7,2.2,3.2,4c0.6,1.8,0,2.6-1.9,2.6
				c-2.3,0-4.7,0-7,0.1c-3.2,0.1-6.4,0.2-9.5,1c-0.9,0.2-1.7,0.5-2.4,1.1c-0.6,0.5-1,1.2-0.8,1.9c0.2,0.6,1,0.5,1.6,0.6
				c2,0.2,3.9,0.5,5.8,1.2c4.8,1.7,7.7,6.3,7.3,11.4c-0.1,1.1-0.5,1.5-1.6,1.5c-1.9,0-3.7,0-5.6,0c-5.7,0-11.4-0.2-16.7-2.6
				c-0.6-0.3-0.8,0-1,0.5c-0.3,1.1-0.7,2.2-1.1,3.2c-0.5,1.3-1,1.6-2.3,1.2c-2.5-0.7-5-1.7-7.3-3c-4-2.3-6.9-5.4-7.8-10
				c-0.2-0.8-0.5-0.9-1.2-0.8c-3.8,0.6-7.6,1.1-11.3,1.9c-2.7,0.6-5,0.6-7.2-1.3c-1-0.8-1.1-0.7-2,0.3c-2.5,2.8-5.3,5.3-8.3,7.7
				c-1.8,1.4-3.5,2.7-5.2,4.1c-1.9,1.5-3.7,3.2-5.2,5.2c-1.7,2.2-1.7,2.2,0.5,4c16.8,14.2,35.2,26.1,54,37.6
				c0.6,0.4,1.2,0.5,1.9,0.5c5.1-0.5,10.1-0.9,15.2-1.5c7.9-0.9,15.8-1.8,23.7-3.1c5.1-0.8,10.2-1.7,15.2-2.8c0.5-0.1,1-0.1,1.2-0.6
				c0.5-1.8,1.2-3.6,1.3-5.5c-0.8,0-1.3,0.3-1.9,0.5c-2.3,0.9-4.6,1.7-6.8,2.7c-1.4,0.6-2.4,0.4-3.5-0.6
				c-6.1-5.4-11.2-11.7-15.3-18.7c-2-3.4-3.7-7-4.8-10.8c-0.3-1.2-0.7-2.4-0.6-3.7c0-1.3,0.6-1.7,1.8-1.5c1.1,0.1,1.9,0.7,2.7,1.4
				c2.1,1.7,3.8,3.8,5.4,6c4.7,6.2,8.7,12.8,12,19.8c0.4,0.8,0.7,1,1.6,0.6c5-2.5,9.7-5.4,13.7-9.5c2.4-2.5,4.3-5.3,5.6-8.5
				c0.7-1.7,0.7-1.7-1-2.5c-1.7-0.7-3.6-1.1-4.2-3.5c-0.9,1.2-1.6,2.1-2.4,3c-1.1,1.4-1.6,1.5-3.2,0.8c-0.4-0.2-0.7-0.4-1.1-0.6
				c-4.1-2.8-7-6.5-8.9-11.1c-0.2-0.4-0.3-0.8-0.4-1.2c-0.1-1.1,0.7-1.9,1.8-1.5c0.6,0.2,1,0.6,1.6,0.9c4.7,3,9.9,4.7,15.6,4.9
				c4.2,0.2,8.4,0.3,12.6,0.2c2.5-0.1,4.4,0.9,6.1,2.6c1.5,1.6,2.8,3.5,3.8,5.4c1.5,2.7,2.9,5.5,4.3,8.3c1.2,2.3,2.4,4.6,3.9,6.7
				c0.4,0.5,0.6,1.1,1.6,1.4c0-2.9,0.1-5.7,0.3-8.4c0.5-6.4,1.6-12.7,4-18.7c0.4-1,0.7-1.9,0.8-2.9c1.7-0.3,1.9-0.2,1.6,1.4
				c-0.4,1.9-0.5,3.9-1.1,5.8c-1,3.3-1.7,6.7-2.2,10.1c-0.3,1.8-0.2,3.7-0.5,5.5c-0.3,1.5-0.2,3.2,0.1,4.9c1.4-0.5,2.5-1.3,3.5-2.2
				c3.8-2.8,7-6.2,9.2-10.4c2.3-4.1,3.3-8.6,2.8-13.3c-0.6-6.4-3.1-12.1-6.7-17.4c-1-1.7-2.3-3.2-3.5-4.9c-0.3-0.4-0.7-0.4-1.1-0.4
				c0-0.9-0.4-1.6-1-2.2c-1.7-1.8-3.4-3.6-5.2-5.4C270.9,246,271.8,244.6,274,244.9L274,244.9z M168.5,261.9
				c0.1,0.1,0.2,0.3,0.3,0.4c0.2,0.1,0.4,0.4,0.7,0.1c0,0,0-0.1,0-0.2c-0.2-0.2-0.5-0.2-0.7,0C169,261.9,168.7,261.9,168.5,261.9
				L168.5,261.9C168.4,261.8,168.4,261.9,168.5,261.9L168.5,261.9z M114,221.1c-1.9,0.5-3.6,1.6-5.4,2.3c-3.2,1.1-5.6,3.3-7.8,5.8
				c-0.2,0.3-0.7,0.5-0.4,1c0.2,0,0.4,0,0.5,0c2.5-0.9,5.1-1.7,7.6-2.6c0.3-0.1,0.7-0.3,0.9-0.5c1.6-1.9,3.2-3.8,4.8-5.8
				c0.1,0,0.4-0.1,0.2-0.3C114.3,220.8,114.1,220.9,114,221.1L114,221.1z M178.1,224.3c-0.8,1.1-1.6,2.2-2.1,3.5
				c-0.5,1.3-1,2.6-1.5,3.9c-0.6,1.6-1.4,3.1-2.5,4.3c-0.3,0.3-0.7,0.4-0.6,1.1c4.5-0.5,7.8-3,10.6-6.3c-1.2-0.1-2.3,0-3.4,0
				c-1.4,0-2-0.5-1.9-2c0.1-1.1,0.4-2.2,1-3.3C178,225.2,178.4,224.8,178.1,224.3c0,0,0.1,0,0.2,0.1
				C178.2,224.3,178.2,224.3,178.1,224.3L178.1,224.3z M188.3,259.3c1.2,0.3,2.3-0.2,3.5-0.4c3.5-0.4,7.1-0.4,10.6-0.5
				c0.6,0,1.3,0.1,1.9-0.3c-0.2-0.3-0.3-0.4-0.4-0.5c-0.2-0.2-0.4-0.4-0.7-0.6c-3.8-2.7-8.2-3.8-12.8-4.5c-0.7-0.1-0.8,0.3-0.8,0.8
				C189.5,255.5,188.9,257.4,188.3,259.3c-0.1,0.2-0.1-0.1-0.1,0.1c0,0,0,0.1,0,0.1C188.4,259.5,188.4,259.4,188.3,259.3
				L188.3,259.3z M216.3,312.7c0.1,0.1,0.1,0.4,0.3,0.2c0.2-0.1,0-0.3-0.1-0.4c-0.2-0.4-0.3-0.9-0.5-1.3
				c-3.5-7.5-7.8-14.5-12.9-20.9c-1-1.2-2-2.4-3.2-3.5c0,0.3-0.1,0.5-0.1,0.6c0.3,0.9,0.5,1.7,0.9,2.6c3.5,8.5,8.6,15.9,15.1,22.4
				C215.9,312.4,216.1,312.5,216.3,312.7z M183.6,262.6c-1.7,0.1-2.4,0.6-2.8,2.1c-0.3,1.2-0.4,2.4-0.4,3.6c0,1.5-0.8,2-2.3,1.5
				c-1.3-0.4-2.1-1.3-2.8-2.4c-0.7-1.1-1.1-2.4-1.6-3.6c-0.2-0.4-0.1-1-0.7-1.1c-0.2,0.2-0.3,0.4-0.5,0.6c-1.6,2-3.2,4-4.8,6
				c-0.5,0.6-1,1.2-1.8,0.8c-1.4-0.8-2.7-1.7-4.1-2.6c-0.4-0.3-0.6-0.8-0.4-1.3c0.2-0.5,0.5-0.9,1.2-1c0.4,0,0.8,0,1.3-0.1
				c1-0.2,2,0,2.9-0.6c-0.1-0.2-0.1-0.3-0.1-0.4c-2.5-2.7-5-5.4-7.4-8.1c-0.6-0.7-1.2-0.5-1.9-0.3c-6.4,1.8-11,5.9-14.3,11.5
				c-0.1,0.1-0.1,0.3-0.1,0.6c0.8,0.1,1.6-0.1,2.3-0.2c4-0.7,7.9-1.3,11.9-1.9c2.1-0.3,2.4-0.1,2.6,2c0.3,2.6,1.3,4.9,3.1,6.7
				c2.5,2.4,5.5,3.8,8.7,4.9c0.7,0.2,1,0,1.2-0.7c0.3-1.1,0.7-2.2,1.1-3.2c0.6-1.6,1.1-1.9,2.7-1.1c2,1,4.1,1.8,6.2,2.2
				c4.7,1,9.5,0.7,14.3,0.8c0.8,0,0.9-0.3,0.8-1c-0.4-2.6-1.6-4.7-4-6c-1.5-0.8-3.1-1.1-4.8-1.4c-1.3-0.2-2.6-0.3-3.9-0.7
				c-1.5-0.4-1.9-1.1-1.9-2.6C183.1,264.4,183.6,263.5,183.6,262.6c0.1,0,0.2,0,0.2-0.2c0,0-0.1-0.1-0.1-0.1
				C183.5,262.4,183.5,262.5,183.6,262.6L183.6,262.6z M236.3,284.5c0.3,1.5,1,2.3,2.3,2.7c1,0.3,1.9,0.8,2.8,1.2
				c1.7,0.7,1.8,1,1.3,2.8c-1.3,4.5-3.8,8.4-7,11.8c-5,5.1-11,8.7-17.6,11.4c1.3,1.5,1.3,1.5,3,0.8c2.8-1.1,5.6-2.2,8.3-3.3
				c0.5-0.2,1-0.4,1.5-0.6c1.3-0.4,2.1,0.3,1.9,1.7c-0.1,0.7-0.3,1.4-0.4,2.1c-0.3,1.6-0.7,3.2-1.1,5.1c12.3-2.9,24-6.4,35.2-12.2
				c-3-4.1-5-8.5-7.3-12.9c-1-1.9-2-3.8-3.2-5.6c-0.8-1.3-1.7-2.5-2.8-3.5c-0.8-0.7-1.8-1.2-2.9-1.2
				C245.6,284.6,241,284.6,236.3,284.5L236.3,284.5z M113.2,293.3c-0.9,2.5-1.1,4.9-1.4,7.2c-1,8.2,1.7,15.1,7.1,21.1
				c1.9,2.1,4.3,3.2,7.3,3.1c5.7-0.2,11.4-0.1,17.1-0.2c1.1,0,1.9,0.3,2.3,1.3c0.8,1.8,2,3.1,4.1,3.1c0.1,0,0.1,0,0.2,0.1
				c1.2,0.9,2.5,0.7,3.8,0.6c0.8-0.1,1.6,0,2.3-0.1c2.4-0.1,4.7-0.3,7.1-0.4C145.9,317.9,129,306.7,113.2,293.3L113.2,293.3z
				 M225.6,326.1c-15.5,3.1-30.8,5-46.1,6.6c10.3,6.1,20.7,11.6,31.7,16.3c0.1-0.3,0.2-0.5,0.2-0.6c0.1-0.3,0.2-0.6,0.2-0.9
				c1-5.4,3.4-10,7.6-13.7c1.6-1.4,3.1-2.8,4.4-4.5C224.3,328.4,225,327.5,225.6,326.1L225.6,326.1z M222.9,281
				c1.5,2.7,3.6,4.9,6.2,6.6c0.3,0.2,0.6,0.2,0.8-0.1c0.8-1.1,1.6-2.2,2.6-3.4C229,283.4,225.9,282.3,222.9,281L222.9,281z
				 M149.3,240.8c0.4,0.3,0.7,0.2,1,0.2c2.2-0.3,2.2-0.3,2-2.5c0-0.2,0-0.5-0.1-0.7c-0.3-1.4-0.2-2.9-0.9-4.3
				C151.2,236,151,238.6,149.3,240.8L149.3,240.8z M172.4,260.8c-1.3-3.1-3.7-5.4-5.6-5.6C167.9,257.7,169.3,259.2,172.4,260.8z
				 M164,232.4c1.5,0.7,1.5,0.7,1.8,1.8c0.2,0.6,0.4,1.1,0.5,1.7c0.5,1.6,0.5,1.6,2.3,1.3c0-0.1,0-0.1,0-0.2c-0.5-1.1-1-2.2-1.5-3.2
				c-0.8-1.8-0.4-1.6-2.5-1.5C164.6,232.4,164.4,232.4,164,232.4L164,232.4z M144.1,238c0.9,0,1.5-0.2,1.6-1.2
				c-0.4,0.2-0.6,0.3-0.9,0.5C144.6,237.4,144.4,237.7,144.1,238z M164.8,257.7c0,0-0.1-0.1-0.1-0.1c0,0-0.1,0.1-0.1,0.1
				c0,0,0,0.1,0.1,0.1C164.8,257.7,164.8,257.7,164.8,257.7L164.8,257.7z M145.4,240.8c0,0-0.1-0.1-0.1-0.1c0,0-0.1,0.1-0.1,0.1
				c0,0,0.1,0.1,0.1,0.1C145.3,240.9,145.4,240.8,145.4,240.8z"/>
			<path id="path10" class="st1" d="M442.6,338.5c0.3,0.8,0.9,1.5,1.4,2.2c1.4,2.1,2.9,4.2,4.3,6.2c0.5,0.7,0.8,1.4,0.7,2.3
				c-0.2,3.9-0.4,7.8-1.1,11.6c-0.4,2.2-1.4,4.1-2.8,5.8c-3.2,3.9-7.4,6.6-12,8.6c-0.4,0.2-0.8,0.3-1.4,0.2
				c-5.2-1.2-10.3-0.5-15.4,1c-5,1.5-5,1.5-8.1,5.6c-1.4,1.8-2.9,3.6-4,5.5c-1.1,2-1,4.4-1.6,6.6c-0.4,1.4-0.5,2.8-1.2,4.1
				c-0.3-3.9-0.6-7.7-1-11.6c-0.2-2.1-0.6-4.3-1-6.4c-0.5-2.4-2.2-3.6-4.4-4.3c-3.2-0.9-6.3-1.9-9.3-3.3c-7.6-3.7-13-9.3-15.3-17.6
				c-1.3-4.6-1.5-9.3-0.6-14.1c0.1-0.6,0.2-1.2,0.3-1.9c-2.4,0.1-4.7,0-7-0.2c-6.9-0.6-13.4-2.5-19.1-6.7c-1.2-0.9-2.3-1.9-3.4-3
				c-0.6-0.7-1-1.4-1.1-2.4c-0.7-8.4-0.9-16.9-0.4-25.3c0.5-8.2,1.7-16.3,4-24.2c0.9-3.2,2.2-6.2,3.6-9.2c0.9-1.9,2.3-2.6,4.2-2.7
				c1.6-0.1,3.2,0.2,4.7,0.9c13.5,6.5,24.8,15.7,32.7,28.6c1.7,2.7,3.1,5.5,4.4,8.4c0.4,1,0.9,1.1,1.9,0.9c3.1-0.6,6-1.7,8.7-3.2
				c2.2-1.2,3.8-1.4,5.5,0.8c1,1.3,2.7,2,3.2,3.7c0.2,0.5,0.7,0.6,1.1,0.8c3.3,1.4,6.7,2.3,10.2,2.9c1.1,0.2,1.6-0.2,2.3-0.9
				c6-7.1,13-12.9,21.2-17.3c8.9-4.9,18.5-7.8,28.6-8.8c1-0.1,1.5,0.2,2,1.1c2.1,3.8,3.2,7.9,3.8,12.1c1.2,7.9,1.2,15.8,0.5,23.7
				c-0.3,3.5-0.7,7-1.4,10.5c-0.5,2.4-1.8,4-3.8,5.1c-1.7,0.9-3.5,1.6-5.3,2.2c-3.7,1.1-7.3,2.4-11.1,2.9c-5.4,0.7-10.7,0.1-16-1.3
				c-0.5-0.1-1-0.3-1.5-0.4C442.8,338.3,442.7,338.4,442.6,338.5L442.6,338.5z M391.4,305.2c-0.1-0.3-0.2-0.5-0.3-0.6
				c-4.2-6.2-8.6-12.2-13.6-17.7c-3.7-4.1-7.8-7.8-12.5-10.8c-3.3-2.1-7-3.4-10.8-4.1c-2-0.4-3.5,0.2-4.7,1.8
				c-0.5,0.7-1,1.5-1.4,2.3c-0.9,1.7-1.6,3.6-2.2,5.5c-1.5,4.9-2.4,9.9-3.5,14.9c-1.9,9.5-1.5,18.8,1,28.1c0.4,1.6,1.3,2.7,2.6,3.6
				c7.9,5.4,16.7,7.5,26.2,7.2c2.9-0.1,4.5-1.7,6-3.7c0.3-0.4,0.3-0.7,0-1.1c-1.8-2.9-1.9-6.1-2.2-9.3c-0.3-3.4,0.7-6.2,3.3-8.5
				c0.5-0.4,0.8-0.9,0.7-1.5c-0.1-0.4,0.2-0.8,0.4-1.2c0.2-0.8,0.6-1.2,1.5-1.1c0.8,0.1,1.5,0.1,2.3-0.3
				C386.6,307.5,389,306.4,391.4,305.2L391.4,305.2z M443.9,335.5c3.1,1.8,6.5,2.7,10.1,2.7c8.5,0.1,16.4-1.6,22.6-8.2
				c0,0,0.1-0.1,0.1-0.1c0.9-0.7,1.3-1.6,1.6-2.7c0.7-3.1,1.3-6.2,1.6-9.4c0.6-6.5,0.6-13-1.3-19.4c-1.2-4.1-2.4-8.3-4-12.3
				c-0.3-0.8-0.7-1.1-1.6-0.9c-1.2,0.3-2.5,0.5-3.7,0.7c-8.2,1.8-16.1,4.3-23.3,8.6c-5.1,3-9.7,6.6-13.2,11.5
				c-0.9,1.3-1.8,2.7-2.3,4.3c0.2,0.1,0.4,0.3,0.6,0.4c3.2,1.1,6.4,1.9,9.9,1.3c0.5-0.1,1.1-0.4,1.4,0.4c0.5,1.4,1.3,2.7,1.3,4.3
				c0,2.3,0.4,4.5,0.9,6.8c0.6,2.8,1,5.7,1,8.6c0,1.2-0.2,2.1-1.2,2.8C444.2,335,444,335.2,443.9,335.5L443.9,335.5z M413.6,318.3
				c-0.2-4.6-1.8-8.7-4.2-12.4c-1.9-2.9-5.6-3.4-8.6-1.5c-1.1,0.7-2.2,1.2-3.3,1.7c-2.7,1.1-5.4,2.2-8.1,3.3c-2.4,1-4.8,2.2-6.9,3.7
				c-1.7,1.2-2.5,2.7-2.7,4.8c-0.3,2.6,0.3,5.1,0.3,7.7c0,1.9,0.8,3.3,2,4.7c1.2,1.4,2.6,2.5,4.2,3.3c2.2,1.2,4.6,1.9,7.1,2.5
				c2.4,0.6,4.5,0.3,6.5-1.1c1.4-0.9,2.8-1.8,4.4-2.4c2.4-0.9,4.3-2.6,5.7-4.8c1.3-1.9,2.2-4,3.1-6.1
				C413.4,320.6,413.7,319.5,413.6,318.3L413.6,318.3z M414.1,309.9c0.5,2.2,1.2,4.1,1.4,6c0.2,3.1,1.1,6.2-1.1,9
				c-0.3,0.3-0.1,0.7,0.1,1c2,2.6,3.1,5.6,4.4,8.6c0.5,1.3,1.5,2,2.8,2.2c0.9,0.2,1.8,0.3,2.7,0.1c1.4-0.2,2.9-0.3,4.3-0.7
				c1.1-0.2,2-0.1,2.9,0.4c1.3,0.7,2.7,1.2,4.3,1.3c1.2,0.1,2.2-0.1,3.1-1.1c0.5-0.6,1.3-1.1,1.9-1.6c0.8-0.6,1.3-1.4,1.6-2.3
				c0.4-1.2,0.4-2.5,0.4-3.7c0-4.3-1-8.6-1.6-12.8c-0.1-0.6-0.4-1.2-0.9-1.8c-0.8-1-1-1-2.2-0.5c-1.8,0.8-3.6,1-5.6,0.3
				c-2-0.8-4-1.2-6.1-1.3c-2.9-0.2-5.7-0.9-8.4-1.8C416.8,310.8,415.6,310.4,414.1,309.9L414.1,309.9z M374.8,350.8
				c-0.3,1.8,0.1,3.3,0.9,4.7c0.6,1.2,1.4,2.2,2.1,3.4c0.4,0.7,1,1.1,1.8,1.3c2.6,0.7,5.2,1,7.8,1.3c4.7,0.5,9.4,0.7,14.2,0.9
				c8.3,0.3,16.7,0.2,25-0.2c0.4,0,0.9,0,1.2-0.2c3.6-1.6,7.5-2.1,11.3-2.7c2.1-0.4,4.3-0.7,6.3-1.3c0.6-0.2,1.1-0.3,1.4-1
				c0.8-1.7,0.6-3.4-0.6-4.8c-0.3-0.4-0.7-0.7-1-1.1c-0.5-0.7-1-0.7-1.7-0.4c-7.7,3-15.6,4.5-23.8,5.2c-9.9,0.7-19.6,0.2-29.4-1.4
				C385.1,353.7,379.9,352.6,374.8,350.8L374.8,350.8z M442.1,342.3c-0.4-0.8-0.8-1.5-1.1-2.3c-0.6-1.3-0.6-1.4-1.9-0.9
				c-9.2,3.1-18.6,4.5-28.2,4.6c-7.8,0-15.6-0.3-23.2-2.3c-3.1-0.8-6.1-1.7-9.2-2.4c-1.8-0.4-2.8,0.3-3.4,2.3
				c-0.6,2.2-0.5,2.4,1.6,3.3c0.4,0.2,0.8,0.3,1.2,0.4c6.4,1.9,12.9,3.2,19.5,4c6.3,0.7,12.6,0.5,18.9,0.3c4.8-0.2,9.6-0.6,14.1-2.4
				c3.6-1.5,7.3-2.7,10.9-4.1C441.5,342.6,441.7,342.4,442.1,342.3L442.1,342.3z M441.2,365.3c-0.6-0.2-1-0.1-1.3,0
				c-5.9,1.8-11.9,2.6-18,2.8c-2.2,0.1-4.3,0.2-6.4,0.5c-5.7,1-11.3,0.7-17-0.1c-4.3-0.7-8.6-1.4-13-1.7c-0.7-0.1-1.4-0.3-2.1,0.3
				c0.1,0.8,0.8,1.1,1.3,1.4c1.1,0.7,2.3,1.3,3.6,1.6c2.7,0.6,5.2,1.9,7.5,3.4c0.8,0.5,1.6,0.9,2.4,1.3c0.5,0.2,1,0.3,1.5,0.3
				c2.7-0.2,5.4-0.2,8.1,0.1c3.6,0.5,7.1,0.2,10.6-1.2c1.9-0.8,4-1.3,6-1.8c0.7-0.2,1.3-0.2,1.9,0.1c1.9,0.8,3.9,0.7,5.8,0
				C435.8,371,438.5,368.4,441.2,365.3L441.2,365.3z M396.9,339.1c5.7,0.8,11.3,1.2,17,0.3c1.6-0.2,3.3-0.5,4.7-1.6
				c-2.4-1.6-2.4-1.6-4.1-4.3c-0.8-1.3-1.7-2.4-3-3.2c-2,2.3-4.5,3.6-6.8,5.2C402.3,337.2,399.8,338.5,396.9,339.1z"/>
			<path id="path12" class="st1" d="M205.7,169.8c0.9-11.4,2.3-22.8,3.7-34.2c1.3-10.6,2.8-21.1,4.5-31.7c1.5-9.9,3.1-19.9,5.2-29.7
				c0.8-3.7,2.7-6,6-7.6c7.6-3.7,15.4-7.2,23.2-10.5c19.8-8.4,39.7-16.5,59.9-23.7c3-1.1,6.1-2.1,9.2-2.9c1.8-0.5,3.5-0.3,5.2,0.7
				c2.7,1.6,5.3,3.3,7.8,5.1c15.1,10.7,29.7,22,44.1,33.5c5.6,4.4,11.1,8.9,16.6,13.5c2.3,1.9,4.5,4,6.8,5.9c1.9,1.6,3.3,3.5,5.3,5
				c1.3,1,1.9,2.4,1.9,4.1c0.1,3.3-0.2,6.6-0.5,9.9c-0.7,8.2-1.7,16.5-2.8,24.7c-1.1,8.4-2.3,16.7-3.4,25.1
				c-1.2,8.7-2.6,17.4-4.1,26.1c-0.9,5.2-1.8,10.4-3.1,15.5c-0.6,2.2-1.7,3.9-3.8,4.9c-2.6,1.3-5.2,2.6-7.8,3.8
				c-3,1.4-5.9,2.8-8.9,4.1c-5.9,2.6-11.9,5.2-17.9,7.7c-8.6,3.5-17.2,7-25.8,10.4c-8.2,3.2-16.4,6.4-24.7,9.3c-2.9,1-5.9,2-8.9,2.8
				c-2,0.5-3.7,0.3-5.5-0.8c-2.6-1.6-5.2-3.2-7.7-5c-13.6-9.7-26.8-19.9-40-30.3c-9.9-7.8-19.8-15.7-29.3-24.2
				c-1.2-1.1-2.4-2.3-3.6-3.5c-1.3-1.2-1.8-2.7-1.8-4.4C205.7,172.2,205.7,171,205.7,169.8L205.7,169.8z M285.1,46.2
				c-0.3-0.4-0.6-0.7-0.9-1.1c-0.3-0.6-0.7-0.6-1.3-0.4c-1.9,0.6-1.9,0.5-1.5,2.5c0,0.1,0,0.2,0,0.4c-0.3,0.2-0.6,0.3-1,0.5
				c-12.2,4.9-24.4,9.9-36.5,15.2c-5.8,2.5-11.5,5.1-17.1,7.9c-1.7,0.9-2.6,2-3,3.9c-1.2,5.6-2.3,11.3-3.2,16.9
				c-1.3,8.2-2.6,16.3-3.8,24.5c-1.1,7.4-2.1,14.8-3,22.3c-0.9,6.8-1.7,13.6-2.4,20.4c-0.5,4.5-0.9,8.9-1,13.4c0,1.2,0.3,2,1.2,2.8
				c3.9,3.8,8.2,7.2,12.2,10.8c0.5,0.5,1.1,0.6,1.8,0.6c0,0.2-0.1,0.4-0.4,0.6c-1.2,0.7-1.2,0.9-0.1,1.8c1,0.8,2,1.6,2.9,2.3
				c2.8,2.2,5.5,4.3,8.2,6.6c0.8,0.7,1.5,0.9,2.4,0.5c0.4-0.1,0.7,0.1,1,0.3c0.8,0.7,1.6,1.3,2.5,2c4,3.1,7.8,6.3,11.9,9.2
				c1.2,2.4,3.5,3.6,5.6,5.1c0.1,0.1,0.4,0,0.5,0c0.7,0.4,1.4,0.8,2.1,1.3c7.6,5.9,15.6,11.3,23.1,17.3c0,0.5-0.2,1.1,0.3,1.5
				c0.9,0.7,1.7,1.5,2.7,2c0.2,0.1,0.5,0.1,0.7,0c1.7-0.7,2.8,0,3.7,1.5c0.4,0.8,1.2,0.9,2,0.6c0.9-0.4,1.8-0.7,2.7-1
				c12.4-4.9,24.7-9.9,37.1-14.7c2-0.8,3.5-1.7,3.8-4c0-0.1,0.2-0.2,0.2-0.3c0.5,0.1,1-0.1,1.4-0.3c6.3-2.7,12.7-5.3,19-8
				c0.9-0.4,1.8-0.6,2.6-1.2c0.2,0.8-0.1,1.7,0.3,2.5c1.6-0.4,3-1,4.5-1.7c0.6-0.3,0.7-0.7,0.7-1.3c0-0.8-0.2-1.5,0.2-2.3
				c0.4,0.4,0.7,0.2,1.1,0c3.4-1.5,6.9-3,10.3-4.6c2.2-1,4.3-2,6.4-3.3c0.9-0.5,1.4-1.2,1.6-2.2c0.4-1.9,0.9-3.7,1.3-5.6
				c1.9-9.4,3.3-18.8,4.8-28.3c0.9,0.3,1.9,0.6,2.9,1c0.2-1.4,0.3-2.8,0.5-4.1c0.1-1-0.4-1.6-1.1-2.1c-0.5-0.4-1.1-0.4-1.4-1
				c1.2-9.3,2.5-18.6,3.7-27.9c1.2-9.6,2.4-19.2,3-28.9c0.2-2.3-0.4-4-2.2-5.5c-2.3-1.9-4.5-4-6.7-6c0-0.5,0.3-0.9,0.7-1.2
				c0.4-0.4,0.5-0.9-0.1-1.2c-0.9-0.5-1.4-1.3-2.2-1.8c-3-2.3-6-4.6-9-7c-0.5-0.4-0.9-1-1.5-1.3c-0.7-0.3-1,0.8-1.6,0.9
				c-0.1,0-0.2,0-0.4,0c-12.3-9.8-24.7-19.6-37.4-29c-1.8-1.4-3.6-2.7-5.4-4.1c-0.3-1.9-1.3-2.6-3-2.2c-0.5-0.3-1-0.6-1.5-1
				c-3.1-2.2-6.1-4.4-9.4-6.3c-0.8-0.5-1.6-0.7-2.5-0.4c-1.5,0.5-3,0.9-4.5,1.3C304.2,38.8,294.7,42.5,285.1,46.2L285.1,46.2z"/>
			<g id="path14">
				<path class="st2" d="M9.8,514c-0.6,0-2.1,0-3.3-1.2c-1.2-1.2-1.1-2.6-1.1-3.7l0-0.7c0-33,0-66,0-99v-3.9l1.9-0.9
					c0.8-0.4,1.7-0.6,2.6-0.6c0.2,0,0.4,0,0.6,0l0.3,0c21.6,0,43.3,0,64.9,0l0.7,0l0.5,0c1.5,0,2.4,0.6,3,1.2
					c0.5,0.6,1.2,1.5,1.2,3.1c0,2.7,0,5.5,0,8.2c0,2.4-1.7,4.2-4.1,4.2H22.1c0,5.5,0,10.8,0,16.2c0,4.2,0,8.4,0,12.6
					c15.4,0,30.7,0,46.1,0c0,0,0.7,0,0.9,0c0.5,0,1.4,0,2.3,0.4l2.3,0.8l0,4.6c0,2.2,0,4.5,0,6.8c0,2.5-1.7,4.3-4.1,4.3
					c0,0-0.5,0-0.6,0l-0.7,0H22.1v30.9h54.3c4.3,0,5.9,1.5,5.9,5.9l0,6.1c0,1,0,2.4-1.2,3.6c-1.2,1.2-2.6,1.2-3.4,1.2h-1
					c-21.9,0-43.9,0-65.8,0L9.8,514z"/>
				<path class="st0" d="M9.9,407.5c0.3,0,0.6,0,0.9,0c21.6,0,43.3,0,64.9,0c0.2,0,0.5,0,0.7,0c0.1,0,0.2,0,0.4,0c0,0,0.1,0,0.1,0
					c0.5,0,0.8,0.2,0.7,0.8c0,2.8,0,5.5,0,8.3c0,0.5-0.2,0.7-0.7,0.7c0,0,0,0,0,0c-0.2,0-0.3,0-0.5,0c-0.3,0-0.6,0-1,0
					c-18.1,0-36.2,0-54.3,0c-0.3,0-0.5,0-0.8,0c-0.2,0-0.3,0-0.5,0c-0.1,0-0.2,0-0.3,0c-0.7,0-0.9,0.5-0.9,1.3c0,11,0,22.1,0,33.1
					c0,1.2,0,1.2,1.7,1.2c16,0,31.9,0,47.9,0c0,0,0,0,0.1,0c0.3,0,0.5,0,0.8,0c0.4,0,0.8,0,1.2,0.2v0c0,3,0,5.9,0,8.9
					c0,0.6-0.2,0.8-0.7,0.8c0,0-0.1,0-0.1,0c-0.2,0-0.3,0-0.5,0c-0.3,0-0.5,0-0.8,0c-15.8,0-31.5,0-47.3,0c-0.3,0-0.5,0-0.8,0
					c-0.2,0-0.3,0-0.5,0c-0.1,0-0.1,0-0.2,0c-0.6,0-0.9,0.2-0.8,0.9c0,0.4,0,0.7,0,1.1c0,11.2,0,22.4,0,33.7c0,0.1,0,0.2,0,0.4
					c0,1.6-0.1,1.7,0.9,1.7c0.2,0,0.5,0,0.8,0c6.2,0,12.4,0,18.6,0c12.4,0,24.9,0,37.3,0c2.5,0,2.5,0,2.5,2.5c0,1.9,0,3.8,0,5.8
					c0,1.6,0.1,1.7-1.2,1.7c-0.1,0-0.2,0-0.3,0c-0.1,0-0.2,0-0.3,0c-0.1,0-0.2,0-0.4,0c-21.9,0-43.9,0-65.8,0c-0.5,0-0.8,0-1.1,0
					c-1.2,0-1-0.2-1-2.1c0-33,0-66,0-99c0-0.6,0-1.2,0-1.8C9.2,407.6,9.6,407.5,9.9,407.5 M9.9,400.7c-1.5,0-2.8,0.3-4.1,0.9
					L2,403.5v4.3v1.8c0,33,0,66,0,99c0,0.2,0,0.4,0,0.6c0,1.3-0.1,3.9,2.1,6.1c2.2,2.2,4.8,2.2,5.7,2.2c0.2,0,0.3,0,0.5,0
					c0.2,0,0.4,0,0.6,0c22,0,43.9,0,65.8,0h0.4l0.3,0l0.2,0l0.2,0c1.1,0,3.7,0,5.9-2.2c2.2-2.2,2.1-4.8,2.1-6l0-0.3v-5.8
					c0-6.2-3-9.3-9.3-9.3l-18.6,0l-18.7,0c-4.5,0-9.1,0-13.6,0v-24.1h42.7l0.5,0l0.3,0l0.1,0c0.2,0,0.4,0,0.5,0
					c4.3,0,7.5-3.3,7.5-7.7c0-2.3,0-4.5,0-6.7l0-2.2v-4.8l-4.5-1.6c-1.1-0.4-2.2-0.6-3.5-0.6c-0.2,0-0.4,0-0.6,0l-0.2,0
					c-14.3,0-28.5,0-42.8,0c0-3,0-6,0-9c0-4.3,0-8.6,0-13l49.9,0l0.5,0l0.4,0c0.1,0,0.2,0,0.3,0l0.1,0l0.1,0c4.3,0,7.5-3.2,7.5-7.6
					l0-0.1c0-2.7,0-5.4,0-8.1c0-2.1-0.7-4.1-2.2-5.5c-1.4-1.4-3.3-2.2-5.4-2.2c-0.2,0-0.3,0-0.5,0l-0.2,0c-0.2,0-0.3,0-0.5,0
					c-21.7,0-43.3,0-65,0l-0.1,0C10.4,400.7,10.2,400.7,9.9,400.7L9.9,400.7z"/>
			</g>
			<path id="path16" class="st2" d="M168.6,443.2c0.8-0.3,1.1-0.8,1.6-1.2c3.9-3.4,8-6.5,13-8.1c12.5-4,26.7-1,36.3,10.3
				c7.5,8.9,10.9,19.2,10.2,30.8c-1.1,17.2-12.5,30.8-26.9,35.3c-10.9,3.4-20.9,1.4-30.2-5c-0.6-0.4-1.3-0.9-1.9-1.4
				c-0.6-0.4-1.1-0.9-1.7-1.3c-0.6,0.3-0.4,0.8-0.4,1.1c0,1.9,0,3.7,0,5.6c0,0.9-0.2,1.3-1.2,1.3c-2.5-0.1-5-0.1-7.6,0
				c-0.8,0-1.2-0.2-1.1-1.1c0-0.4,0-0.7,0-1.1c0-33.8,0-67.7,0-101.5c0-2.5-0.3-2.1,2.1-2.1c2.2,0,4.3,0,6.5,0c1.3,0,1.3,0,1.3,1.3
				c0,2.6,0,5.3,0,7.9c0,9.1,0,18.2,0,27.4C168.6,441.9,168.6,442.5,168.6,443.2L168.6,443.2z M196.6,442.2
				c-8.9,0-14.1,2.1-18.7,5.9c-3.5,2.8-6.2,6.3-8.5,10.2c-0.6,1.1-0.9,2.1-0.9,3.4c0,7.1,0.1,14.1,0,21.2c0,3.5,1.1,6.4,3.3,9
				c3.3,3.8,7.3,6.5,11.9,8.4c2.6,1.1,5.3,1.7,8.2,1.8c7.8,0.2,14.1-3,19.2-8.6c6.4-6.9,9.2-15,8.4-24.4
				c-0.8-8.5-4.2-15.7-10.8-21.2C204.6,444.2,199.6,442.1,196.6,442.2L196.6,442.2z"/>
			<path id="path18" class="st3" d="M278.7,470c-1.2,2.7-2.2,5-3.3,7.4c-4.2,9.7-8.5,19.5-12.7,29.2c-0.3,0.6-0.3,1.4-1.1,1.5
				c-0.9,0.1-1.8,0.1-2.7,0c-0.6-0.1-0.6-0.8-0.8-1.3c-2.4-5.5-4.8-11-7.2-16.5c-7.4-16.9-14.7-33.7-22.1-50.6
				c-0.4-0.8-0.8-1.6-1-2.7c1.2-0.3,2.4-0.1,3.6-0.1c0.8,0,0.9,0.8,1.1,1.3c1.5,3.3,2.9,6.6,4.3,9.9c7.3,16.8,14.6,33.5,21.9,50.3
				c0.5,1.1,1,2.3,1.6,3.7c0.6-1.3,1.1-2.4,1.6-3.4c4.7-10.7,9.3-21.4,14-32.1c0.5-1.2,0.4-2.1-0.1-3.2c-3.5-8-6.9-16.1-10.4-24.1
				c-0.3-0.6-0.7-1.1-0.5-1.9c1-0.3,2.1-0.1,3.2-0.1c0.7,0,0.9,0.5,1.1,1c1.3,3,2.6,6,4,9.1c1.7,3.8,3.3,7.6,5,11.4
				c0.1,0.3,0.2,0.7,0.7,0.9c1-1.8,1.8-3.8,2.6-5.7c2.3-5.1,4.5-10.2,6.7-15.3c0.4-1,0.9-1.4,2-1.3c0.8,0.1,1.5,0,2.3,0
				c0.3,0.7-0.1,1.2-0.3,1.7c-3.5,8.2-7,16.3-10.5,24.4c-0.5,1.1-0.5,2.1,0,3.2c5,11.4,10,22.9,15,34.3c0.1,0.3,0.3,0.6,0.6,1.2
				c0.6-1.4,1.2-2.5,1.7-3.7c8.7-19.9,17.4-39.8,26-59.7c0.6-1.4,1.4-1.9,2.8-1.8c0.6,0.1,1.3,0,1.9,0c0.3,0.7-0.1,1.2-0.3,1.6
				c-6.6,15.1-13.2,30.2-19.8,45.3c-3.2,7.4-6.4,14.7-9.6,22.1c-0.2,0.4-0.4,0.8-0.5,1.1c-0.3,0.9-0.9,1.2-1.8,1.1
				c-0.1,0-0.2,0-0.4,0c-1.2,0.2-1.8-0.3-2.3-1.4c-2.2-5.2-4.5-10.4-6.8-15.7c-2.9-6.6-5.8-13.3-8.7-19.9
				C279.2,470.9,279.1,470.6,278.7,470L278.7,470z"/>
			<path id="path20" class="st2" d="M125.1,443.3c0.3-0.3,0.5-0.5,0.7-0.7c6.3-6.1,13.7-9.3,22.5-9.2c1,0,1.9,0,2.9,0
				c0.6,0,0.9,0.2,0.9,0.8c0,2.7,0,5.4,0,8.1c0,0.7-0.4,0.9-1,0.9c-1.9,0.2-3.7,0.1-5.6,0.4c-8.3,1.3-14.3,5.8-18.2,13.2
				c-0.3,0.6-0.6,1.2-0.9,1.8c-1.1,2.5-1.7,5-1.7,7.8c0.1,14,0,28,0,41.9c0,2.3,0,2.3-2.4,2.3c-2.2,0-4.3,0-6.5,0
				c-0.7,0-1.1-0.2-1.1-1c0-0.4,0-0.7,0-1.1c0-24.4,0-48.7,0-73.1c0-2.5-0.3-2.1,2.2-2.2c2,0,4,0,5.9,0c1.9,0,1.8-0.1,1.8,1.7
				c0,2.2,0,4.4,0,6.7C124.9,442.1,124.8,442.6,125.1,443.3L125.1,443.3z"/>
			<g id="path22">
				<path class="st3" d="M469.3,513c-8.4-0.1-15.9-2.8-22.3-8.2c-8.9-7.5-13.9-17.2-14.9-28.9c-1-11,1.8-20.8,8.4-29.2
					c7.3-9.3,17.1-14.2,28.4-14.2c0.5,0,0.9,0,1.4,0c11.4,0.4,20.8,5.4,28,14.9c5.7,7.6,8.6,16.2,8.4,25.8c-0.1,3.4-1.6,4.9-5,4.9
					c-10.1,0-20.3,0-30.4,0h-28c1.9,9.6,6.8,16.5,14.9,21.1c3.6,2.1,7.5,3.1,11.4,3.1c3.4,0,7-0.8,10.7-2.3c5-2.1,8.5-5.3,10.8-9.7
					c1.2-2.3,3.1-2.7,4.1-2.7c0.5,0,1.1,0.1,1.7,0.3c0.4,0.1,0.8,0.2,1.1,0.3c0.9,0.2,2.5,0.6,3.3,2.3c0.8,1.8,0.1,3.2-0.8,4.9
					l-0.2,0.4c-2.6,5.1-6.7,9.2-12.1,12.2c-5.9,3.3-12.1,4.9-18.5,4.9H469.3z M495.3,467.4c-1.3-7.1-4.4-12.8-9.4-17.5
					c-4.6-4.3-10.6-6.7-16.9-6.7c-4.1,0-8.1,1-11.7,3c-7.8,4.3-12.5,11.2-14.2,21.2l7.5,0L495.3,467.4z"/>
				<path class="st0" d="M468.8,435.9c0.4,0,0.9,0,1.3,0c10.6,0.4,19,5.2,25.4,13.6c5.3,7,7.8,14.9,7.7,23.7c0,1.5,0,1.5-1.6,1.5
					c-10.1,0-20.3,0-30.4,0v0c-10,0-20,0-30,0c-1.9,0-2,0-1.7,1.9c1.7,11.2,7,20,16.9,25.6c4.3,2.4,8.7,3.6,13.1,3.6
					c4,0,8-0.9,12-2.6c5.5-2.3,9.8-6,12.5-11.3c0.3-0.6,0.6-0.8,1-0.8c0.2,0,0.4,0,0.7,0.1c2.7,0.9,2.9,0.1,1.4,3.1
					c-2.4,4.8-6.2,8.3-10.8,10.8c-5.2,2.9-10.8,4.5-16.8,4.5c-0.1,0-0.1,0-0.2,0c-7.6,0-14.4-2.5-20.1-7.4
					c-8.2-6.9-12.8-15.8-13.8-26.6c-0.9-9.9,1.5-19,7.7-26.8C449.7,440.4,458.3,435.9,468.8,435.9 M441.3,470.8c3.1,0,6.2,0,9.3,0
					c6.2,0,12.4,0,18.6,0c9.2,0,18.5,0,27.7,0c0.3,0,0.6,0,0.8,0c0.1,0,0.3,0,0.4,0c0,0,0.1,0,0.1,0c0.7,0,0.9-0.4,0.8-1.1
					c-1-8.7-4.4-16.3-10.8-22.3c-5.3-5-12.2-7.6-19.2-7.6c-4.6,0-9.2,1.1-13.3,3.4c-10,5.5-14.7,14.5-16.3,25.5
					C439.2,470.8,439,470.8,441.3,470.8 M468.8,429c-12.4,0-23.1,5.4-31.1,15.5c-7.1,9.1-10.2,19.7-9.1,31.6
					c1.1,12.6,6.6,23.1,16.1,31.2c7,5.9,15.3,9,24.5,9.1l0.2,0c7,0,13.7-1.8,20.1-5.3c6.1-3.4,10.6-8,13.5-13.7l0.2-0.4
					c0.9-1.8,2.3-4.6,0.8-7.8c-1.5-3.2-4.4-3.9-5.6-4.2c-0.3-0.1-0.5-0.1-0.9-0.2c-1-0.3-1.8-0.5-2.7-0.5c-1.4,0-5,0.4-7.1,4.5
					c-1.9,3.7-4.9,6.4-9.1,8.2c-3.3,1.4-6.4,2.1-9.4,2.1c-3.4,0-6.6-0.9-9.7-2.7c-6-3.4-10-8.3-12.2-14.7h23.6c1.8,0,3.6,0,5.4,0
					c8.3,0,16.6,0,24.9,0c5.2,0,8.3-3,8.4-8.2c0.2-10.4-2.8-19.8-9-28c-7.8-10.2-18.4-15.9-30.6-16.3
					C469.9,429.1,469.3,429,468.8,429L468.8,429z M447.4,464c2-6.8,5.8-11.6,11.6-14.8c3-1.7,6.5-2.6,10-2.6c5.4,0,10.6,2,14.6,5.7
					c3.5,3.3,5.9,7.1,7.4,11.6h-21.8l-9.3,0l-9.3,0C449.5,464,448.5,464,447.4,464L447.4,464z"/>
			</g>
			<path id="path24" class="st3" d="M383.3,497.9c-2.5,2.7-5.3,5-8.5,6.8c-4.3,2.4-9,3.8-13.9,4.5c-3.6,0.5-7.2,0.7-10.7,0
				c-10.8-1.9-18.4-10.3-18.8-21c-0.3-6.3,2.5-11.2,7.5-14.9c4.4-3.2,9.4-5,14.7-5.8c6.5-1,13-0.5,19.5,0.5c3.3,0.5,6.5,1.2,9.6,2.3
				c0.3,0.1,0.6,0.2,1-0.1c0.1-6.1,0.5-12.3-2.3-18.1c-3.3-7-8.8-10.8-16.4-12c-6.1-1-11.6,0.7-17.1,3.1c-2.9,1.3-5.6,2.9-8.3,4.7
				c-1.1,0.7-1.1,0.7-1.9-0.3c-2-2.6-1.7-2.1,0.5-3.5c5-3.3,10.4-6,16.3-7.4c6.6-1.6,13.1-1,19.3,1.9c4.5,2.1,7.8,5.5,10.2,9.8
				c2.5,4.6,3.6,9.6,3.6,14.9c0,12.5,0,25.1,0,37.6c0,0.5,0,1.1,0,1.6c0,0.9,0.3,1.7,1.4,1.8c0.6,0,0.8,0.4,0.8,1c0,0.4,0,0.7,0,1.1
				c0,1.9-0.5,2.3-2.4,1.7c-1.9-0.5-3.5-2.6-3.7-5.1c-0.1-1.1,0-2.2,0-3.2c0-0.6,0-1.2,0-1.7C383.5,497.9,383.4,497.9,383.3,497.9
				L383.3,497.9z M383.7,482.2c0-1.9,0-3.7,0-5.6c0-1.8,0-1.8-1.7-2.4c-8.6-3-17.4-3.8-26.4-3.1c-4.6,0.4-9.1,1.6-13.1,4.1
				c-6,3.7-8.5,10-6.7,16.7c1.9,7.4,8.7,13.1,16.5,13.6c7.3,0.5,14.3-0.9,20.8-4.4c3.6-1.9,6.6-4.5,8.8-8c1.1-1.8,1.8-3.6,1.7-5.8
				C383.6,485.7,383.7,483.9,383.7,482.2L383.7,482.2z"/>
			<path id="path26" class="st1" d="M198,381.7c0.1,0.8-0.9,1.1-1,2c1.4,0.1,2.4-0.8,3.6-1.1c1.5-0.4,1.7-1.9,2.4-3
				c0.6-0.2,1.1-0.4,1.7-0.6c3.1-1.2,6.3-2.4,9.4-3.6c0,0.4,0.1,0.7,0.1,1.1c0.1,0.3,0.3,0.5,0.6,0.5c1.1,0,2.2-0.8,2.4-1.9
				c0.1-0.5,0.1-0.9,0.2-1.4c0.6,0.3,1.2-0.1,1.7-0.3c1.5-0.5,2.9-1.1,4.4-1.6c0.2,0.5-0.6,1.2,0,1.6c0.5,0.3,1-0.2,1.5-0.3
				c1.3-0.3,2.1-1.1,2.5-2.3c0.1-0.4,0.4-0.7,0.6-1.1c3.8-1.5,7.6-3,11.3-4.6c1.5-0.6,3-1.1,4.4-2c0.7-0.1,1.3-0.2,1.9,0.1
				c0.6,0.2,1.2,0.3,1.8,0.2c2.9-0.5,5.8-0.3,8.6-1.2c0.5-0.2,1-0.4,1.5,0.1c-3.1,1.7-6.5,3.1-9.8,4.5
				c-22.5,9.6-45.3,18.5-68.4,26.6c-3.8,1.3-7.6,2.6-11.5,3.6c-2.2,0.6-4.2,0.3-6.2-1c-4.2-2.7-8.2-5.6-12.2-8.6
				c-19.9-15-39.3-30.5-58.2-46.7c-2.8-2.4-5.4-4.9-8.1-7.4c-2.2-2.1-3.1-4.5-2.6-7.4c1.7,0.6,3.2,1.8,5,2.2
				c-0.3,0.8,0.4,1.1,0.8,1.5c2.1,2.2,4.3,4.2,6.6,6.1c16,14,32.7,27.2,49.5,40.2c6.7,5.2,13.4,10.3,20.4,15
				c1.8,1.2,3.5,1.8,5.5,0.8c0.2-0.1,0.5-0.1,0.7-0.1c0.9-0.1,1.4,0.5,2,1c0.3,0.3,0.6,0.8,1.2,0.7c0.7-0.2,1.5-0.5,2.1-0.8
				c0.3-0.1,0.2-0.6-0.1-0.7c-0.6-0.3-0.8-0.8-0.8-1.5c0.3-0.1,0.6-0.3,1-0.4c4.9-1.7,9.8-3.5,14.7-5.2
				C192.2,383.8,195,382.5,198,381.7L198,381.7z"/>
			<path id="path28" class="st1" d="M274,244.9c-2.2-0.3-3.1,1.1-3.6,2.9c-0.2-0.1-0.4-0.2-0.6-0.4c-13.5-11.9-27.6-23.2-41.8-34.3
				c-4.2-3.3-8.5-6.6-12.7-10c0.1-0.9-0.3-1.6-1-2.2c-2.2-1.8-4.3-3.6-6.5-5.3c-1.2-0.9-1.2-0.8-2.2,0.3c-2.3-1.6-4.6-3.1-6.8-4.7
				c-1.6-1.2-3.1-1.4-5-0.8c-4.7,1.4-9.3,3-14,4.6c-3.6,1.3-7.2,2.5-10.8,3.8c-0.4-0.1-0.7-0.4-1-0.7c-0.3-0.3-0.7-0.3-1.1-0.2
				c-1.5,0.4-1.5,0.5-1.3,2.2c-4.7,1.8-9.5,3.7-14.2,5.5c-1,0.4-2,0.9-3,1.1c0.2-1,1.2-1,1.9-1.5c0.5-0.4,1.3-0.4,1.6-1.2
				c-0.2,0-0.4-0.1-0.5-0.1c-3.7,1.4-7.3,2.8-11,4.2c-2.4,1-4.9,1.8-7,3.6c-1.1,0.9-2.1,1.8-3.4,2.3c-0.1,0.2-0.5,0.2-0.4,0.6l0,0
				c-0.5-0.2-0.9,0.1-1.3,0.3c-1.4,0.5-2.6,1.2-4.1,1.6c0-0.9,0.8-1.2,1.4-1.7c0.1-0.1,0.2-0.3,0.2-0.4c0-0.2-0.2-0.4-0.3-0.3
				c-0.8,0.4-1-0.3-1.4-0.7c-0.5-0.5-0.8-1-1.5-1.3c2-1.1,4.1-1.8,6.2-2.7c18.5-7.5,37-14.7,55.9-21.2c3.1-1.1,6.2-2.1,9.4-2.9
				c2-0.5,3.7-0.3,5.5,0.8c3,1.9,5.9,3.9,8.8,6c17.1,12.6,33.7,25.8,50,39.3c4.5,3.7,9,7.6,13.4,11.4
				C272.7,243.6,273.5,244.1,274,244.9L274,244.9z M153.1,203.8c0.7,0,1.1-0.1,1.3-0.8C153.7,202.9,153.3,203,153.1,203.8z"/>
			<path id="path30" class="st2" d="M99.8,472.1c0,12.1,0,24.2,0,36.3c0,0.5,0,1,0,1.4c0,0.5-0.2,0.7-0.8,0.7c-2.8,0-5.5,0-8.3,0
				c-0.6,0-0.9-0.3-0.8-0.9c0-0.4,0-0.7,0-1.1c0-24.5,0-48.9,0-73.4c0-2.3-0.2-2,2-2c2.2,0,4.3,0,6.5,0c1.3,0,1.4,0,1.4,1.4
				c0,8.6,0,17.3,0,25.9C99.8,464.4,99.8,468.3,99.8,472.1L99.8,472.1z"/>
			<path id="path32" class="st4" d="M408.4,452.5c0.9-0.6,1.1-1.3,1.5-1.8c3.7-5.4,8.5-9.6,14.7-12c2.4-1,4.9-1.5,7.5-1.6
				c0.8,0,1.7-0.1,2.5-0.2c0.7-0.1,0.9,0.2,1,0.9c0.3,2.7,0.2,2.9-2.5,3.2c-11.7,1.3-19.3,7.9-23.6,18.7c-0.8,2.1-1.2,4.2-1.2,6.5
				c0.1,13.2,0,26.4,0,39.6c0,0.4,0,0.8,0,1.3c0.1,0.8-0.3,1.2-1.1,1.2c-3.4-0.1-2.8,0.3-2.8-2.6c0-22.2,0-44.4,0-66.5
				c0-2.4-0.2-2.2,2.3-2.2c1.6,0,1.6,0,1.6,1.7c0,3.9,0,7.8,0,11.7C408.4,450.9,408.4,451.5,408.4,452.5L408.4,452.5z"/>
			<path id="path34" class="st1" d="M85,288.8c0.7-1.3,2-2,2.9-3.1c0.4-0.5,0.9-0.9,1.4-1.4c0.7-0.8,1-1.8,0.6-2.8
				c-0.4-1-1.4-1.5-2.5-1.3c-0.3,0-0.6,0-0.9,0c0.2-2.8,0.8-5.6,1.2-8.4c0.2-1.5,0.3-3.1,0.8-4.5c1.5,1.3,2.4,3.1,3.6,4.7
				c0.2,0.2,0.1,0.6,0.1,0.9c0,0.5,0,1-0.1,1.4c-0.9,6-1.8,12.1-2.7,18.1c-1,7-1.9,14-2.7,21c-0.3,3.1-0.7,6.2-1,9.3
				c-1.7-0.6-3.3-1.2-4.4-2.7c0-0.4,0-0.7,0-1.1c0.7-7.6,1.8-15.1,2.7-22.7C84.4,293.8,85,291.3,85,288.8L85,288.8z"/>
			<path id="path36" class="st2" d="M89.9,413.6c0-2.5,0-5,0-7.5c0-0.9,0.2-1.3,1.2-1.3c2.5,0.1,5,0.1,7.5,0c1,0,1.2,0.4,1.2,1.3
				c0,5.1,0,10.2,0,15.3c0,0.8-0.2,1.2-1.1,1.1c-2.6-0.1-5.1-0.1-7.7,0c-0.9,0-1.1-0.3-1.1-1.1C90,418.7,89.9,416.2,89.9,413.6
				L89.9,413.6z"/>
			<path id="path38" class="st1" d="M355.4,253.1c-8.9,2.1-16.3,6.6-22,13.9C336.1,258.7,342.9,252.7,355.4,253.1L355.4,253.1z"/>
			<path id="path40" class="st1" d="M269.3,311.9c1.4-0.7,2.7-1.6,4-2.5c0.4-0.3,0.8-0.4,1.3-0.4c-0.5,3.7-1,7.5-1.8,11.2
				c-1.5-1.1-3-0.7-4.6-0.4c-0.1-0.7,0.1-1.3,0.2-2C268.7,315.9,269,313.9,269.3,311.9L269.3,311.9z"/>
			<path id="path42" class="st1" d="M495.3,262.2c1.9,0.4,3.2,1.1,4.4,2.2c1.3,1.2,2.3,2.6,3.3,4.1c0.1,0.2,0.3,0.4,0.3,0.6
				c0.1,2.8-0.2,5.5-2.2,7.8c0.2-1.4,0.2-2.9,0.5-4.3c0.6-2.5-0.3-4.6-1.9-6.4C498.4,264.7,496.9,263.6,495.3,262.2L495.3,262.2z"/>
			<path id="path44" class="st1" d="M488.4,267.5c1.9-1.9,3.3-1.8,4.3,0.4c1.3,2.7,1.6,5.7,1.7,8.7c-0.6-0.2-0.6-0.7-0.7-1.1
				c-0.7-2.1-1.4-4.2-2.5-6.1C490.6,268.4,489.9,267.5,488.4,267.5L488.4,267.5z"/>
			<path id="path46" class="st1" d="M330.8,257.2c-3.1,3.3-5.4,6.5-4.9,11c-0.7,0-1.1-0.4-1.2-1c-0.2-1.2-0.4-2.4,0.4-3.5
				c0.5-0.6,0.8-1.3,1-2.1C326.7,259.2,327.9,258,330.8,257.2L330.8,257.2z"/>
			<path id="path48" class="st5" d="M121.5,5.8c0.3-0.1,0.4-0.2,0.5-0.2c4-1.1,3.1-1.2,6.1,0.8c7.7,5.1,14.9,10.9,22.2,16.6
				c16.2,12.7,32.1,25.7,47.5,39.3c1.9,1.7,3.7,3.6,5.7,5.3c1.2,1,1.6,2.2,1.5,3.8c-0.3,4.6-0.8,9.2-1.4,13.8
				c-0.9,7.3-2,14.6-3.1,21.9c-1.3,9.4-2.9,18.8-4.5,28.2c-1.6,9.4-3.2,18.8-5.3,28.1c-0.4,1.6-0.8,3.1-1.1,4.7
				c-0.3,1.7-1.3,2.8-2.9,3.6c-4.2,2-8.5,3.9-12.8,5.7c-23.1,9.6-46.4,18.6-70,26.7c-3.1,1-6.1,2-9.3,2.8c-1.1,0.3-1.9,0.1-2.9-0.5
				c-4.4-2.8-8.6-5.9-12.7-9.1c-19.4-14.8-38.4-30.2-56.8-46.2c-2.7-2.3-5.3-4.7-7.8-7.2c-0.7-0.7-1-1.5-1-2.5
				c0.1-4.6,0.7-9.2,1.3-13.8c1.1-8.6,2.3-17.2,3.6-25.8c1.2-8.2,2.6-16.5,4-24.7c1.6-9.5,3.2-18.9,5.3-28.3c0.4-1.9,1-3.8,1.4-5.8
				c0.3-1.1,0.9-1.9,1.9-2.4c1.4-0.6,2.7-1.3,4-2c0.7-0.4,1-0.2,1.3,0.5c1.5,3.7,3.1,7.4,4.6,11.1c3.6,8.8,7.3,17.6,10.9,26.4
				c1.6,3.9,4.4,6.5,8.6,7.5c2.5,0.6,5,0.2,7.4-0.7c6.8-2.7,13.6-5.4,20.4-8.1c13.8-5.5,27.6-11,41.4-16.5c0.7-0.3,1.5-0.6,2.1-0.9
				c5.2-2.8,7.4-8.8,5.2-14.5c-1.9-4.7-3.8-9.3-5.7-14c-3-7.3-6-14.6-9.1-21.9C122,7,121.8,6.4,121.5,5.8L121.5,5.8z M117.7,105.9
				c-9.6,0-17.4,7.6-17.4,17.1c0,9.4,7.7,17.1,17.2,17.2c9.7,0.1,17.6-7.7,17.5-17.2C134.9,113.6,127.2,105.9,117.7,105.9z"/>
			<path id="path50" class="st6" d="M109.1,48c-0.5-0.5-0.6-1-0.8-1.5c-3.1-7.7-6.1-15.5-9.2-23.2c-0.1-0.3-0.2-0.6-0.3-0.8
				c-0.2-0.5-0.1-0.9,0.5-1.1c0.6-0.2,1.1-0.4,1.7-0.7c2.9-1.1,5.8-2.3,8.7-3.4c1.3-0.5,1.3-0.5,1.8,0.7c3.2,8.1,6.4,16.1,9.6,24.2
				c0.2,0.5,0.5,1-0.3,1.3C116.8,44.9,112.9,46.5,109.1,48z"/>
			<path id="path52" class="st7" d="M215.3,203.1c4.2,3.3,8.5,6.6,12.7,10c14.1,11.2,28.2,22.4,41.8,34.3c0.2,0.2,0.4,0.3,0.6,0.4
				c1.7,1.8,3.4,3.6,5.2,5.4c0.6,0.6,1,1.3,1,2.2c-0.1,1.3-0.2,2.5-0.3,3.8c-0.4,5.7-1.2,11.4-1.8,17.1c-0.2,1-0.5,2-0.8,2.9
				c-2.4,6-3.6,12.3-4,18.7c-0.2,2.7-0.3,5.5-0.3,8.4c-0.9-0.3-1.2-0.9-1.6-1.4c-1.5-2.1-2.7-4.4-3.9-6.7c-1.4-2.8-2.8-5.6-4.3-8.3
				c-1.1-2-2.3-3.8-3.8-5.4c-1.6-1.7-3.6-2.7-6.1-2.6c-4.2,0.1-8.4,0-12.6-0.2c-5.7-0.3-10.8-1.9-15.6-4.9c-0.5-0.3-1-0.7-1.6-0.9
				c-1.1-0.4-1.9,0.4-1.8,1.5c0.1,0.4,0.2,0.8,0.4,1.2c1.8,4.6,4.8,8.3,8.9,11.1c0.3,0.2,0.7,0.4,1.1,0.6c1.6,0.7,2.1,0.6,3.2-0.8
				c0.7-0.9,1.5-1.9,2.4-3c0.7,2.4,2.6,2.8,4.2,3.5c1.7,0.8,1.7,0.8,1,2.5c-1.3,3.2-3.2,6-5.6,8.5c-3.9,4.1-8.6,7-13.7,9.5
				c-0.9,0.4-1.2,0.2-1.6-0.6c-3.3-7-7.3-13.6-12-19.8c-1.6-2.2-3.3-4.2-5.4-6c-0.8-0.6-1.6-1.3-2.7-1.4c-1.3-0.2-1.8,0.3-1.8,1.5
				c0,1.3,0.3,2.5,0.6,3.7c1.1,3.8,2.8,7.4,4.8,10.8c4.1,7.1,9.2,13.3,15.3,18.7c1.1,1,2.1,1.3,3.5,0.6c2.2-1,4.5-1.8,6.8-2.7
				c0.5-0.2,1.1-0.6,1.9-0.5c-0.1,1.9-0.8,3.7-1.3,5.5c-0.2,0.6-0.7,0.5-1.2,0.6c-5,1.1-10.1,2-15.2,2.8c-7.9,1.3-15.8,2.3-23.7,3.1
				c-5.1,0.5-10.1,1-15.2,1.5c-0.7,0.1-1.3-0.1-1.9-0.5c-18.7-11.4-37.1-23.4-54-37.6c-2.1-1.8-2.1-1.8-0.5-4c1.5-2,3.3-3.7,5.2-5.2
				c1.7-1.4,3.5-2.8,5.2-4.1c3-2.3,5.8-4.8,8.3-7.7c0.9-1,1-1.1,2-0.3c2.2,1.9,4.6,1.8,7.2,1.3c3.7-0.8,7.6-1.3,11.3-1.9
				c0.7-0.1,1.1,0,1.2,0.8c0.9,4.6,3.8,7.7,7.8,10c2.3,1.3,4.8,2.3,7.3,3c1.4,0.4,1.8,0.1,2.3-1.2c0.4-1.1,0.8-2.1,1.1-3.2
				c0.2-0.5,0.4-0.8,1-0.5c5.3,2.4,11,2.6,16.7,2.6c1.9,0,3.7,0,5.6,0c1.2,0,1.5-0.4,1.6-1.5c0.4-5.1-2.5-9.7-7.3-11.4
				c-1.9-0.7-3.8-1-5.8-1.2c-0.6-0.1-1.4,0-1.6-0.6c-0.2-0.7,0.3-1.4,0.8-1.9c0.7-0.6,1.5-0.9,2.4-1.1c3.1-0.8,6.3-0.8,9.5-1
				c2.3-0.1,4.7-0.1,7-0.1c1.9,0,2.5-0.8,1.9-2.6c-0.5-1.8-1.8-3-3.2-4c-2.6-1.8-5.6-2.9-8.7-3.7c-2-0.5-4.1-0.8-6.2-1
				c-2-0.1-2.5,0.2-2.5,2.2c0,1.3-0.1,2.6-0.4,3.9c-0.4,2-1.4,3.3-3.4,3.7c-0.4,0.1-0.8,0.2-1.2,0.4c-1.9,0.6-3,1.9-3.6,3.7
				c-0.2,0.6-0.3,1.3-0.5,2c-0.6-0.5-0.8-1.2-1-1.9c-0.7-1.7-1.3-3.4-2.1-5c-1.9-3.6-4.7-6-8.6-7.2c-1.7-0.5-2.3,0-2.3,1.8
				c0,1.3,0.5,2.4,0.8,3.8c-0.8-0.1-1.1-0.8-1.6-1.2c-0.8-0.9-1.7-1.7-2.4-2.6c-0.7-0.9-1.6-1.1-2.7-0.8c-4.6,1.1-8.8,3.2-12.2,6.6
				c-1.5,1.4-2.8,3-3.9,4.7c-0.6,0.9-1.2,1.1-2.2,0.9c-1.9-0.4-3.7-0.8-5.6-1.2c-0.4-0.4-0.1-0.7,0-1c1-2.3,2.1-4.6,3-6.9
				c0.3-0.9,0.8-1.1,1.6-0.9c1.6,0.3,3.2,0.6,4.8,0.9c1.6,0.3,1.9,0.2,2.7-1.3c1.2-2,1.9-4.3,2-6.6c0-0.9,0.4-1.2,1.2-1.4
				c4.2-0.8,8.1-2.5,11.5-5.3c1.1-0.9,2-2,2.8-3c0.3-0.1,0.4-0.1,0.4,0.1c0.8,2.2,0.8,2.1,3.1,2.1c6.5,0,12.1-2.2,16.5-7
				c0.9-1,1.8-1.9,2.7-2.9c0.5-0.5,0.8-1.1,0.4-1.8c-0.3-0.7-1-0.8-1.7-0.8c-1.7,0.1-3.4,0.3-5.3,0.2c0-1.1,0.7-1.7,1.2-2.4
				c0.6-0.9,1.3-1.7,1.6-2.8c0.3-1.5-0.3-2.3-1.9-2.2c-2.6,0.2-4.5,1.4-5.9,3.6c-0.7,1.1-1.2,2.3-1.7,3.6c-0.5,1.3-1,2.7-1.6,4
				c-0.3,0.7-0.6,1.4-1.4,2.1c-0.5-1.1-1-2.1-1.4-3c-0.4-1.1-1.1-1.5-2.2-1.3c-0.9,0.1-1.8,0.2-2.7,0.3c-0.3-0.5,0.1-0.8,0.4-1.1
				c3.9-4.8,8.7-8.5,14.4-11c1.5-0.7,3.1-0.8,4.7-0.5c2.1,0.3,4.1,0.9,6,1.7c0.8,0.3,1.2,0.6,0.6,1.5c-0.8,1.3-0.7,2.9-0.7,4.4
				c0,0.7,0.3,1.2,0.9,1.4c0.6,0.3,1.2,0,1.6-0.5c3.1-3.6,6.9-6.3,10.7-9c2.9-2,4.3-4.9,4.7-8.3c0.1-1.3,0.3-2.5,0.3-3.8
				c0-0.8,0.3-1.1,1-1c1,0,1.9,0,2.9,0C212.8,203.5,214.1,203.5,215.3,203.1L215.3,203.1z M226.1,264.2c0-0.2,0-0.6-0.1-0.9
				c-1.6-5.8-4.9-10.3-10.4-13c-1.3-0.6-2.7-0.9-4.2-1c-0.8-0.1-1.5,0.1-1.8,0.9c-0.3,0.7,0.1,1.2,0.6,1.7c0.5,0.5,1,1,1.5,1.6
				c2.5,2.9,4.2,6.2,4.5,10.1c0.1,1.7,0.3,1.8,1.9,1.9c2,0.2,4,0.4,6.1,0.5C225.6,266.2,226.1,265.7,226.1,264.2L226.1,264.2z"/>
			<path id="path54" class="st7" d="M169,198.9c3.6-1.3,7.2-2.5,10.8-3.8c4.6-1.6,9.3-3.2,14-4.6c1.9-0.6,3.4-0.4,5,0.8
				c2.2,1.7,4.5,3.2,6.8,4.7c-0.1,0.7,0.2,1.2,0.7,1.7c1.1,0.9,2.1,1.8,3.3,2.6c0.1,0.1,0.2,0.2,0.2,0.3c-1,0-1.9,0.1-2.9,0.1
				c-1.5,0.1-1.9,0.5-2,2c-0.1,2,0,4.1-0.4,6.1c-0.4,2.3-1.4,4.2-3.3,5.5c-2.1,1.5-4.3,3-6.5,4.8c-0.4-0.6-0.7-1.1-1.2-1.4
				c-3.5-2-7.2-3.3-11.2-3.5c-1.5-0.1-3,0.2-4.4,0.7c-6.8,2.9-12.4,7.2-16.7,13.2c-0.5,0.7-1,1.5-1.3,2.3c-0.6,1.3,0,2.1,1.4,2.1
				c0.7,0,1.4-0.2,2.2,0c-1.4,3.9-4.1,6.7-7.8,8.6c-0.6-1.5-0.6-3-0.8-4.4c-0.3-2.1-0.5-4.3-0.9-6.4c-0.3-2-1.3-2.4-3-1.2
				c-1.1,0.7-1.9,1.7-2.2,3c-0.2,1-0.7,1.2-1.6,1.3c-2.1,0.2-3.9,1.1-5.3,2.7c-0.7,0.9-1.2,1.9-1.5,3c-0.3,1.5,0.4,2.2,1.9,2
				c0.8-0.1,1.6-0.4,2.4-0.3c0.1,0.5-0.3,0.7-0.6,0.9c-0.7,0.5-1.3,1-1,1.9c0.3,1,1.2,0.9,1.9,0.9c0.1,0,0.2,0.1,0.3,0.1
				c0,1,0,2,0,3c0,1.2-0.3,2.4-0.8,3.5c-0.8,1.7-0.7,1.8-2.5,1.4c-1.6-0.4-3.2-0.6-4.8-0.9c-1.4-0.2-1.6-0.1-2.2,1.2
				c-1.6,3.5-3.1,7-4.6,10.5c-0.6,1.4-0.3,2,1.2,2.4c0.7,0.2,1.4,0.3,2.1,0.5c0.2,0.6-0.2,0.8-0.5,1.1c-2.3,2.7-5.1,5.1-7.9,7.3
				c-1.7,1.4-3.5,2.7-5.2,4.1c-2.6,2.1-5,4.4-6.9,7.3c-0.1,0.2-0.3,0.3-0.5,0.6c-4.4-3.8-8.5-7.9-12.3-12.2
				c-2.2-2.5-4.4-5.1-6.3-7.8c-0.4-0.6-0.7-1.2-0.7-2c0.1-0.6,0.3-1.3,0.4-1.9c1.1-6.6,2.3-13.2,3.4-19.8c0.5-3.1,1.4-6.1,1.7-9.2
				c2.2-1.1,4.5-1.9,6.9-2.5c3.3-0.9,5.9-2.5,7.9-5.4c1.6-2.3,3.8-4.3,5.9-6.2c1.3-1.3,2.7-2.6,4.5-3.2c1.4-0.3,2.7-1.1,4.1-1.6
				c0.4-0.1,0.8-0.5,1.3-0.3c0.1,0.7-0.6,1-1,1.4c-0.9,1.1-1.7,2.2-2.1,3.5c-0.2,0.6-0.1,1.2,0.4,1.6c0.5,0.4,1.1,0.4,1.7,0
				c0.2-0.1,0.3-0.2,0.5-0.3c6.4-4.2,13.5-5.9,21.1-5.9c1.2,0,2.2-0.3,3.2-0.9c5.3-3,10.6-6,15.9-9c0.4-0.2,0.7-0.4,1.1-0.6
				c0.9-0.6,1-1.2,0.5-2.1c-0.5-0.8-1.1-1.6-1.6-2.4C169,199.7,168.7,199.4,169,198.9L169,198.9z M146,222.9c1.5-0.2,3.4-0.2,5-1
				c1.4-0.7,2.4-1.8,2.4-3.5c0-0.8-0.3-1.4-1.1-1.6c-1.8-0.4-3.6-0.8-5.4-1.1c-1.1-0.2-1.4,0.1-1.8,1.2c-0.4,1.1-0.8,2.3-1.1,3.4
				C143.3,222.3,143.8,222.9,146,222.9z"/>
			<path id="path56" class="st7" d="M198,381.7c-3,0.8-5.8,2.1-8.8,3.1c-4.9,1.7-9.8,3.4-14.7,5.2c-0.3,0.1-0.7,0.3-1,0.4
				c-0.8,0.3-1.3-0.2-1.9-0.7c-2-2.1-3.7-4.5-5.3-7c-2.4-3.8-4.5-7.8-6.1-12c-0.9-2.4-0.8-4.7,0.8-6.6c2.8-3.4,2.4-7,1.2-10.7
				c-0.7-2.3-2.1-4.3-3.6-6.1c-1-1.1-2-2.3-2.9-3.4c-1.1-1.4-1.7-3-1.7-4.8c0-1.2-0.1-2.4-0.2-3.6c-0.1-0.7,0.1-1.1,0.9-1.1
				c5.1-0.1,10.2-0.6,15.3-1c0.9-0.1,1.5,0.4,2.1,0.8c7.5,4.4,15.1,8.6,22.8,12.5c4.7,2.4,9.5,4.6,14.3,6.7c1.4,0.6,1.4,0.6,1.4,2.1
				c0,2.1-0.1,4.2-0.1,6.3c0,1.9-0.7,3.4-2.3,4.4c-0.9,0.6-1.9,1.3-2.8,1.9c-3.2,2.2-4.9,5.2-5,9.1c0,0.2,0,0.5,0,0.7
				C200.3,379.5,199.6,380.9,198,381.7L198,381.7z"/>
			<path id="path58" class="st7" d="M169.2,391.8c-0.2,0-0.5,0-0.7,0.1c-2,0.9-3.7,0.4-5.5-0.8c-7-4.8-13.7-9.9-20.4-15
				c-16.8-13-33.4-26.3-49.5-40.2c-2.3-2-4.5-4-6.6-6.1c-0.4-0.4-1-0.7-0.8-1.5c4.3,1.9,8.8,3,13.4,3.9c8.1,1.6,16.2,2.2,24.4,2.6
				c8.3,0.4,16.6,0.2,25-0.1c0.4,0,0.8,0,1.3,0c0.9-0.1,1.3,0.2,1.3,1.2c0,1,0.1,2,0.1,3.1c0,2.5,0.7,4.7,2.3,6.7
				c1,1.3,2.2,2.6,3.2,3.8c2.2,2.5,3.4,5.4,3.7,8.8c0.1,1.2-0.1,2.3-0.8,3.2c-0.1,0.1-0.2,0.3-0.3,0.4c-2.7,3.4-3,7-1.3,10.9
				c2.8,6.4,6.1,12.5,10.7,17.8C169,390.8,169.7,391.1,169.2,391.8L169.2,391.8z"/>
			<path id="path60" class="st7" d="M269.3,311.9c-0.3,2-0.6,4-0.9,6c-0.1,0.6-0.2,1.3-0.2,2c-0.4,1.2-0.5,2.4-0.6,3.6
				c-0.1,0.5-0.3,1-0.4,1.6c-1.7,9.8-3.3,19.7-5.7,29.4c-0.3,0.7-1,1-1.6,1.4c-3,1.6-6.3,2.4-9.6,2.6c-4.9,0.3-9.7-0.2-14.5-1.2
				c-7.1-1.5-13.8-3.8-20.5-6.5c-1.4-0.6-1.2-0.6-1-1.8c0.8-4.9,2.7-9.2,6.4-12.5c1-0.9,2-1.9,3-2.9c1.9-1.9,3.6-3.9,4.7-6.3
				c0.7-1.5,1.7-1.9,3.1-2.3c6.6-1.5,13.1-3.2,19.6-5.4c5.9-2,11.7-4.3,17.2-7.2C268.5,312.1,268.8,311.8,269.3,311.9L269.3,311.9z"
				/>
			<path id="path62" class="st6" d="M85.7,322.7c0.4-3.1,0.7-6.2,1-9.3c0.8-7,1.7-14,2.7-21c0.9-6,1.8-12.1,2.7-18.1
				c0.1-0.5,0.1-1,0.1-1.4c0.4-0.3,0.6,0,0.9,0.3c5,6.4,10.8,12,16.9,17.4c0.6,0.6,0.8,1,0.5,1.9c-1.2,3.6-1.5,7.4-1.7,11.2
				c-0.1,2.8,0.3,5.5,1.2,8.1c1.2,3.7,3,7.1,5.4,10.1c1.1,1.4,2.3,2.6,3.7,3.6c1.9,1.3,3.9,2,6.2,2c5.2-0.1,10.4-0.1,15.6-0.1
				c2.5,0,2.5,0,3.7,2.4c-0.4,0.4-1,0.2-1.5,0.2c-9.2,0.4-18.3,0.2-27.5-0.5c-8.2-0.6-16.3-1.7-24.2-4.2c-1.5-0.5-3-1.1-4.5-1.7
				C86.6,323.4,86,323.2,85.7,322.7L85.7,322.7z"/>
			<path id="path64" class="st6" d="M236.3,284.5c4.8,0.2,9.4,0.1,14,0.1c1.2,0,2.1,0.5,2.9,1.2c1.1,1,2,2.2,2.8,3.5
				c1.2,1.8,2.2,3.7,3.2,5.6c2.2,4.4,4.3,8.8,7.3,12.9c-11.1,5.8-22.9,9.3-35.2,12.2c0.4-1.9,0.8-3.5,1.1-5.1
				c0.2-0.7,0.3-1.4,0.4-2.1c0.2-1.4-0.6-2-1.9-1.7c-0.5,0.1-1,0.4-1.5,0.6c-2.8,1.1-5.6,2.2-8.3,3.3c-1.7,0.7-1.7,0.7-3-0.8
				c6.6-2.7,12.6-6.2,17.6-11.4c3.3-3.4,5.7-7.2,7-11.8c0.5-1.7,0.4-2-1.3-2.8c-0.9-0.4-1.8-0.9-2.8-1.2
				C237.3,286.8,236.6,286,236.3,284.5L236.3,284.5z"/>
			<path id="path66" class="st6" d="M113.2,293.3c15.8,13.4,32.8,24.7,50,35.8c-2.4,0.1-4.7,0.3-7.1,0.4c-0.8,0-1.6,0-2.3,0.1
				c-1.3,0.1-2.6,0.2-3.8-0.6c0,0-0.1-0.1-0.2-0.1c-2.1-0.1-3.3-1.3-4.1-3.1c-0.5-1-1.3-1.3-2.3-1.3c-5.7,0.1-11.4,0-17.1,0.2
				c-3,0.1-5.4-0.9-7.3-3.1c-5.4-6-8.1-12.9-7.1-21.1C112.1,298.1,112.3,295.8,113.2,293.3L113.2,293.3z"/>
			<path id="path68" class="st6" d="M183.6,262.6c0,1-0.5,1.8-0.5,2.8c0,1.5,0.4,2.2,1.9,2.6c1.3,0.3,2.6,0.5,3.9,0.7
				c1.7,0.3,3.3,0.6,4.8,1.4c2.4,1.3,3.6,3.4,4,6c0.1,0.7-0.1,1-0.8,1c-4.8-0.1-9.6,0.2-14.3-0.8c-2.2-0.5-4.2-1.2-6.2-2.2
				c-1.5-0.8-2.1-0.5-2.7,1.1c-0.4,1.1-0.8,2.1-1.1,3.2c-0.2,0.6-0.5,0.9-1.2,0.7c-3.2-1.1-6.2-2.5-8.7-4.9
				c-1.9-1.8-2.9-4.1-3.1-6.7c-0.2-2.1-0.5-2.3-2.6-2c-4,0.6-7.9,1.3-11.9,1.9c-0.8,0.1-1.5,0.3-2.3,0.2c0-0.2,0-0.4,0.1-0.6
				c3.4-5.6,7.9-9.7,14.3-11.5c0.7-0.2,1.3-0.4,1.9,0.3c2.4,2.7,4.9,5.4,7.4,8.1c0.1,0.1,0.1,0.2,0.1,0.4c-0.9,0.6-1.9,0.5-2.9,0.6
				c-0.4,0.1-0.8,0-1.3,0.1c-0.6,0-1,0.4-1.2,1c-0.2,0.5,0,1,0.4,1.3c1.3,0.9,2.7,1.8,4.1,2.6c0.8,0.4,1.3-0.2,1.8-0.8
				c1.6-2,3.2-4,4.8-6c0.1-0.2,0.3-0.4,0.5-0.6c0.7,0.1,0.6,0.7,0.7,1.1c0.5,1.2,0.9,2.5,1.6,3.6c0.6,1.1,1.5,2,2.8,2.4
				c1.4,0.5,2.2,0,2.3-1.5c0-1.2,0.1-2.4,0.4-3.6C181.2,263.2,182,262.7,183.6,262.6L183.6,262.6z"/>
			<path id="path70" class="st6" d="M225.6,326.1c-0.6,1.4-1.3,2.3-2,3.2c-1.3,1.7-2.8,3.1-4.4,4.5c-4.2,3.7-6.7,8.2-7.6,13.7
				c-0.1,0.3-0.1,0.6-0.2,0.9c0,0.2-0.1,0.3-0.2,0.6c-10.9-4.7-21.4-10.2-31.7-16.3C194.9,331.1,210.1,329.2,225.6,326.1
				L225.6,326.1z"/>
			<path id="path74" class="st1" d="M281.1,260.6c-0.6,1.4-0.4,2.9-0.6,4.4c-1.3,12-3,24-4.7,36c0,0.2,0,0.5,0,0.7
				c-1,0.9-2.1,1.7-3.5,2.2c-0.3-1.7-0.4-3.4-0.1-4.9c0.4-1.8,0.3-3.7,0.5-5.5c0.5-3.4,1.2-6.8,2.2-10.1c0.6-1.9,0.7-3.9,1.1-5.8
				c0.3-1.5,0.1-1.6-1.6-1.4c0.6-5.7,1.4-11.4,1.8-17.1c0.1-1.3,0.2-2.5,0.3-3.8c0.4,0,0.9,0,1.1,0.4
				C278.8,257.4,280.2,258.9,281.1,260.6L281.1,260.6z"/>
			<path id="path76" class="st6" d="M214.1,375.4c-3.1,1.2-6.3,2.4-9.4,3.6c-0.6,0.2-1.1,0.4-1.7,0.6c0.1-1.3,0.1-2.5,0.3-3.8
				c0.4-2.3,1.5-4,3.3-5.3c1.1-0.8,2.2-1.5,3.3-2.2c2.2-1.5,3.4-3.6,3.3-6.4c0-2.2,0-4.4,0.3-6.8c3.7,1.4,7.3,2.7,11.1,4
				c-0.7,0.9-1.5,1.5-2.3,2.1c-1.5,1.3-3.1,2.7-4.7,3.9c-0.9,0.7-1.4,1.6-1.6,2.7c-0.4,1.9-0.8,3.9-1.2,5.8
				C214.7,374.3,214.7,375,214.1,375.4L214.1,375.4z"/>
			<path id="path80" class="st1" d="M99.1,233.8c-0.3,3.1-1.2,6.1-1.7,9.2c-1.1,6.6-2.3,13.2-3.4,19.8c-0.1,0.6-0.3,1.3-0.4,1.9
				c-0.4,0-0.7-0.2-0.9-0.5c-1-1.8-2.4-3.4-3-5.3c0.1-0.5,0.3-1,0.3-1.6c1.3-7.8,2.7-15.5,4.3-23.2c0.4-2,1.1-3.9,1.2-5.9
				c1-1.1,2.4-1.7,3.6-2.5c0.9-0.6,1.8-1.3,2.9-1.5c0.3,0.6-0.1,0.9-0.4,1.1c-0.8,0.5-1.4,1.2-2.2,1.8c-1,0.9-1.5,2-1.5,3.3
				c0,0.7-0.3,1.4-0.4,2.1C97.5,233.9,97.6,234,99.1,233.8L99.1,233.8z"/>
			<path id="path84" class="st1" d="M261.4,354.4c2.4-9.7,4.1-19.5,5.7-29.4c0.1-0.5,0.2-1,0.4-1.6c0.6,0,0.9,0.2,1,0.9
				c0.2,1.8,0.5,3.6,0.8,5.5c0.3,2.4,0.3,4.8,0.3,7.1c-0.1,4.8-1.1,9.5-4,13.5C264.5,352,263.5,353.8,261.4,354.4z"/>
			<path id="path86" class="st6" d="M216.3,312.7c-0.2-0.1-0.4-0.2-0.6-0.4c-6.4-6.5-11.6-13.9-15.1-22.4c-0.3-0.8-0.6-1.7-0.9-2.6
				c0-0.1,0-0.3,0.1-0.6c1.3,1.1,2.3,2.3,3.2,3.5c5.1,6.5,9.4,13.4,12.9,20.9c0.2,0.4,0.3,0.9,0.5,1.3
				C216.5,312.5,216.4,312.6,216.3,312.7L216.3,312.7z"/>
			<path id="path88" class="st6" d="M188.3,259.3c0.6-1.9,1.2-3.9,1.2-5.9c0-0.5,0.2-0.9,0.8-0.8c4.5,0.6,8.9,1.7,12.8,4.5
				c0.2,0.2,0.5,0.4,0.7,0.6c0.1,0.1,0.2,0.3,0.4,0.5c-0.6,0.4-1.3,0.3-1.9,0.3c-3.5,0.1-7.1,0.1-10.6,0.5
				C190.6,259.1,189.5,259.6,188.3,259.3L188.3,259.3z"/>
			<path id="path90" class="st6" d="M243.9,363.1c-1.3,0.9-2.9,1.4-4.4,2c-3.8,1.6-7.5,3.1-11.3,4.6c0.4-2,1.3-4,1.5-6
				c0.1-0.6,0.2-1.2,0.3-1.8c0.2-1.2,0.2-1.2,1.4-0.9C235.5,362,239.7,362.8,243.9,363.1L243.9,363.1z"/>
			<path id="path92" class="st6" d="M223.6,371.7c-1.5,0.5-2.9,1.1-4.4,1.6c-0.5,0.2-1.1,0.6-1.7,0.3c-0.2-1.1,0.7-1.9,0.7-3
				c0.1-2.1,1.1-3.6,2.8-4.9c1.8-1.3,3.5-2.9,5.2-4.4c0.3-0.3,0.6-0.5,1.2-0.9c-0.3,3.5-1.2,6.5-2.5,9.5
				C224.6,370.7,224.3,371.4,223.6,371.7L223.6,371.7z"/>
			<path id="path94" class="st8" d="M178.1,224.3c0.4,0.5-0.1,0.9-0.3,1.3c-0.6,1-0.9,2.1-1,3.3c-0.1,1.4,0.4,2,1.9,2
				c1.1,0,2.2-0.1,3.4,0c-2.9,3.3-6.1,5.8-10.6,6.3c-0.2-0.6,0.3-0.8,0.6-1.1c1.2-1.3,1.9-2.8,2.5-4.3c0.5-1.3,1-2.6,1.5-3.9
				C176.5,226.5,177.3,225.4,178.1,224.3L178.1,224.3z"/>
			<path id="path96" class="st8" d="M114.2,221.2c-1.6,1.9-3.2,3.9-4.8,5.8c-0.2,0.3-0.6,0.4-0.9,0.5c-2.5,0.9-5.1,1.8-7.6,2.6
				c-0.2,0.1-0.3,0-0.5,0c-0.2-0.5,0.2-0.8,0.4-1c2.2-2.5,4.6-4.7,7.8-5.8c1.9-0.7,3.5-1.7,5.4-2.3
				C114.1,221.1,114.2,221.2,114.2,221.2L114.2,221.2z"/>
			<path id="path98" class="st8" d="M222.9,281c3,1.4,6.1,2.4,9.5,3c-1,1.3-1.8,2.4-2.6,3.4c-0.2,0.3-0.5,0.3-0.8,0.1
				C226.5,285.9,224.5,283.7,222.9,281L222.9,281z"/>
			<path id="path100" class="st8" d="M149.3,240.8c1.6-2.1,1.8-4.7,2.1-7.4c0.7,1.4,0.5,2.9,0.9,4.3c0.1,0.2,0,0.5,0.1,0.7
				c0.3,2.3,0.3,2.3-2,2.5C150.1,241,149.8,241.1,149.3,240.8L149.3,240.8z"/>
			<path id="path102" class="st8" d="M172.4,260.8c-3.1-1.6-4.6-3.1-5.6-5.6C168.8,255.4,171.2,257.7,172.4,260.8z"/>
			<path id="path104" class="st7" d="M164,232.4c0.4,0,0.6-0.1,0.8-0.1c2.1-0.1,1.6-0.3,2.5,1.5c0.5,1.1,1,2.2,1.5,3.2
				c0,0,0,0.1,0,0.2c-1.8,0.3-1.8,0.3-2.3-1.3c-0.2-0.6-0.3-1.1-0.5-1.7C165.4,233.2,165.4,233.2,164,232.4L164,232.4z"/>
			<path id="path106" class="st8" d="M144.1,238c0.3-0.3,0.5-0.6,0.7-0.7c0.2-0.2,0.5-0.3,0.9-0.5C145.6,237.8,145,238,144.1,238z"
				/>
			<path id="path108" class="st8" d="M168.7,262.3c0.2-0.2,0.5-0.2,0.7,0c0,0,0,0.1,0,0.2C169.1,262.7,169,262.4,168.7,262.3
				C168.7,262.3,168.7,262.3,168.7,262.3z"/>
			<path id="path110" class="st9" d="M209.8,200.6c-0.1-0.1-0.2-0.2-0.2-0.3C209.7,200.3,209.8,200.4,209.8,200.6z"/>
			<polygon id="polygon112" class="st8" points="168.4,261.9 168.4,261.9 168.4,261.8 			"/>
			<path id="path114" class="st8" d="M168.4,261.9c0.2,0,0.6-0.1,0.3,0.4c0,0,0,0,0,0C168.6,262.2,168.6,262,168.4,261.9
				C168.4,261.9,168.4,261.9,168.4,261.9L168.4,261.9z"/>
			<path id="path116" class="st6" d="M183.6,262.6c-0.1-0.1-0.1-0.2,0-0.2c0,0,0.1,0,0.1,0.1C183.8,262.6,183.7,262.6,183.6,262.6
				C183.6,262.6,183.6,262.6,183.6,262.6L183.6,262.6z"/>
			<path id="path118" class="st6" d="M188.3,259.3c0.1,0.1,0.1,0.2,0,0.2c0,0,0-0.1,0-0.1C188.1,259.2,188.1,259.5,188.3,259.3
				C188.3,259.3,188.3,259.3,188.3,259.3L188.3,259.3z"/>
			<path id="path120" class="st7" d="M164.8,257.7c0,0-0.1,0.1-0.1,0.1c0,0-0.1-0.1-0.1-0.1c0,0,0.1-0.1,0.1-0.1
				C164.8,257.6,164.8,257.6,164.8,257.7L164.8,257.7z"/>
			<path id="path122" class="st7" d="M145.4,240.8c0,0-0.1,0.1-0.1,0.1c0,0-0.1-0.1-0.1-0.1c0,0,0.1-0.1,0.1-0.1
				C145.3,240.7,145.4,240.8,145.4,240.8z"/>
			<path id="path124" class="st8" d="M178.1,224.3c0.1,0,0.1,0,0.2,0.1C178.2,224.3,178.2,224.3,178.1,224.3
				C178.1,224.3,178.1,224.3,178.1,224.3L178.1,224.3z"/>
			<path id="path126" class="st8" d="M114,221.1c0.1-0.1,0.3-0.3,0.4-0.1c0.1,0.2-0.1,0.2-0.2,0.3
				C114.2,221.2,114.1,221.1,114,221.1L114,221.1z"/>
			<path id="path128" class="st6" d="M216.5,312.5c0.1,0.1,0.2,0.3,0.1,0.4c-0.2,0.1-0.2-0.1-0.3-0.2
				C216.4,312.6,216.5,312.5,216.5,312.5L216.5,312.5z"/>
			<path id="path130" class="st10" d="M391.4,305.2c-2.4,1.2-4.8,2.3-7.2,3.5c-0.7,0.4-1.5,0.4-2.3,0.3c-0.9-0.1-1.3,0.3-1.5,1.1
				c-0.1,0.4-0.4,0.7-0.4,1.2c0.1,0.7-0.3,1.1-0.7,1.5c-2.6,2.2-3.6,5-3.3,8.5c0.3,3.2,0.4,6.5,2.2,9.3c0.3,0.4,0.3,0.8,0,1.1
				c-1.5,2-3.1,3.5-6,3.7c-9.5,0.4-18.3-1.8-26.2-7.2c-1.4-0.9-2.2-2-2.6-3.6c-2.5-9.3-2.9-18.7-1-28.1c1-5,1.9-10,3.5-14.9
				c0.6-1.9,1.2-3.8,2.2-5.5c0.4-0.8,0.9-1.5,1.4-2.3c1.2-1.6,2.7-2.2,4.7-1.8c3.9,0.7,7.5,2,10.8,4.1c4.7,2.9,8.7,6.7,12.5,10.8
				c5,5.5,9.4,11.5,13.6,17.7C391.2,304.7,391.3,304.9,391.4,305.2L391.4,305.2z"/>
			<path id="path132" class="st10" d="M443.9,335.5c0.1-0.4,0.3-0.5,0.6-0.7c1-0.7,1.2-1.7,1.2-2.8c0-2.9-0.4-5.7-1-8.6
				c-0.5-2.2-0.9-4.5-0.9-6.8c0-1.6-0.8-2.9-1.3-4.3c-0.3-0.8-0.9-0.5-1.4-0.4c-3.4,0.5-6.7-0.2-9.9-1.3c-0.2-0.1-0.4-0.2-0.6-0.4
				c0.4-1.6,1.3-2.9,2.3-4.3c3.5-4.9,8-8.5,13.2-11.5c7.3-4.2,15.1-6.8,23.3-8.6c1.2-0.3,2.5-0.4,3.7-0.7c0.9-0.2,1.3,0.1,1.6,0.9
				c1.6,4,2.8,8.1,4,12.3c1.9,6.4,1.9,12.9,1.3,19.4c-0.3,3.2-0.9,6.3-1.6,9.4c-0.2,1.1-0.6,2-1.6,2.7c0,0-0.1,0.1-0.1,0.1
				c-6.1,6.6-14.1,8.2-22.6,8.2C450.4,338.2,447,337.3,443.9,335.5L443.9,335.5z"/>
			<path id="path134" class="st10" d="M413.6,318.3c0.1,1.2-0.2,2.4-0.7,3.5c-0.9,2.1-1.8,4.2-3.1,6.1c-1.4,2.1-3.2,3.8-5.7,4.8
				c-1.6,0.6-3,1.5-4.4,2.4c-2,1.4-4.1,1.7-6.5,1.1c-2.4-0.6-4.8-1.3-7.1-2.5c-1.6-0.9-3-1.9-4.2-3.3c-1.1-1.3-1.9-2.8-2-4.7
				c0-2.6-0.6-5.1-0.3-7.7c0.2-2,1-3.6,2.7-4.8c2.2-1.5,4.5-2.7,6.9-3.7c2.7-1.1,5.4-2.2,8.1-3.3c1.2-0.5,2.3-1,3.3-1.7
				c3-1.9,6.7-1.5,8.6,1.5C411.8,309.6,413.4,313.7,413.6,318.3L413.6,318.3z M391.3,314.8c-0.5,0.9-0.6,1.9-1.3,2.3
				c-1.5,0.9-0.9,2.3-0.9,3.5c0,0.3,0.2,0.5,0.5,0.7c0.9,0.4,1.8,0.9,2.8,1.3c1.8,0.6,3.3-0.2,3.8-2.1c0.5-1.7-0.4-3.1-1.2-4.5
				c-0.1-0.3-0.4-0.4-0.8-0.4C393.2,315.8,392.4,315.2,391.3,314.8L391.3,314.8z"/>
			<path id="path136" class="st10" d="M414.1,309.9c1.5,0.5,2.7,0.9,3.9,1.3c2.7,1,5.5,1.6,8.4,1.8c2.1,0.1,4.2,0.6,6.1,1.3
				c1.9,0.8,3.7,0.5,5.6-0.3c1.2-0.5,1.4-0.5,2.2,0.5c0.4,0.5,0.8,1.1,0.9,1.8c0.6,4.3,1.6,8.5,1.6,12.8c0,1.3,0,2.5-0.4,3.7
				c-0.3,0.9-0.8,1.7-1.6,2.3c-0.7,0.5-1.4,1-1.9,1.6c-0.9,1-1.9,1.1-3.1,1.1c-1.5-0.1-2.9-0.7-4.3-1.3c-1-0.5-1.9-0.6-2.9-0.4
				c-1.4,0.3-2.8,0.4-4.3,0.7c-0.9,0.1-1.8,0-2.7-0.1c-1.3-0.2-2.3-0.9-2.8-2.2c-1.2-3-2.4-6-4.4-8.6c-0.2-0.3-0.4-0.6-0.1-1
				c2.2-2.8,1.4-5.9,1.1-9C415.3,314,414.7,312.1,414.1,309.9L414.1,309.9z M421.4,327.5c1.2,1.1,1.6,1.2,2.9,1.1
				c0.6,0,1.2-0.1,1.8-0.2c3.1-0.6,3.7-1.6,2.8-4.7c-0.3-1.2-1-2-2.4-2.1c-1-0.1-1.9-0.1-2.8-0.6c-0.4-0.2-0.7-0.1-1,0
				c-2.1,1.1-2.5,3.5-1,5.2c0.2,0.2,0.3,0.3,0.5,0.6C422,327,421.8,327.2,421.4,327.5z"/>
			<path id="path138" class="st8" d="M374.8,350.8c5.1,1.8,10.3,2.9,15.6,3.7c9.7,1.6,19.5,2.1,29.4,1.4c8.2-0.6,16.1-2.2,23.8-5.2
				c0.7-0.3,1.2-0.3,1.7,0.4c0.3,0.4,0.6,0.7,1,1.1c1.2,1.4,1.5,3.2,0.6,4.8c-0.3,0.6-0.8,0.8-1.4,1c-2.1,0.7-4.2,1-6.3,1.3
				c-3.8,0.7-7.7,1.2-11.3,2.7c-0.4,0.2-0.8,0.2-1.2,0.2c-8.3,0.4-16.7,0.5-25,0.2c-4.7-0.2-9.5-0.4-14.2-0.9
				c-2.6-0.3-5.2-0.7-7.8-1.3c-0.8-0.2-1.4-0.6-1.8-1.3c-0.7-1.1-1.4-2.2-2.1-3.4C374.9,354.1,374.5,352.6,374.8,350.8L374.8,350.8z
				"/>
			<path id="path140" class="st8" d="M442.1,342.3c-0.3,0.2-0.6,0.3-0.8,0.4c-3.6,1.4-7.3,2.7-10.9,4.1c-4.5,1.8-9.3,2.3-14.1,2.4
				c-6.3,0.2-12.6,0.4-18.9-0.3c-6.6-0.8-13.1-2-19.5-4c-0.4-0.1-0.8-0.3-1.2-0.4c-2.2-0.9-2.3-1.1-1.6-3.3c0.6-2,1.5-2.7,3.4-2.3
				c3.1,0.7,6.1,1.6,9.2,2.4c7.6,2,15.4,2.3,23.2,2.3c9.7-0.1,19.1-1.5,28.2-4.6c1.3-0.4,1.3-0.4,1.9,0.9
				C441.3,340.7,441.7,341.5,442.1,342.3L442.1,342.3z"/>
			<path id="path142" class="st8" d="M441.2,365.3c-2.7,3.1-5.4,5.7-9.2,7c-1.9,0.7-3.9,0.7-5.8,0c-0.7-0.3-1.3-0.2-1.9-0.1
				c-2,0.5-4.1,1-6,1.8c-3.4,1.3-6.9,1.6-10.6,1.2c-2.7-0.3-5.4-0.4-8.1-0.1c-0.6,0.1-1.1,0-1.5-0.3c-0.8-0.4-1.6-0.8-2.4-1.3
				c-2.3-1.5-4.8-2.7-7.5-3.4c-1.3-0.3-2.5-0.8-3.6-1.6c-0.5-0.3-1.2-0.7-1.3-1.4c0.6-0.5,1.4-0.3,2.1-0.3c4.4,0.3,8.7,1.1,13,1.7
				c5.7,0.9,11.3,1.1,17,0.1c2.1-0.4,4.3-0.5,6.4-0.5c6.1-0.2,12.2-1,18-2.8C440.2,365.2,440.6,365.1,441.2,365.3L441.2,365.3z"/>
			<path id="path144" class="st8" d="M396.9,339.1c2.9-0.6,5.4-1.9,7.8-3.6c2.3-1.6,4.8-2.9,6.8-5.2c1.3,0.8,2.2,2,3,3.2
				c1.7,2.8,1.7,2.8,4.1,4.3c-1.5,1-3.1,1.3-4.7,1.6C408.2,340.3,402.6,339.9,396.9,339.1z"/>
			<path id="path146" class="st4" d="M225.7,186.7c-0.7-0.1-1.3-0.2-1.8-0.6c-4.1-3.6-8.3-7-12.2-10.8c-0.8-0.8-1.2-1.7-1.2-2.8
				c0.1-4.5,0.5-9,1-13.4c0.7-6.8,1.5-13.6,2.4-20.4c0.9-7.4,1.9-14.9,3-22.3c1.2-8.2,2.5-16.3,3.8-24.5c0.9-5.7,2-11.3,3.2-16.9
				c0.4-1.9,1.3-3,3-3.9c5.6-2.8,11.4-5.4,17.1-7.9c12.1-5.3,24.3-10.2,36.5-15.2c0.3-0.1,0.6-0.3,1-0.5c0.8,0,0.9,0.7,1.2,1.2
				c2.5,4.1,4.7,8.3,6.7,12.7c2.7,6.2,4.7,12.5,5.6,19.3c0.2,1.3-0.1,2.3-0.9,3.3c-2.1,2.5-2.1,4.7,0.1,7.2c0.5,0.6,1.2,1.2,1.7,1.8
				c0.4,0.5,1,0.8,1.1,1.6c-0.8,0.8-1.8,1.2-2.7,1.7c-2.2,1.2-4.3,2.6-6.1,4.4c-1.4,1.4-1.2,1.3-2.4-0.2c-3.5-4.5-7.5-8.4-12.2-11.7
				c-2.3-1.7-4.4-3.8-6.2-6c-3.3-4.1-6.4-8.4-9.2-12.9c-0.3-0.4-0.5-0.8-0.8-1.2c-0.4-0.4-0.9-0.3-1,0.4c-0.2,1,0.1,2,0.5,3
				c0.8,2.5,2.1,4.8,3.5,7.1c3.4,5.4,7.6,10.2,12.6,14.2c3.4,2.8,6.4,5.9,8.9,9.5c2,2.9,2.5,5.9,2,9.2c-0.4,2.3-0.8,4.6-0.6,7
				c0.2,2.9-0.2,5.5-2.1,7.8c-0.1,0.2-0.3,0.4-0.3,0.6c-0.6,1.8-1.2,1.5-2.4,1c-2.3-0.9-4.6-1.9-7.1-2.7c-3.1-0.9-6.2-1.5-9.4-1.3
				c-1.1,0.1-1.9,0.5-2.6,1.4c-1,1.5-2.1,2.9-3.2,4.4c-8.6,11.6-18.5,22.1-30.6,30.1c-3,2-6.1,4-9.3,5.8c-1.4,0.8-2.8,1.6-4,2.8
				c-0.4,0.4-0.7,0.8-0.5,1.4c0.2,0.6,0.8,0.8,1.2,0.8c0.8,0.1,1.6,0.1,2.5-0.2c5.5-1.7,10.6-4.3,15.4-7.5c6.6-4.4,12.6-9.6,18-15.4
				c4.3-4.7,8.1-9.7,11.7-14.9c1.3-1.8,3.8-2.6,5.9-1.7c3,1.3,5.9,2.5,8.6,4.4c2.6,1.8,3,3.2,2.2,6.2c-0.2,0.9-0.5,1.8-0.7,2.7
				c-0.1,0.4-0.5,0.7-0.8,0.9c-5.6,4-11.2,8-16.8,12c-6.8,4.9-13.5,9.7-20.3,14.6c-1.5,1.1-3,2.1-4.5,3.3c-1.4,1.1-1.4,1.3-0.3,2.7
				c0.4,0.5,0.6,0.9,0.6,1.4c-0.9,0.6-1.8,1.3-2.6,1.9C230,183.6,227.8,185.2,225.7,186.7L225.7,186.7z"/>
			<path id="path148" class="st1" d="M393.7,157c0.3,0.6,1,0.6,1.4,1c0.7,0.5,1.2,1.1,1.1,2.1c-0.2,1.3-0.3,2.7-0.5,4.1
				c-1.1-0.4-2-0.7-2.9-1c-0.4-0.6-1.1-0.7-1.7-1c-2.6-1.3-5-2.8-7.4-4.5c-6.4-4.6-12.2-9.8-17.6-15.6c-3-3.2-5.7-6.7-8.3-10.1
				c-1.9-2.5-3.2-2.9-6.2-2c-3.3,1-6.1,2.9-8.8,5.1c-1.9,1.5-2.5,3.3-1.7,5.6c0.2,0.5,0.3,1,0.4,1.6c1.2,4.9,2.4,9.8,2.8,14.8
				c0.2,2.5,1.1,2.5,3,2.1c0.1,0,0.2-0.1,0.3-0.1c3.9-0.9,8-1.1,12-0.9c3.2,0.1,6.3,1.9,7.1,5.7c0.6,2.7,1.1,5.4,1.3,8.1
				c0.8,11.7,0.8,23.5-0.8,35.2c-0.3,0.7-0.1,1.5-0.2,2.3c0,0.6-0.2,1-0.7,1.3c-1.4,0.7-2.9,1.3-4.5,1.7c-0.4-0.9-0.1-1.7-0.3-2.5
				c0.1-1.6,0-3.2,0.2-4.8c0.5-4.4,0.9-8.7,1.1-13.1c0.2-5.5,0.1-10.9-0.5-16.3c-0.3-2.4-1.2-4.6-2.8-6.5c-0.8-0.9-1.7-1.4-3-1.1
				c-2.5,0.5-5.1,0.9-7.6,1.5c-4,1-4.3,1.4-4.5,5.5c-0.1,3.2-0.1,6.4,0,9.5c0.1,12-1.4,23.7-5.9,34.9c-0.1,0.1-0.2,0.2-0.2,0.3
				c-0.3,2.3-1.9,3.2-3.8,4c-12.4,4.9-24.7,9.8-37.1,14.7c-0.9,0.4-1.8,0.6-2.7,1c-0.9,0.4-1.6,0.2-2-0.6c-0.9-1.5-2-2.2-3.7-1.5
				c-0.2,0.1-0.5,0-0.7,0c-1.1-0.4-1.9-1.2-2.7-2c-0.5-0.4-0.3-1-0.3-1.5c1.6,0,2.3-1.2,3-2.2c0.6-0.9-0.4-1.6-0.7-2.4
				c-0.1-0.2-0.2-0.4-0.4-0.6c-6.5-10.8-9.7-22.6-10.9-35c-0.5-5.3-0.6-10.7-0.8-16c0-1.1,0.3-1.7,1.2-2.4
				c23.2-16.7,46.3-33.3,69.4-50c0.5-0.4,1.1-0.8,1.7-1c2.2-0.7,4.4-1.2,6.7-1.4c1.5-0.2,2.7,0.2,3.7,1.3c1.4,1.5,2.7,3.2,4,4.8
				c8.5,10.6,18.3,19.8,29.6,27.3C392.5,156.5,393,157,393.7,157L393.7,157z"/>
			<path id="path150" class="st11" d="M393.7,157c-0.7,0-1.2-0.5-1.7-0.9c-11.4-7.5-21.1-16.7-29.6-27.3c-1.3-1.6-2.6-3.3-4-4.8
				c-1-1.1-2.3-1.5-3.7-1.3c-2.3,0.2-4.5,0.8-6.7,1.4c-0.6,0.2-1.2,0.6-1.7,1c-23.1,16.7-46.3,33.4-69.4,50
				c-0.9,0.6-1.2,1.3-1.2,2.4c0.2,5.3,0.3,10.7,0.8,16c1.2,12.4,4.4,24.2,10.9,35c0.1,0.2,0.3,0.4,0.4,0.6c0.3,0.8,1.3,1.6,0.7,2.4
				c-0.7,1.1-1.5,2.3-3,2.2c-7.5-6-15.5-11.4-23.1-17.3c-0.6-0.5-1.4-0.9-2.1-1.3c-0.2-3.2-0.5-6.3-1-9.5
				c-0.8-5.2-1.6-10.4-1.6-15.7c0-0.2,0.1-0.5-0.4-0.6c-1.5,1-3,2.2-4.6,3.3c-0.5,0.4-0.5,0.9-0.5,1.4c0.1,2.4,0.3,4.8,0.7,7.2
				c0.4,3,1.1,5.9,1.2,8.9c-4.1-2.9-7.9-6.1-11.9-9.2c-0.8-0.6-1.7-1.3-2.5-2c-0.3-0.2-0.6-0.5-1-0.3c0-0.2-0.2-0.5,0.2-0.6
				c0.6-0.2,1-0.6,1.5-1c47.7-34.4,95.3-68.7,143-103.1c2.2-1.6,4.4-3.2,6.6-4.7c0.5-0.3,0.9-0.8,1.6-0.4c2.2,2,4.4,4.1,6.7,6
				c1.8,1.5,2.4,3.2,2.2,5.5c-0.6,9.7-1.8,19.3-3,28.9C396.3,138.4,395,147.7,393.7,157L393.7,157z"/>
			<path id="path152" class="st1" d="M391.6,88.7c-0.7-0.5-1.1,0.1-1.6,0.4c-2.2,1.6-4.4,3.2-6.6,4.7
				c-47.7,34.4-95.3,68.7-143,103.1c-0.5,0.3-0.9,0.8-1.5,1c-0.3,0.1-0.2,0.4-0.2,0.6c-0.9,0.4-1.6,0.2-2.4-0.5
				c-2.7-2.3-5.5-4.4-8.2-6.6c-1-0.8-1.9-1.6-2.9-2.3c-1.1-0.9-1.1-1,0.1-1.8c0.2-0.1,0.3-0.3,0.4-0.6c2.1-1.6,4.2-3.2,6.3-4.7
				c0.9-0.6,1.8-1.3,2.6-1.9c1.6-0.6,2.9-1.9,4.3-2.9c45.6-32.8,91.2-65.7,136.8-98.6c0.6-0.4,1.4-0.8,1.8-1.5c0.1,0,0.2,0,0.4,0
				c0.7-0.1,0.9-1.2,1.6-0.9c0.6,0.2,1,0.9,1.5,1.3c3,2.3,6,4.7,9,7c0.8,0.6,1.3,1.4,2.2,1.8c0.6,0.3,0.5,0.8,0.1,1.2
				C391.9,87.8,391.6,88.2,391.6,88.7L391.6,88.7z"/>
			<path id="path154" class="st1" d="M276.9,145.1c0.2-0.9,0.4-1.8,0.7-2.7c0.8-3,0.3-4.4-2.2-6.2c-2.7-1.9-5.6-3.1-8.6-4.4
				c-2.1-0.9-4.6-0.1-5.9,1.7c-3.7,5.2-7.4,10.2-11.7,14.9c-5.4,5.9-11.4,11-18,15.4c-4.8,3.2-9.9,5.7-15.4,7.5
				c-0.8,0.3-1.7,0.3-2.5,0.2c-0.5,0-1-0.2-1.2-0.8c-0.2-0.6,0.1-1,0.5-1.4c1.2-1.2,2.5-2,4-2.8c3.2-1.8,6.2-3.8,9.3-5.8
				c12.1-8.1,22-18.5,30.6-30.1c1.1-1.4,2.1-2.9,3.2-4.4c0.6-0.9,1.5-1.3,2.6-1.4c3.2-0.3,6.3,0.4,9.4,1.3c2.4,0.7,4.7,1.7,7.1,2.7
				c1.2,0.5,1.8,0.8,2.4-1c0.1-0.2,0.2-0.5,0.3-0.6c1.9-2.3,2.3-4.9,2.1-7.8c-0.2-2.3,0.2-4.7,0.6-7c0.5-3.3,0-6.4-2-9.2
				c-2.5-3.7-5.5-6.8-8.9-9.5c-5-4.1-9.1-8.8-12.6-14.2c-1.4-2.2-2.7-4.6-3.5-7.1c-0.3-1-0.6-1.9-0.5-3c0.1-0.6,0.6-0.8,1-0.4
				c0.3,0.3,0.6,0.7,0.8,1.2c2.8,4.5,5.9,8.8,9.2,12.9c1.8,2.3,3.8,4.3,6.2,6c4.6,3.3,8.6,7.2,12.2,11.7c1.2,1.5,1,1.6,2.4,0.2
				c1.8-1.8,3.9-3.2,6.1-4.4c0.9-0.5,1.9-0.9,2.7-1.7c-0.1-0.8-0.7-1.1-1.1-1.6c-0.6-0.6-1.2-1.2-1.7-1.8c-2.1-2.5-2.2-4.7-0.1-7.2
				c0.9-1,1.1-2,0.9-3.3c-0.8-6.7-2.9-13.1-5.6-19.3c-1.9-4.4-4.2-8.6-6.7-12.7c-0.3-0.5-0.4-1.2-1.2-1.2c0-0.1,0-0.2,0-0.4
				c-0.5-2-0.4-1.9,1.5-2.5c0.6-0.2,1-0.1,1.3,0.4c0.2,0.4,0.6,0.7,0.9,1.1c0.1,0.6,0.5,1,0.7,1.4c2.9,4.7,5.6,9.5,7.7,14.6
				c2.3,5.4,3.9,11.1,4.8,16.9c0.4,2.4,0.5,2.4,2.7,2c4.9-0.9,9.8-1.3,14.8-0.1c1,0.2,1.4-0.1,1.7-1.1c0.1-0.4,0.2-0.8,0.2-1.2
				c0.4-3.4,1.1-6.7,2-10c2.5-8.9,6.4-17.1,11.1-25.1c0.3-0.6,0.9-1,0.8-1.8c1.7-0.4,2.7,0.3,3,2.2c-0.5,0.1-0.6,0.5-0.8,0.9
				c-5,8.7-9,17.7-11.2,27.5c-0.6,2.9-1.3,5.7-1.3,8.7c0,1,0.2,1.8,1.1,2.4c1.6,1.1,2.1,3.3,1.3,5.1c-0.7,1.5-1.6,2.8-2.8,3.9
				c-0.5,0.4-1.1,0.8-1.2,1.6c0.9,0.5,1.9,1,2.8,1.5c2.2,1,4.2,2.2,6,3.9c0.2,0.2,0.5,0.4,0.7,0.6c0.6,0.5,1,0.5,1.5-0.1
				c0.7-0.9,1.5-1.7,2.2-2.6c2.8-3.5,5.9-6.8,9.5-9.5c2-1.5,3.7-3.2,5.2-5.2c3.2-4.2,6.2-8.5,8.9-13.1c0.5-0.8,1.1-1.6,1.6-2.4
				c0.1-0.2,0.3-0.4,0.6-0.3c0.4,0.1,0.4,0.4,0.4,0.7c0,1.3-0.3,2.5-0.7,3.7c-1.1,3.2-2.8,6.2-4.7,9.1c-2.9,4.4-6.4,8.3-10.4,11.9
				c-3.4,3.1-6.5,6.4-8.7,10.5c-0.5,0.9-1.1,1.6-2,2.3c-9.2,6.6-18.3,13.2-27.4,19.8c-9,6.5-18,13-27,19.4
				C278.1,144.6,277.7,145.3,276.9,145.1L276.9,145.1z"/>
			<path id="path156" class="st11" d="M276.9,145.1c0.8,0.3,1.2-0.4,1.7-0.8c9-6.5,18-13,27-19.4c9.1-6.6,18.3-13.2,27.4-19.8
				c0.9-0.6,1.5-1.3,2-2.3c2.2-4.1,5.3-7.4,8.7-10.5c3.9-3.6,7.4-7.5,10.4-11.9c1.9-2.9,3.5-5.8,4.7-9.1c0.4-1.2,0.7-2.4,0.7-3.7
				c0-0.3-0.1-0.6-0.4-0.7c-0.2-0.1-0.5,0.1-0.6,0.3c-0.5,0.8-1.1,1.6-1.6,2.4c-2.7,4.5-5.7,8.9-8.9,13.1c-1.5,2-3.2,3.7-5.2,5.2
				c-3.6,2.8-6.7,6-9.5,9.5c-0.7,0.9-1.5,1.7-2.2,2.6c-0.5,0.6-1,0.6-1.5,0.1c-0.2-0.2-0.5-0.4-0.7-0.6c-1.8-1.7-3.9-2.8-6-3.9
				c-1-0.5-1.9-1-2.8-1.5c0.1-0.9,0.7-1.2,1.2-1.6c1.2-1.1,2.1-2.4,2.8-3.9c0.8-1.8,0.3-4-1.3-5.1c-1-0.7-1.1-1.5-1.1-2.4
				c0-3,0.6-5.8,1.3-8.7c2.2-9.8,6.2-18.9,11.2-27.5c0.2-0.4,0.4-0.8,0.8-0.9c1.8,1.4,3.6,2.8,5.4,4.1c12.6,9.4,25,19.1,37.4,29
				c-0.4,0.7-1.1,1-1.8,1.5c-45.6,32.9-91.2,65.7-136.8,98.6c-1.4,1-2.6,2.2-4.3,2.9c0.1-0.6-0.2-1-0.6-1.4
				c-1.1-1.4-1.1-1.6,0.3-2.7c1.4-1.1,3-2.2,4.5-3.3c6.8-4.9,13.5-9.7,20.3-14.6c5.6-4,11.2-8,16.8-12
				C276.4,145.7,276.7,145.5,276.9,145.1L276.9,145.1z"/>
			<path id="path158" class="st4" d="M367.3,207.1c1.7-11.7,1.7-23.4,0.8-35.2c-0.2-2.7-0.7-5.4-1.3-8.1c-0.9-3.8-3.9-5.6-7.1-5.7
				c-4-0.2-8,0-12,0.9c-0.1,0-0.2,0.1-0.3,0.1c-1.9,0.3-2.8,0.4-3-2.1c-0.4-5-1.6-9.9-2.8-14.8c-0.1-0.5-0.2-1.1-0.4-1.6
				c-0.7-2.3-0.1-4,1.7-5.6c2.7-2.2,5.5-4.1,8.8-5.1c3-0.9,4.3-0.6,6.2,2c2.7,3.5,5.3,6.9,8.3,10.1c5.4,5.8,11.2,11,17.6,15.6
				c2.3,1.7,4.8,3.2,7.4,4.5c0.6,0.3,1.2,0.5,1.7,1c-1.5,9.4-2.9,18.9-4.8,28.3c-0.4,1.9-0.9,3.7-1.3,5.6c-0.2,1-0.8,1.7-1.6,2.2
				c-2.1,1.2-4.2,2.3-6.4,3.3c-3.4,1.6-6.8,3.1-10.3,4.6C368,207.3,367.7,207.6,367.3,207.1L367.3,207.1z"/>
			<path id="path160" class="st4" d="M331.7,41.9c0.1,0.7-0.4,1.2-0.8,1.8c-4.6,7.9-8.6,16.2-11.1,25.1c-0.9,3.3-1.6,6.6-2,10
				c-0.1,0.4-0.1,0.8-0.2,1.2c-0.3,1-0.8,1.3-1.7,1.1c-4.9-1.2-9.9-0.8-14.8,0.1c-2.3,0.4-2.3,0.4-2.7-2c-1-5.8-2.6-11.5-4.8-16.9
				c-2.1-5.1-4.8-9.9-7.7-14.6c-0.3-0.5-0.7-0.9-0.7-1.4c9.5-3.7,19-7.4,28.7-10.6c1.5-0.5,3-0.8,4.5-1.3c1-0.3,1.7-0.1,2.5,0.4
				c3.2,1.9,6.3,4.1,9.4,6.3C330.7,41.2,331.2,41.5,331.7,41.9L331.7,41.9z"/>
			<path id="path162" class="st11" d="M338.7,219.4c4.5-11.2,6-22.9,5.9-34.9c0-3.2-0.1-6.4,0-9.5c0.1-4.1,0.5-4.5,4.5-5.5
				c2.5-0.6,5-1.1,7.6-1.5c1.3-0.2,2.2,0.2,3,1.1c1.6,1.9,2.5,4.1,2.8,6.5c0.6,5.4,0.7,10.9,0.5,16.3c-0.1,4.4-0.6,8.7-1.1,13.1
				c-0.2,1.6-0.1,3.2-0.2,4.8c-0.8,0.6-1.7,0.9-2.6,1.2c-6.3,2.7-12.7,5.3-19,8C339.6,219.3,339.2,219.4,338.7,219.4L338.7,219.4z"
				/>
			<path id="path164" class="st1" d="M254.1,210c-0.1-3-0.8-5.9-1.2-8.9c-0.3-2.4-0.6-4.8-0.7-7.2c0-0.6,0-1.1,0.5-1.4
				c1.6-1.1,3.1-2.2,4.6-3.3c0.5,0.1,0.4,0.4,0.4,0.6c0,5.3,0.8,10.5,1.6,15.7c0.5,3.1,0.8,6.3,1,9.5c-0.2,0-0.4,0.1-0.5,0
				C257.6,213.6,255.4,212.4,254.1,210L254.1,210z"/>
			<path id="path172" class="st1" d="M169,198.9c-0.3,0.5,0,0.8,0.2,1.1c0.6,0.8,1.1,1.5,1.6,2.4c0.6,0.9,0.4,1.5-0.5,2.1
				c-0.3,0.2-0.7,0.4-1.1,0.6c-5.3,3-10.6,6-15.9,9c-1,0.6-2,0.9-3.2,0.9c-7.6,0-14.7,1.7-21.1,5.9c-0.1,0.1-0.3,0.2-0.5,0.3
				c-0.6,0.4-1.1,0.4-1.7,0c-0.5-0.4-0.6-1-0.4-1.6c0.4-1.3,1.3-2.4,2.1-3.5c0.3-0.4,1-0.6,1-1.4l0,0c0.4,0,0.5-0.2,0.4-0.6
				c1.3-0.5,2.3-1.4,3.4-2.3c2.1-1.7,4.5-2.6,7-3.6c3.7-1.5,7.3-2.8,11-4.2c0.1,0,0.2,0,0.5,0.1c-0.3,0.8-1.1,0.8-1.6,1.2
				c-0.6,0.5-1.7,0.4-1.9,1.5c-0.3,0.4-0.8,0.5-1.3,0.6c-1.7,0.4-3.4,1.1-5,2c-2.9,1.6-5.8,3.2-8.2,5.6c0,0.1-0.4,0.2,0,0.2
				c0.1,0,0.1-0.2-0.1-0.3c0.3,0.2,0.6,0.1,0.8,0c5-2,10.2-2.6,15.5-2.7c0.9,0,1.6-0.3,2.3-0.8c4.7-2.7,9.4-5.3,14.1-8
				c0.4-0.2,0.9-0.3,1.2-0.9c-0.7-0.8-1-2-2.1-2.5c-0.3-1.7-0.2-1.8,1.3-2.2c0.4-0.1,0.8-0.2,1.1,0.2
				C168.3,198.5,168.6,198.8,169,198.9L169,198.9z"/>
			<path id="path174" class="st6" d="M133.9,215c2.4-2.4,5.3-4,8.2-5.6c1.5-0.9,3.2-1.6,5-2c0.4-0.1,0.9-0.2,1.3-0.6
				c1.1-0.2,2-0.7,3-1.1c4.7-1.8,9.5-3.7,14.2-5.5c1.1,0.5,1.4,1.7,2.1,2.5c-0.3,0.6-0.8,0.7-1.2,0.9c-4.7,2.7-9.4,5.3-14.1,8
				c-0.7,0.4-1.5,0.7-2.3,0.8c-5.3,0.1-10.5,0.7-15.5,2.7C134.4,215.1,134.1,215.2,133.9,215L133.9,215z"/>
			<path id="path176" class="st12" d="M153.1,203.8c0.3-0.7,0.7-0.8,1.3-0.8C154.1,203.7,153.7,203.8,153.1,203.8z"/>
			<path id="path178" class="st7" d="M130,214.2c0.1,0.4,0,0.6-0.4,0.6C129.5,214.4,129.9,214.3,130,214.2z"/>
			<path id="path180" class="st1" d="M117.7,105.9c9.5,0,17.2,7.6,17.3,17.1c0,9.5-7.8,17.3-17.5,17.2c-9.5-0.1-17.2-7.8-17.2-17.2
				C100.3,113.5,108,105.9,117.7,105.9L117.7,105.9z M117.5,137c7.9,0,14.2-6.2,14.2-13.9c0-7.8-6.3-14.1-14.2-14.1
				c-7.8,0-14.2,6.3-14.2,14C103.4,130.8,109.7,137,117.5,137z"/>
			<path id="path182" class="st1" d="M226.1,264.2c0,1.4-0.5,1.9-1.9,1.8c-2-0.1-4.1-0.3-6.1-0.5c-1.7-0.2-1.8-0.3-1.9-1.9
				c-0.3-3.9-2-7.2-4.5-10.1c-0.5-0.5-1-1.1-1.5-1.6c-0.5-0.5-0.9-1-0.6-1.7c0.3-0.8,1-0.9,1.8-0.9c1.4,0.1,2.9,0.4,4.2,1
				c5.5,2.7,8.8,7.2,10.4,13C226.1,263.6,226.1,264,226.1,264.2L226.1,264.2z M215.7,253.5c-0.1-0.2-0.2-0.3-0.4-0.2
				c-0.2,0.1,0,0.3,0.1,0.4c1.6,2.6,2.9,5.2,3.4,8.3c0.1,0.4,0,0.9,0.6,0.9c1.2,0,2.4,0.4,3.9,0.2
				C221.7,259,219.6,255.6,215.7,253.5z"/>
			<path id="path184" class="st1" d="M146,222.9c-2.2,0-2.7-0.6-2.1-2.5c0.4-1.1,0.7-2.3,1.1-3.4c0.4-1.1,0.7-1.4,1.8-1.2
				c1.8,0.3,3.6,0.7,5.4,1.1c0.8,0.2,1.2,0.7,1.1,1.6c-0.1,1.7-1,2.8-2.4,3.5C149.4,222.7,147.6,222.7,146,222.9z M147.1,220
				c1.1,0.1,2.1-0.1,3-0.8c-0.6-0.2-1.1-0.3-1.6-0.4C147.4,218.5,147.1,219,147.1,220L147.1,220z"/>
			<path id="path186" class="st1" d="M391.3,314.8c1,0.4,1.9,0.9,2.9,0.8c0.3,0,0.6,0.1,0.8,0.4c0.8,1.4,1.7,2.8,1.2,4.5
				c-0.5,1.9-2,2.7-3.8,2.1c-1-0.3-1.8-0.8-2.8-1.3c-0.3-0.1-0.5-0.3-0.5-0.7c0-1.2-0.6-2.6,0.9-3.5
				C390.8,316.7,390.9,315.7,391.3,314.8L391.3,314.8z"/>
			<path id="path188" class="st1" d="M421.4,327.5c0.4-0.3,0.6-0.5,0.9-0.7c-0.2-0.2-0.4-0.4-0.5-0.6c-1.5-1.7-1.1-4.1,1-5.2
				c0.3-0.2,0.6-0.3,1,0c0.8,0.5,1.8,0.6,2.8,0.6c1.3,0.1,2,0.9,2.4,2.1c0.9,3.1,0.3,4.1-2.8,4.7c-0.6,0.1-1.2,0.2-1.8,0.2
				C423,328.8,422.6,328.6,421.4,327.5L421.4,327.5z"/>
			<path id="path190" class="st6" d="M133.8,215c0.1,0.1,0.2,0.3,0.1,0.3C133.5,215.2,133.9,215.1,133.8,215
				C133.9,215,133.8,215,133.8,215L133.8,215z"/>
			<path id="path192" class="st6" d="M117.5,137c-7.8,0-14.1-6.3-14.1-14c0-7.7,6.3-14,14.2-14c7.9,0,14.3,6.3,14.2,14.1
				C131.7,130.8,125.4,137,117.5,137z M113.1,116.9c0-0.6-0.2-1-0.6-1.2c-0.4-0.2-0.7-0.4-1.1-0.6c-1.6-0.8-1.9-0.7-2.7,1
				c-0.5,0.9-0.9,1.8-1.4,2.7c-0.9,1.9-0.8,2.1,1,3c0.2,0.1,0.4,0.2,0.6,0.3c1,0.4,1.4,0.3,1.9-0.6c0.7-1.4,1.4-2.8,2.1-4.2
				C113.1,117.2,113.1,117,113.1,116.9z M117.6,121.1c-1.9,0-2,0.1-2,2c0,1.9,0.1,1.9,1.9,1.9c2,0,2.1-0.1,2.1-1.9
				C119.6,121.1,119.5,121.1,117.6,121.1z"/>
			<path id="path194" class="st8" d="M215.7,253.5c3.9,2.1,6,5.5,7.5,9.7c-1.4,0.1-2.6-0.2-3.9-0.2c-0.6,0-0.6-0.5-0.6-0.9
				c-0.5-3-1.8-5.7-3.4-8.3C215.5,253.7,215.6,253.6,215.7,253.5L215.7,253.5z"/>
			<path id="path196" class="st8" d="M215.4,253.8c-0.1-0.1-0.3-0.3-0.1-0.4c0.2-0.1,0.3,0,0.4,0.2
				C215.6,253.6,215.5,253.7,215.4,253.8L215.4,253.8z"/>
			<path id="path198" class="st8" d="M147.1,220c0-1,0.3-1.5,1.4-1.2c0.5,0.1,1,0.3,1.6,0.4C149.1,219.9,148.1,220.1,147.1,220
				L147.1,220z"/>
			<path id="path200" class="st1" d="M113.1,116.9c0,0.1,0,0.3-0.1,0.5c-0.7,1.4-1.3,2.8-2.1,4.2c-0.5,0.9-0.9,1-1.9,0.6
				c-0.2-0.1-0.4-0.2-0.6-0.3c-1.9-0.9-1.9-1.1-1-3c0.4-0.9,0.9-1.8,1.4-2.7c0.9-1.7,1.1-1.8,2.7-1c0.4,0.2,0.7,0.4,1.1,0.6
				C112.9,115.9,113.2,116.3,113.1,116.9z M110.6,115.6c-0.6-0.1-0.8,0.1-0.9,0.3c-0.6,1.3-1.3,2.6-1.9,3.8c-0.2,0.5-0.1,0.8,0.4,1
				c0.4,0.2,0.7,0.4,1.1,0.6c0.4,0.2,0.8,0.2,1-0.3c0.6-1.3,1.3-2.6,1.9-3.8c0.1-0.3,0.2-0.6-0.1-0.8
				C111.6,116.1,111,115.8,110.6,115.6L110.6,115.6z"/>
			<path id="path202" class="st1" d="M117.6,121.1c1.9,0,2,0.1,2,2c0,1.9-0.1,1.9-2.1,1.9c-1.8,0-1.9-0.1-1.9-1.9
				C115.6,121.1,115.7,121.1,117.6,121.1z M118.8,123c0-1.1-0.1-1.2-1.2-1.1c-1.1,0-1.2,0.1-1.2,1.2c0,1.1,0.1,1.2,1.2,1.1
				C118.7,124.2,118.8,124.2,118.8,123z"/>
			<path id="path204" class="st6" d="M110.6,115.6c0.4,0.2,1,0.5,1.5,0.8c0.3,0.2,0.2,0.5,0.1,0.8c-0.6,1.3-1.3,2.6-1.9,3.8
				c-0.2,0.5-0.6,0.5-1,0.3c-0.4-0.2-0.7-0.4-1.1-0.6c-0.5-0.2-0.6-0.6-0.4-1c0.6-1.3,1.3-2.6,1.9-3.8
				C109.8,115.7,110,115.5,110.6,115.6L110.6,115.6z"/>
			<path id="path206" class="st8" d="M118.8,123c0,1.2,0,1.2-1.2,1.2c-1.2,0-1.2,0-1.2-1.1c0-1.2,0-1.2,1.2-1.2
				C118.7,121.8,118.8,121.9,118.8,123z"/>
		</g>
	</g>
</g>
</svg>
