<svg id="Calque_1" data-name="Calque 1" xmlns="http://www.w3.org/2000/svg" viewBox="0 0 922.76 982.39"><defs><style>.cls-1{fill:#080807;}.cls-2{fill:#ffe41e;}</style></defs><g id="Core_2" data-name="Core 2"><path class="cls-1" d="M913.87,295.44c-9.09-6.74-15.9-15.74-24.56-23-10.54-8.81-20.74-18.27-31.34-27.12q-38-31.68-76.77-62.44C714.41,129.72,647,77.42,577.33,28c-11.74-8.35-23.7-16.34-36.12-23.7-7.68-4.56-15.44-5.3-24-3.08C502.73,5,488.55,9.65,474.47,14.67c-93.6,33.42-185.6,70.8-277.08,109.64C161.21,139.69,125.28,155.59,90,172.88c-15.47,7.58-24.1,18.24-27.74,35.32C52.51,253.75,45.15,299.67,38,345.65Q26.62,418.73,17.38,492.13C10.69,544.65,4,597.13.06,650c0,5.55,0,11.09-.06,16.58,0,7.86,2.52,14.67,8.32,20.15,5.61,5.37,11,11,16.76,16.15,43.61,39,89.41,75.39,135.3,111.66,60.62,47.89,121.86,95,184.73,139.86q17.19,12.3,35.44,23.14c8.14,4.84,16.27,6.07,25.43,3.58,13.83-3.76,27.46-8.23,41-12.88,38.43-13.26,76.4-27.86,114.18-42.84q59.77-23.71,119.27-48.23Q722,860,763.12,841.81c13.83-6.17,27.64-12.36,41.33-18.93,12.14-5.82,24.25-11.55,36.24-17.69,9.58-4.9,14.91-12.36,17.6-22.74,6.07-23.64,10.35-47.62,14.51-71.63q10.46-60.18,18.92-120.68c5.37-38.68,10.85-77.36,15.91-116.1,4.93-37.91,9.4-75.91,12.73-114,1.32-15.19,2.71-30.39,2.34-45.67C922.5,306.63,919.87,299.88,913.87,295.44ZM367.44,78.67c44-17.06,87.89-34.28,132.72-49.07,6.78-2.25,13.84-3.82,20.59-6.2,4.37-1.54,7.89-.64,11.68,1.64,14.94,9,29.06,19.14,43.33,29.09,2.25,1.57,4.59,3,6.87,4.56h0c.43,3.42-2.07,5.61-3.54,8.17-21.45,36.74-39.64,74.89-51.13,116a336.21,336.21,0,0,0-9.25,46.42,32.56,32.56,0,0,1-1,5.7c-1.51,4.59-3.57,6.16-8.07,5-22.84-5.73-45.58-3.91-68.36.37-10.45,2-10.72,1.7-12.54-9.28A352.71,352.71,0,0,0,406.33,153c-9.77-23.58-22-45.95-35.47-67.62-1.29-2.06-3.05-4-3.39-6.56h0ZM122.16,706.45c-9.79,7.23-19.55,14.53-29.31,21.8h-.09c-3-.28-6-.9-8.35-3C65.55,708.7,45.87,693,27.87,675.51a16.38,16.38,0,0,1-5.43-13c.25-20.8,2.31-41.51,4.53-62.16q5-47.13,11-94.09c4.37-34.37,8.93-68.7,14-102.94C57.48,365.51,63.49,327.75,69.53,290c4.19-26.26,9.19-52.36,14.83-78.34,1.88-8.66,6.07-14,13.93-17.94,26-13.07,52.51-25,79.14-36.58,55.81-24.38,112.18-47.37,168.7-70,1.51-.62,3-1.42,4.47-2.13v.15c3.52.19,4.16,3.3,5.55,5.55a475.55,475.55,0,0,1,30.72,58.88c12.39,28.57,21.85,58,25.7,89.06.71,5.92-.4,10.57-4.34,15.26-9.87,11.68-9.59,21.88.24,33.5,2.53,3,5.46,5.55,8.08,8.38,2,2.19,4.68,3.89,5.3,7.37-3.61,3.51-8.23,5.45-12.61,7.76-10.38,5.43-20,11.87-28.32,20.19-6.29,6.29-5.46,6-10.91-.89a277.88,277.88,0,0,0-56.18-54,143.33,143.33,0,0,1-28.48-27.83A647.59,647.59,0,0,1,243,188.77a27.69,27.69,0,0,0-3.91-5.33c-2-2.07-4.13-1.3-4.62,1.66-.8,4.81.67,9.37,2.18,13.81,3.92,11.62,9.71,22.34,16.25,32.67A273.71,273.71,0,0,0,311,297.31c15.72,12.86,29.77,27.22,41.33,44.14,9.06,13.19,11.62,27.18,9.18,42.62-1.69,10.69-3.48,21.48-2.74,32.27.89,13.22-.89,25.33-9.52,35.87a9,9,0,0,0-1.54,2.93c-2.81,8.26-5.61,6.81-11.22,4.53-10.76-4.41-21.45-8.94-32.61-12.3-14.14-4.25-28.44-7.06-43.36-5.88-5,.4-8.91,2.09-11.83,6.38C244,454.71,239,461.36,234,468.05c-40,53.78-85.31,102-141.43,139.37-14.09,9.33-28.14,18.7-43,26.87-6.57,3.61-13,7.52-18.31,12.85-1.79,1.79-3.17,3.64-2.1,6.6s3.55,3.48,5.77,3.69a28.1,28.1,0,0,0,11.5-.86c25.43-8.07,49-19.91,71.16-34.61A452.51,452.51,0,0,0,201,550.57c19.85-21.57,37.38-44.84,54.27-68.69,6-8.38,17.57-11.93,27.09-7.83,13.68,5.89,27.37,11.71,39.66,20.37,11.81,8.32,14.06,14.86,10.27,28.85-1.11,4.1-2.31,8.14-3.05,12.33,3.66,1.17,5.51-2,7.76-3.45q62.46-44.85,124.76-89.84Q525.14,396.59,588.55,351a29,29,0,0,0,9.06-10.45c10-18.89,24.5-34.14,40.12-48.38,18.1-16.52,34.37-34.58,47.9-55.05,8.72-13.22,16.39-27,21.66-42,2-5.52,3.36-11.13,3.18-17,0-1.36-.34-2.9-2-3.27a2.76,2.76,0,0,0-2.75,1.48c-2.52,3.6-5.17,7.18-7.46,11a661.68,661.68,0,0,1-41.14,60.41,128,128,0,0,1-24,24c-16.58,12.73-30.82,27.86-43.94,44-3.33,4.1-6.78,8.08-10.11,12.15-2.22,2.71-4.5,2.86-7.06.52-1-.92-2.22-1.63-3.24-2.59-8.19-7.64-17.78-13.1-27.8-17.93-4.43-2.16-8.75-4.53-13-6.75.4-4.07,3.39-5.55,5.49-7.59a58.45,58.45,0,0,0,12.88-18.21c3.6-8.35,1.54-18.68-5.89-23.79-4.41-3-5.24-6.75-5.27-11.25,0-13.68,2.84-27,5.79-40.22,10.11-45.3,28.76-87.16,51.84-127.16,1-1.66,1.64-3.57,3.82-4.07h0c8.39,6.32,16.71,12.73,25.12,19,58.37,43.61,115.79,88.48,172.68,134h0v0c-1.86,3.26-5.28,4.71-8.12,6.76q-316,227.91-632.13,455.76c-6.41,4.66-12.2,10.3-19.78,13.22C130.33,700.57,126.2,703.46,122.16,706.45Zm605,46c-.71,20.25-2.93,40.31-5.08,60.44-.8,7.39-.65,14.91-1,22.4v.11c-3.59,2.61-7.78,3.91-11.79,5.59q-44,18.45-88,37a13.24,13.24,0,0,1-6.44,1.24h-.06l-.06-.09h0C635.5,827.39,642.25,773.27,641.94,718c-.09-14.7-.37-29.4.15-44.07.71-18.92,2.44-20.71,20.75-25.33,11.55-2.93,23.29-4.87,35-7,5.88-1,10.26.9,14,5.21a54.38,54.38,0,0,1,12.82,30.11,529.56,529.56,0,0,1,2.51,75.56Zm115.76-2.19c-1.76,8.63-4.1,17.14-5.89,25.76-1,4.69-3.48,7.65-7.61,10.11a319.42,319.42,0,0,1-29.65,15.17c-15.72,7.27-31.65,14.14-47.43,21.26-1.74.78-3.31,1.92-5,.15l-.17-.53c7.59-53.91,7.65-108,3.87-162.19-.9-12.73-3.36-25.21-6.2-37.66-4-17.57-18-25.82-32.91-26.47-18.56-.8-37.08.18-55.32,4.31-.53.13-1,.4-1.57.5-8.76,1.57-13,1.94-14-9.77-2-23.18-7.55-45.86-13.1-68.45-.58-2.41-1-4.87-1.75-7.25-3.39-10.47-.62-18.73,8-25.73,12.33-10.08,25.33-18.86,40.68-23.54,14-4.29,19.94-2.62,28.88,9.06C716,491,728.43,507,742.21,521.86A533.48,533.48,0,0,0,823.51,594a273.45,273.45,0,0,0,34,20.71c2.67,1.34,5.75,2.09,7.63,4.69l.06.23c-7,43.58-13.5,87.31-22.27,130.6Zm57.6-422.13c-3,44.75-8.17,89.25-13.87,133.69-5.52,43-11.46,86.07-17.22,129.09h0c-3.26-.16-5.45-2.5-8.07-4.23-52.49-34.64-97.58-77.32-137-126.23-6.1-7.55-11.9-15.32-18.59-22.38-4.83-5.08-10.47-6.93-17.22-6.19a163,163,0,0,0-30.79,6.66c-3,.92-5.36,2.83-7.83,4.62q-160.41,115.65-321,231.23c-4.07,2.93-5.58,5.86-5.39,10.88,1,24.66,1.17,49.34,3.54,73.91,5.55,57.48,20.53,112.06,50.61,161.89a21,21,0,0,1,1.72,2.84c1.6,3.66,6,7.24,3.39,11.24-3.2,4.9-6.74,10.41-14,10.3-34.86-27.68-71.75-52.63-106.83-80-3-2.34-6.34-4.12-9.51-6.18h0c-1-14.66-2.16-29.26-4.5-43.77-3.92-24.07-7.46-48.2-7.43-72.67,0-1,.31-2.25-1.94-2.93-6.75,4.84-13.87,10-21,15.1-2.44,1.73-2.44,4-2.34,6.63a324.46,324.46,0,0,0,3.14,33.07c2,13.68,5.3,27.2,5.64,41.1h0c-18.82-13.53-36.63-28.35-55-42.52-3.85-3-7.64-6.07-11.47-9.12-1.27-1-2.53-2.15-4.37-1.61h0c-.06-1-.73-2.25.75-2.71,2.74-.83,4.74-2.8,7-4.4q330.5-238.23,661-476.5c10.11-7.3,20.22-14.64,30.36-21.88,2-1.42,3.89-3.49,6.6-2.14a7.65,7.65,0,0,1,1.22.92c10,9.12,19.8,18.57,30.27,27.17,8.26,6.64,10.85,14.41,10.14,25.1Z"/><path class="cls-2" d="M711.92,646.75c-3.7-4.31-8.08-6.25-14-5.21-11.72,2.1-23.46,4-35,7-18.31,4.62-20,6.41-20.75,25.33-.52,14.67-.24,29.37-.15,44.07.31,55.32-6.44,109.44-27.21,161.19h0l.06.09h.06a13.24,13.24,0,0,0,6.44-1.24q44-18.45,88-37c4-1.68,8.2-3,11.79-5.59v-.11c.31-7.49.16-15,1-22.4,2.15-20.13,4.37-40.19,5.08-60.44a529.71,529.71,0,0,0-2.43-75.57A54.4,54.4,0,0,0,711.92,646.75Z"/><path class="cls-2" d="M857.47,614.7a273.45,273.45,0,0,1-34-20.71,533.48,533.48,0,0,1-81.3-72.15C728.39,507,716,491,703.71,475c-8.94-11.68-14.86-13.35-28.88-9.06-15.35,4.68-28.35,13.46-40.68,23.54-8.57,7-11.34,15.26-8,25.73.77,2.38,1.17,4.84,1.75,7.25C633.45,545,639,567.7,641,590.88c1,11.71,5.27,11.34,14,9.77.55-.1,1-.37,1.57-.5,18.24-4.13,36.76-5.11,55.32-4.31,14.91.65,28.91,8.9,32.91,26.47,2.84,12.45,5.3,24.93,6.2,37.66,3.78,54.19,3.72,108.28-3.87,162.19l.17.53c1.68,1.77,3.25.63,5-.15,15.78-7.12,31.71-14,47.43-21.26a319.42,319.42,0,0,0,29.65-15.17c4.13-2.46,6.63-5.42,7.61-10.11,1.79-8.62,4.13-17.13,5.89-25.76,8.77-43.29,15.24-87,22.23-130.62l-.06-.23C863.22,616.79,860.14,616,857.47,614.7Z"/><path class="cls-2" d="M370.78,85.41c13.5,21.67,25.7,44,35.47,67.62a352.71,352.71,0,0,1,22.41,78.06c1.82,11,2.09,11.25,12.54,9.28,22.78-4.28,45.52-6.1,68.36-.37,4.5,1.14,6.56-.43,8.07-5a32.56,32.56,0,0,0,1-5.7,336.21,336.21,0,0,1,9.25-46.42c11.49-41.11,29.68-79.26,51.13-116,1.47-2.56,4-4.75,3.54-8.17h0c-2.28-1.51-4.62-3-6.87-4.56C561.41,44.2,547.29,34,532.35,25.06c-3.79-2.28-7.31-3.18-11.68-1.64-6.75,2.38-13.81,3.95-20.59,6.2-44.83,14.79-88.73,32-132.72,49.07l-.08.15h0C367.73,81.44,369.49,83.35,370.78,85.41Z"/><path class="cls-2" d="M786.41,228.69c2.84-2.05,6.26-3.5,8.12-6.76v-.05h0c-56.89-45.52-114.31-90.39-172.68-134-8.41-6.29-16.73-12.7-25.12-19h0c-2.18.5-2.86,2.41-3.82,4.07-23.08,40-41.73,81.86-51.84,127.16-3,13.22-5.82,26.54-5.79,40.22,0,4.5.86,8.2,5.27,11.25,7.43,5.11,9.49,15.44,5.89,23.79a58.45,58.45,0,0,1-12.93,18.2c-2.1,2-5.09,3.52-5.49,7.59,4.25,2.22,8.57,4.59,13,6.75,10,4.83,19.61,10.29,27.8,17.93,1,1,2.22,1.67,3.24,2.59,2.56,2.34,4.84,2.19,7.06-.52,3.33-4.07,6.78-8.05,10.11-12.15,13.12-16.18,27.36-31.31,43.94-44a128,128,0,0,0,24-24,661.68,661.68,0,0,0,41.14-60.41c2.29-3.79,4.94-7.37,7.46-11a2.76,2.76,0,0,1,2.75-1.48c1.63.37,1.94,1.91,2,3.27.18,5.91-1.23,11.52-3.18,17-5.27,15-12.94,28.75-21.66,42-13.53,20.47-29.8,38.53-47.9,55.05-15.62,14.24-30.14,29.49-40.12,48.38A29,29,0,0,1,588.6,351q-63.48,45.54-126.79,91.32L337.05,532.18c-2.25,1.47-4.1,4.62-7.76,3.45.74-4.19,1.94-8.23,3-12.33,3.79-14,1.54-20.53-10.27-28.85-12.29-8.66-26-14.48-39.66-20.37-9.52-4.1-21.14-.55-27.09,7.83C238.43,505.76,220.9,529,201.05,550.6A452.24,452.24,0,0,1,117.68,622c-22.24,14.62-45.81,26.5-71.21,34.62a28.09,28.09,0,0,1-11.46.89c-2.22-.21-4.69-.83-5.77-3.69s.31-4.81,2.1-6.6c5.33-5.33,11.74-9.24,18.31-12.85,14.82-8.17,28.87-17.54,43-26.87,56.12-37.36,101.48-85.59,141.43-139.37,5-6.69,9.92-13.34,14.64-20.18,2.92-4.29,6.78-6,11.83-6.38,14.92-1.18,29.22,1.63,43.36,5.88,11.16,3.36,21.85,7.89,32.61,12.3,5.61,2.28,8.41,3.73,11.22-4.53a9,9,0,0,1,1.54-2.93c8.63-10.54,10.41-22.65,9.52-35.87-.74-10.79,1-21.58,2.74-32.27,2.44-15.44-.12-29.43-9.18-42.62C340.8,324.56,326.75,310.2,311,297.34a273.65,273.65,0,0,1-58.16-65.77c-6.54-10.33-12.33-21-16.25-32.67-1.51-4.44-3-9-2.18-13.81.49-3,2.59-3.73,4.62-1.66a27.69,27.69,0,0,1,3.91,5.33,647.59,647.59,0,0,0,42.38,59.6,143,143,0,0,0,28.52,27.82,277.88,277.88,0,0,1,56.18,54c5.45,6.9,4.62,7.18,10.91.89,8.32-8.32,17.94-14.76,28.32-20.19,4.38-2.31,9-4.25,12.61-7.76-.62-3.48-3.3-5.18-5.3-7.37-2.62-2.83-5.55-5.42-8.08-8.38-9.83-11.62-10.11-21.82-.24-33.5,3.94-4.69,5.05-9.34,4.34-15.26-3.85-31.06-13.31-60.49-25.7-89.06a475.69,475.69,0,0,0-30.76-58.87c-1.39-2.25-2-5.36-5.55-5.55V85c-1.48.71-3,1.51-4.47,2.13-56.52,22.68-112.89,45.67-168.7,70.05-26.63,11.62-53.16,23.51-79.14,36.58-7.86,3.95-12,9.28-13.93,17.94-5.64,26-10.64,52.08-14.83,78.34-6,37.72-12,75.48-17.56,113.29-5,34.24-9.59,68.57-14,102.94q-6,47-11,94.09C24.75,621,22.69,641.7,22.44,662.5a16.38,16.38,0,0,0,5.43,13c18.06,17.5,37.72,33.19,56.58,49.74,2.37,2.09,5.3,2.71,8.35,3h.09c9.76-7.27,19.52-14.57,29.31-21.8,4-3,8.17-5.89,12.24-8.82,7.58-2.92,13.37-8.56,19.78-13.22Q470.35,456.64,786.41,228.69Z"/><path class="cls-2" d="M890.36,302.84c-10.47-8.6-20.24-18-30.27-27.17a7.65,7.65,0,0,0-1.22-.92c-2.71-1.35-4.61.72-6.6,2.14-10.14,7.24-20.25,14.58-30.36,21.88l-661,476.5c-2.22,1.6-4.22,3.57-7,4.4-1.48.46-.81,1.73-.75,2.71h0c1.84-.54,3.1.57,4.37,1.61,3.83,3,7.62,6.13,11.47,9.12,18.33,14.17,36.14,29,55,42.52h0c-.34-13.9-3.67-27.42-5.64-41.1a321.64,321.64,0,0,1-3.14-33.07c-.1-2.59-.1-4.9,2.34-6.63,7.18-5.08,14.3-10.26,21-15.1,2.25.68,1.94,1.94,1.94,2.93,0,24.47,3.51,48.6,7.43,72.67,2.34,14.51,3.51,29.11,4.5,43.77h0c3.17,2.06,6.53,3.84,9.51,6.18,35.08,27.41,72,52.36,106.83,80,7.24.11,10.78-5.4,14-10.3,2.65-4-1.79-7.58-3.39-11.24a20.44,20.44,0,0,0-1.72-2.84C347.58,871.07,332.6,816.49,327.05,759c-2.37-24.57-2.59-49.25-3.54-73.91-.19-5,1.32-8,5.39-10.88Q489.45,558.75,649.9,443c2.47-1.79,4.87-3.7,7.83-4.62a163,163,0,0,1,30.79-6.66c6.75-.74,12.39,1.11,17.22,6.19,6.69,7.06,12.49,14.83,18.59,22.38,39.38,48.91,84.47,91.59,137,126.23,2.62,1.73,4.81,4.07,8.07,4.23h0c5.76-43,11.7-86,17.22-129.09,5.7-44.44,10.88-88.94,13.87-133.69C901.24,317.42,898.65,309.65,890.36,302.84Z"/></g></svg>